<svg width="537" height="380" xmlns="http://www.w3.org/2000/svg"><g fill="none" fill-rule="evenodd"><path d="M494.257 0H46.743C27.07 0 11 16.058 11 35.716v302.568C11 357.942 27.07 374 46.743 374h447.514C513.93 374 530 357.942 530 338.284V35.765C530 16.106 513.93 0 494.257 0z" fill="#E3E9F0"/><path fill="#F5F8F8" d="M334 374v-25l-33 25zM218 374h40.588L334 317.38V65l-116 87.092zM88 374h116V163L88 250.143zM494.349 0H479v209l51-38.72V35.933C530 16.183 513.971 0 494.349 0zM479 375h15.349C513.97 375 530 358.91 530 339.21V202l-51 38.618V375zM349 374h116V251l-116 87.19zM349 53.703V307l116-87.408V0h-44.74z"/><path d="M351.075 201.317c-8.676-14.997-27.736-20.53-43.09-12.91h-87.01c-18.67 0-33.975 15.24-33.975 33.83v129.64c0 7.086 2.194 13.638 5.996 19.123h150.378c3.753-5.436 5.995-12.037 5.995-19.123V308.97c7.946 1.941 16.622.97 24.226-3.398 15.647-8.98 21.058-29.122 12.04-44.702l-34.56-59.554z" fill="#8B99AA"/><path d="M351.045 200.372c-9.02-15.616-29.255-21.016-44.906-12.016-9.264 5.351-14.92 14.546-16.139 24.47 1.316-1.021 2.682-1.994 4.193-2.87 15.651-9 35.886-3.6 44.906 12.016l34.52 59.693c3.706 6.373 4.974 13.524 4.145 20.335 12.385-9.973 16.041-27.827 7.85-41.935l-34.57-59.693z" fill="#728091"/><path d="M307.973 188.43h-69.016A42.735 42.735 0 00237 201.234C237 225.38 257.152 245 282 245s45-19.57 45-43.766a42.582 42.582 0 00-3.18-16.212c-5.33-.194-10.81.877-15.847 3.408z" fill="#728091"/><path d="M230.624 189.348c-15.62-8.984-35.814-3.593-44.816 11.995l-34.451 59.584c-9.002 15.588-3.6 35.741 12.019 44.725 15.62 8.984 35.814 3.593 44.816-11.995l34.451-59.584c9.002-15.588 3.6-35.692-12.019-44.725z" fill="#8B99AA"/><path d="M186.968 201.231L156 254.5c14.974 6.224 32.718.53 41.032-13.751L228 187.48c-14.925-6.176-32.718-.53-41.032 13.751z" fill="#9BABBB"/><path d="M249.049 205.437c-4.583-4.583-12.03-4.583-16.612 0-4.583 4.583-4.583 12.03 0 16.612l15.514 15.514c4.583 4.583 12.03 4.583 16.612 0 4.583-4.583 4.583-12.03 0-16.612l-15.514-15.514z" fill="#C7D1DD"/><path d="M287.951 205.404l-15.514 15.529c-4.583 4.586-4.583 12.04 0 16.627s12.03 4.587 16.612 0l15.514-15.528c4.583-4.587 4.583-12.04 0-16.628-4.535-4.539-12.03-4.539-16.612 0z" fill="#C7D1DD"/><path d="M298.149 105h-58.346C226.692 105 216 115.806 216 128.948v55.83C216 208.53 235.304 228 258.961 228h20.078c23.61 0 42.961-19.421 42.961-43.223v-55.78C321.952 115.805 311.211 105 298.149 105z" fill="#F29B54"/><path d="M247.992 113h-27.968A23.748 23.748 0 00214 128.837v55.892c0 23.78 19.543 43.271 43.494 43.271h15.33c.784-3.996 1.176-8.186 1.176-12.426v-71.777C274 126.839 262.294 113 247.992 113z" fill="#F0A66E"/><path d="M245 176.608c1.155.245 2.31.392 3.56.392.337 0 .674 0 1.01-.05l9.43-31.644a17.045 17.045 0 00-3.993-2.306L245 176.608zM248.17 142c-1.184 0-2.368.15-3.504.398L236 172.426a17.098 17.098 0 007.103 4.574L253 142.795c-1.515-.546-3.173-.795-4.83-.795zM292.788 143L283 177.01c1.733.643 3.606.99 5.573.99.89 0 1.733-.05 2.576-.198L300 147.109c-2.06-1.93-4.496-3.366-7.212-4.109zM294 177a17.894 17.894 0 005.603-2.537L306 154.121a16.993 16.993 0 00-3.223-5.121L294 177z" fill="#F7C49B"/><ellipse fill="#96353A" cx="286.5" cy="195.5" rx="4.5" ry="8.5"/><path d="M223.5 108c-4.688 0-8.5 3.589-8.5 8.002v33.996c0 4.413 3.812 8.002 8.5 8.002 4.688 0 8.5-3.589 8.5-8.002v-33.996c0-4.413-3.864-8.002-8.5-8.002zM314.5 108c-4.688 0-8.5 3.589-8.5 8.002v33.996c0 4.413 3.812 8.002 8.5 8.002 4.688 0 8.5-3.589 8.5-8.002v-33.996c0-4.413-3.812-8.002-8.5-8.002z" fill="#96353A"/><path d="M268.46 75h-39.92C213.38 75 201 87.363 201 102.5s12.38 27.5 27.54 27.5h39.92c15.16 0 27.54-12.363 27.54-27.5 0-15.088-12.38-27.5-27.54-27.5z" fill="#96353A"/><path d="M315.922 82h-17.844C286.461 82 277 91.474 277 103c0 11.574 9.51 21 21.078 21h17.844c11.617 0 21.078-9.474 21.078-21 0-11.574-9.51-21-21.078-21z" fill="#96353A"/><circle fill="#96353A" cx="286.5" cy="165.5" r="4.5"/><circle fill="#96353A" cx="251.5" cy="165.5" r="4.5"/><path d="M247 164c-.538.585-.846 1.268-1 2l1-2zM249.266 161.318L247 168c.906 1.182 2.417 2 4.13 2h.1l2.77-8.182a5.5 5.5 0 00-2.87-.818c-.655 0-1.26.136-1.864.318zM286.974 161L284 169.952c.26.048.574.048.835.048 2.87 0 5.165-2.095 5.165-4.714 0-1.905-1.252-3.572-3.026-4.286z" fill="#D58589"/><path d="M261.278 146.587a19.612 19.612 0 00-6.26-4.142c-2.298-.915-4.744-1.445-7.385-1.445-2.592 0-5.086.53-7.384 1.445-2.348.963-4.5 2.36-6.26 4.142a19.24 19.24 0 00-4.01 5.78 17.862 17.862 0 00-1.516 5.586l-13.156-8.765c-.391-.241-.93-.145-1.174.24-.244.386-.146.915.245 1.156l13.987 9.296v.096c0 2.553.538 5.009 1.467 7.272.978 2.312 2.396 4.431 4.206 6.165a19.612 19.612 0 006.26 4.142 19.568 19.568 0 007.384 1.445c2.592 0 5.087-.53 7.385-1.445 2.348-.963 4.5-2.36 6.26-4.142a19.28 19.28 0 004.206-6.165 18.766 18.766 0 001.467-7.272c0-2.553-.538-5.009-1.467-7.273-1.076-2.263-2.494-4.382-4.255-6.116zm2.592 20.035c-.88 2.12-2.2 4.046-3.815 5.635a17.537 17.537 0 01-5.721 3.757c-2.055.867-4.353 1.3-6.75 1.3-2.396 0-4.645-.481-6.748-1.3a17.537 17.537 0 01-5.722-3.757 17.235 17.235 0 01-3.815-5.635c-.88-2.023-1.32-4.286-1.32-6.646v-.819a17.292 17.292 0 011.467-6.165 17.302 17.302 0 013.668-5.25 17.537 17.537 0 015.722-3.756c2.054-.867 4.352-1.3 6.749-1.3 2.396 0 4.646.481 6.749 1.3a17.537 17.537 0 015.721 3.757 17.235 17.235 0 013.815 5.635c.88 2.023 1.32 4.286 1.32 6.646 0 2.36-.44 4.575-1.32 6.598zM321.642 149.225l-13.082 8.659c-.196-1.925-.735-3.752-1.47-5.436a18.936 18.936 0 00-4.067-5.868 19.653 19.653 0 00-6.271-4.137 19.658 19.658 0 00-7.399-1.443c-2.596 0-5.095.53-7.398 1.443-2.352.962-4.508 2.357-6.271 4.137a19.253 19.253 0 00-4.214 6.157c-.931 2.26-1.47 4.666-1.47 7.263 0 2.55.539 5.003 1.47 7.263.98 2.31 2.4 4.426 4.214 6.157a19.653 19.653 0 006.271 4.137c2.303.914 4.753 1.443 7.398 1.443 2.597 0 5.096-.53 7.399-1.443 2.351-.962 4.507-2.357 6.271-4.137a19.253 19.253 0 004.214-6.157 18.692 18.692 0 001.47-7.263v-.192l13.914-9.188c.392-.24.49-.77.245-1.154a.94.94 0 00-1.224-.24zm-15.973 17.413a17.21 17.21 0 01-3.822 5.628 17.575 17.575 0 01-5.732 3.752c-2.058.866-4.36 1.298-6.762 1.298-2.4 0-4.654-.48-6.761-1.298a17.575 17.575 0 01-5.733-3.752 17.21 17.21 0 01-3.821-5.628c-.882-2.02-1.323-4.281-1.323-6.638s.49-4.57 1.323-6.638a17.21 17.21 0 013.821-5.628 17.575 17.575 0 015.733-3.752c2.058-.866 4.36-1.298 6.761-1.298s4.655.48 6.762 1.298a17.575 17.575 0 015.732 3.752c1.568 1.54 2.842 3.32 3.724 5.34.833 1.923 1.372 4.04 1.42 6.253V160c0 2.405-.44 4.618-1.322 6.638z" fill="#96353A"/><ellipse fill="#F0A66E" cx="216.5" cy="155" rx="10.5" ry="13"/><ellipse fill="#F29B54" cx="320.5" cy="155" rx="10.5" ry="13"/><path d="M254.749 80h-26.498C218.198 80 210 88.134 210 98c0 9.914 8.247 18 18.251 18h26.498C264.802 116 273 107.914 273 98s-8.198-18-18.251-18z" fill="#A95156"/><path d="M270.749 93h-26.498C234.198 93 226 101.134 226 111c0 9.914 8.247 18 18.251 18h26.498c10.053 0 18.251-8.134 18.251-18s-8.198-18-18.251-18zM317.778 87h-3.556C306.43 87 300 93.28 300 101c0 7.671 6.38 14 14.222 14h3.556c7.793 0 14.222-6.28 14.222-14s-6.43-14-14.222-14z" fill="#A95156"/><path d="M527.714 361H10.286C5.18 361 1 365.277 1 370.5s4.181 9.5 9.286 9.5h517.428c5.105 0 9.286-4.277 9.286-9.5.048-5.223-4.133-9.5-9.286-9.5z" fill="#D5E1ED"/><path d="M147.719 361H9.28C4.179 361 0 365.277 0 370.5s4.179 9.5 9.281 9.5h138.438c5.102 0 9.281-4.277 9.281-9.5.048-5.223-4.13-9.5-9.281-9.5z" fill="#E5EEF8"/><path d="M10.605 348.193c0 5.248 4.314 9.485 9.55 9.485h66.698v-19.019h-66.65c-5.284.048-9.598 4.285-9.598 9.534z" fill="#E7E5E4"/><path fill="#AFB0AF" d="M86.902 338.707h40.184v19.019H86.902z"/><path fill="#627382" d="M41.725 357.678h90.984V361H41.725zM41.725 335.337h90.984v3.322H41.725z"/><path d="M14.144 341.5c2.18-1.733 5.186-2.793 8.434-2.793h67.62c1.163 0 2.084-.77 2.084-1.685s-.92-1.685-2.084-1.685h-67.62c-4.46 0-8.483 1.444-11.44 3.756-2.908 2.31-4.75 5.537-4.75 9.1 0 3.514 1.842 6.74 4.75 9.051 2.909 2.312 6.98 3.756 11.44 3.756h67.62c1.163 0 2.084-.77 2.084-1.685s-.92-1.685-2.084-1.685h-67.62c-3.296 0-6.302-1.06-8.434-2.793-2.182-1.733-3.539-4.093-3.539-6.693 0-2.551 1.357-4.959 3.539-6.644z" fill="#8B99AA"/><path fill="#CACACB" d="M23.935 341.21h62.967v1.734H23.935z"/><path fill="#969697" d="M86.902 341.21h40.184v1.734H86.902z"/><path fill="#CACACB" d="M23.935 344.293h62.967v1.733H23.935zM23.935 347.326h62.967v1.733H23.935zM23.935 350.408h62.967v1.733H23.935zM23.935 353.44h62.967v1.734H23.935z"/><path fill="#969697" d="M86.902 344.293h40.184v1.733H86.902zM86.902 347.326h40.184v1.733H86.902zM86.902 350.408h40.184v1.733H86.902zM86.902 353.44h40.184v1.734H86.902z"/><path d="M24.362 322c0 5.248 4.335 9.485 9.597 9.485h47.5v-19.018h-47.5c-5.262.048-9.597 4.333-9.597 9.533z" fill="#E7E5E4"/><path fill="#AFB0AF" d="M81.459 312.515h30.108v19.019H81.459z"/><path fill="#627382" d="M47.649 331.533h68.156v3.322H47.649zM47.649 309.144h68.156v3.322H47.649z"/><path d="M33.326 312.515h50.618c.877 0 1.559-.77 1.559-1.685s-.682-1.686-1.56-1.686H33.327c-3.313 0-6.382 1.445-8.575 3.756-2.192 2.311-3.556 5.537-3.556 9.052 0 3.515 1.364 6.74 3.556 9.1 2.193 2.311 5.213 3.755 8.575 3.755h50.618c.877 0 1.559-.77 1.559-1.685s-.682-1.685-1.56-1.685H33.327c-2.485 0-4.726-1.06-6.334-2.793a9.841 9.841 0 01-2.63-6.692c0-2.6 1.023-5.008 2.63-6.693 1.608-1.685 3.849-2.744 6.334-2.744z" fill="#8B99AA"/><path fill="#CACACB" d="M34.3 315.067h47.159v1.733h-47.16z"/><path fill="#969697" d="M81.459 315.067h30.108v1.733H81.459z"/><path fill="#CACACB" d="M34.3 318.1h47.159v1.733h-47.16zM34.3 321.134h47.159v1.733h-47.16zM34.3 324.215h47.159v1.733h-47.16zM34.3 327.248h47.159v1.733h-47.16z"/><path fill="#969697" d="M81.459 318.1h30.108v1.733H81.459zM81.459 321.134h30.108v1.733H81.459zM81.459 324.215h30.108v1.733H81.459zM81.459 327.248h30.108v1.733H81.459z"/><path d="M95.627 286.322H55.84v19.019h39.787c5.289 0 9.559-4.285 9.559-9.485 0-5.249-4.27-9.534-9.559-9.534z" fill="#E7E5E4"/><path fill="#AFB0AF" d="M29.833 286.322H55.84v19.019H29.833z"/><path fill="#627382" d="M26.243 283h58.856v3.322H26.243zM26.243 305.341h58.856v3.322H26.243z"/><path d="M97.471 283H53.754c-.728 0-1.359.77-1.359 1.685s.631 1.685 1.359 1.685H97.47c2.135 0 4.076 1.06 5.483 2.793s2.28 4.093 2.28 6.693c0 2.6-.873 5.007-2.28 6.692-1.407 1.733-3.348 2.793-5.483 2.793H53.754c-.728 0-1.359.77-1.359 1.685s.631 1.685 1.359 1.685H97.47c2.863 0 5.483-1.444 7.375-3.755 1.892-2.312 3.057-5.537 3.057-9.1 0-3.515-1.165-6.741-3.057-9.052-1.892-2.36-4.512-3.804-7.375-3.804z" fill="#8B99AA"/><path fill="#CACACB" d="M55.84 288.874h40.757v1.733H55.84z"/><path fill="#969697" d="M29.833 288.874H55.84v1.733H29.833z"/><path fill="#CACACB" d="M55.84 291.908h40.757v1.733H55.84zM55.84 294.989h40.757v1.733H55.84zM55.84 298.022h40.757v1.733H55.84zM55.84 301.104h40.757v1.733H55.84z"/><path fill="#969697" d="M29.833 291.908H55.84v1.733H29.833zM29.833 294.989H55.84v1.733H29.833zM29.833 298.022H55.84v1.733H29.833zM29.833 301.104H55.84v1.733H29.833z"/><path d="M153.315 169.632l-44.791-5.71 18.492-9.82c1.854-.823 3.61-1.79 5.367-2.855h.049c13.661-8.418 22.785-23.417 22.785-40.543C155.217 84.384 133.7 63 107.11 63 80.566 63 59 84.336 59 110.704c0 19.207 11.466 35.753 27.958 43.3-8.685 4.839-17.712 10.015-17.077 9.919 1.122-.194 44.4 13.063 44.4 13.063l-10.88 9.627L164 190l-34.105-8.709 23.42-11.66z" fill="#FFF"/><circle fill="#F8B800" cx="105" cy="103" r="19"/><path d="M111.179 124H97.82c-1.011 0-1.821.667-1.821 1.5s.81 1.5 1.821 1.5h13.358c1.011 0 1.821-.667 1.821-1.5 0-.792-.81-1.5-1.821-1.5zM111.179 129H97.82c-1.011 0-1.821.667-1.821 1.5s.81 1.5 1.821 1.5h13.358c1.011 0 1.821-.667 1.821-1.5s-.81-1.5-1.821-1.5zM111.179 134H97.82c-1.011 0-1.821.667-1.821 1.5s.81 1.5 1.821 1.5h13.358c1.011 0 1.821-.667 1.821-1.5s-.81-1.5-1.821-1.5zM106.244 138h-4.488c-.976 0-1.756.667-1.756 1.5s.78 1.5 1.756 1.5h4.488c.976 0 1.756-.667 1.756-1.5s-.78-1.5-1.756-1.5z" fill="#CACACB"/><path fill="#96353A" d="M175.56 346.571L265 362V254.243L168 236z"/><path d="M169 249l6.61 97.773L263 362c-8.165-50.82-44.57-93.171-94-113z" fill="#84252C"/><path fill="#96353A" d="M272 362l89.396-15.429L369 236l-97 18.243z"/><path d="M183.322 265h-14.644C149.07 265 133 280.99 133 300.5c0 19.51 16.07 35.5 35.678 35.5h14.644C202.93 336 219 320.01 219 300.5c0-19.51-16.07-35.5-35.678-35.5z" fill="#F29B54"/><path d="M182.37 230.232l-9.37 6.627L261.777 254l7.223-.1c-15.13-16.244-60.323-25.512-86.63-23.668z" fill="#CACACB"/><path d="M268 253.9l7.223.1L364 236.85l-9.37-6.63c-26.307-1.794-71.5 7.478-86.63 23.68z" fill="#CACACB"/><path fill="#A95156" d="M262 253h15v109h-15z"/><path d="M172.5 256c-4.145 0-7.5 3.261-7.5 7.29v5.42c0 4.029 3.405 7.29 7.5 7.29 4.145 0 7.5-3.31 7.5-7.29v-5.42c0-3.98-3.355-7.29-7.5-7.29z" fill="#F29B54"/><path d="M185.952 270h-9.904C162.792 270 152 280.594 152 293.5c0 12.954 10.841 23.5 24.048 23.5h9.904C199.208 317 210 306.406 210 293.5c0-12.954-10.841-23.5-24.048-23.5z" fill="#F0A66E"/><path d="M186.987 272h-6.974c-9.347 0-17.013 7.66-17.013 17s7.666 17 17.013 17h6.974c9.347 0 17.013-7.66 17.013-17s-7.666-17-17.013-17z" fill="#F5B583"/><path d="M275 362l87.39-15.227L369 249c-49.43 19.829-85.835 62.18-94 113z" fill="#84252C"/><path d="M364.5 256c-4.145 0-7.5 3.261-7.5 7.29v5.42c0 4.029 3.405 7.29 7.5 7.29 4.145 0 7.5-3.31 7.5-7.29v-5.42c0-3.98-3.405-7.29-7.5-7.29z" fill="#F29B54"/><path d="M368.322 265h-14.644C334.07 265 318 280.99 318 300.5c0 19.51 16.07 35.5 35.678 35.5h14.644C387.93 336 404 320.01 404 300.5c-.05-19.51-16.07-35.5-35.678-35.5z" fill="#F29B54"/><path d="M360.952 270h-9.904C337.792 270 327 280.594 327 293.5c0 12.954 10.841 23.5 24.048 23.5h9.904C374.208 317 385 306.406 385 293.5c0-12.954-10.841-23.5-24.048-23.5z" fill="#F0A66E"/><path d="M356.987 272h-6.974c-9.347 0-17.013 7.66-17.013 17s7.666 17 17.013 17h6.974c9.347 0 17.013-7.66 17.013-17 .05-9.34-7.617-17-17.013-17z" fill="#F5B583"/><g><path d="M327.582 26.25c-9.778 6.938-12.026 20.47-5.084 30.242 2.053 2.882 4.644 5.08 7.578 6.595l-.098.098h.195a22.03 22.03 0 007.774 2.345l-10.805 9.966 11.685-1.807-10.218 12.116 21.364-17.1-6.55-.781s.977-1.27 2.395-3.078c2.444-.635 4.79-1.759 6.942-3.273 9.778-6.938 12.027-20.47 5.084-30.242-6.942-9.77-20.484-12.018-30.262-5.08z" fill="#FFF"/><g transform="translate(330.222 36.656)"><path d="M15.498 4.25L3.47 2.003c-.44-.098-.929.195-.978.684-.097.489.196.928.685.977L14.08 5.716 8.898 16.122c-.196.44-.05.928.39 1.124.44.195.93.049 1.125-.391l5.671-11.383c.05-.098.098-.147.098-.245.098-.44-.244-.879-.684-.977z" fill="#616060"/><ellipse fill="#96353A" transform="rotate(-35.464 3.347 2.878)" cx="3.347" cy="2.878" rx="2.053" ry="2.052"/><ellipse fill="#96353A" transform="rotate(-35.456 15.383 5.118)" cx="15.383" cy="5.118" rx="2.053" ry="2.052"/><ellipse fill="#96353A" transform="rotate(-35.459 9.608 16.529)" cx="9.608" cy="16.529" rx="2.053" ry="2.052"/></g></g><path d="M288 65c-2.767 0-5 2.221-5 4.974v14.052c0 2.753 2.233 4.974 5 4.974s5-2.221 5-4.974V69.974c0-2.753-2.282-4.974-5-4.974z" fill="#96353A"/><path d="M301.776 69.768c-2.248-1.443-5.246-.791-6.65 1.444l-7.353 11.408c-1.452 2.235-.797 5.215 1.451 6.612 2.248 1.443 5.246.791 6.65-1.444l7.353-11.408c1.452-2.235.797-5.215-1.451-6.612z" fill="#96353A"/><g transform="translate(344 62)"><path d="M151.456 277.062H61.547a5.219 5.219 0 00-5.214 5.21v12.079a5.219 5.219 0 005.214 5.21h89.909a5.219 5.219 0 005.214-5.21v-12.078a5.219 5.219 0 00-5.214-5.211z" fill="#8B99AA"/><path d="M151.456 277.062H111.35v22.5h40.106a5.219 5.219 0 005.214-5.211v-12.078a5.219 5.219 0 00-5.214-5.211zM172.508 125.211L125.58 258.555l3.8 1.315 46.977-133.295zM138.493 263.133l3.801 1.315 46.977-133.295-3.85-1.364zM133.45 27.854l3.58-1.88 52.492 99.855-3.581 1.88z" fill="#627382"/><path fill="#627382" d="M121.323 34.246l3.581-1.88 52.492 99.855-3.581 1.88zM128.211 20.65l-42.103 3.603.34 4.042 42.104-3.603z"/><path fill="#627382" d="M89.909 37.89l.292 4.042 42.152-3.604-.34-4.042z"/><ellipse fill="#627382" transform="rotate(-86.949 180.885 128.16)" cx="180.885" cy="128.16" rx="10.325" ry="10.331"/><ellipse fill="#8B99AA" transform="rotate(-19.408 180.906 128.161)" cx="180.906" cy="128.161" rx="5.604" ry="5.601"/><ellipse fill="#627382" transform="rotate(-19.408 129.191 30.092)" cx="129.191" cy="30.092" rx="10.331" ry="10.326"/><ellipse fill="#8B99AA" transform="rotate(-19.408 129.19 30.082)" cx="129.19" cy="30.082" rx="5.604" ry="5.601"/><path fill="#627382" d="M125.482 261.38h4.045v15.633h-4.045zM138.396 261.38h4.045v15.633h-4.045z"/><ellipse fill="#627382" transform="rotate(-78.773 134.353 259.085)" cx="134.353" cy="259.085" rx="10.325" ry="10.331"/><ellipse fill="#8B99AA" transform="rotate(-19.403 134.343 259.149)" cx="134.343" cy="259.149" rx="5.604" ry="5.601"/><path d="M91.955 46.607l8.09-21.331c3.606-9.448-1.219-20.114-10.672-23.718-9.454-3.603-20.126 1.218-23.732 10.666l-7.7 20.26C33.235 30.828 9.26 45.292.05 69.643l107.939 40.86c8.771-23.182 1.608-48.506-16.033-63.896z" fill="#627382"/><path d="M89.324 1.558C79.87-2.045 69.198 2.776 65.592 12.224l-7.7 20.26C33.235 30.828 9.26 45.292.05 69.643l12.377 4.675c9.6-23.474 33.089-37.354 57.308-35.698l7.7-20.26c3.02-7.938 11.061-12.613 19.15-11.785-1.9-2.192-4.385-3.896-7.26-5.017z" fill="#8B99AA"/></g><path d="M527.719 361H389.28c-5.102 0-9.281 4.277-9.281 9.5s4.179 9.5 9.281 9.5h138.438c5.102 0 9.281-4.277 9.281-9.5.048-5.223-4.13-9.5-9.281-9.5z" fill="#E5EEF8"/><g><path d="M505.866 328.94h-68.755v27.74h68.755c7.879 0 14.29-6.223 14.29-13.87 0-7.6-6.411-13.87-14.29-13.87z" fill="#E7E5E4"/><path fill="#AFB0AF" d="M393.362 328.94h43.749v27.74h-43.749z"/><path fill="#627382" d="M387.294 356.68h99.047v4.893h-99.047zM387.294 324.095h99.047v4.893h-99.047z"/><path d="M507.138 324.095h-73.6c-1.272 0-2.3 1.093-2.3 2.422 0 1.33 1.028 2.423 2.3 2.423h73.6c3.573 0 6.851 1.568 9.2 4.085 2.35 2.518 3.817 5.985 3.817 9.785s-1.468 7.268-3.817 9.785c-2.349 2.518-5.627 4.085-9.2 4.085h-73.6c-1.272 0-2.3 1.093-2.3 2.423s1.028 2.422 2.3 2.422h73.6c4.845 0 9.25-2.09 12.43-5.51 3.18-3.372 5.187-8.075 5.187-13.252 0-5.178-1.957-9.833-5.187-13.253-3.18-3.325-7.585-5.415-12.43-5.415z" fill="#8B99AA"/><path fill="#CACACB" d="M437.16 332.645h68.56v2.518h-68.56z"/><path fill="#969697" d="M393.362 332.645h43.749v2.518h-43.75z"/><path fill="#CACACB" d="M437.16 337.11h68.56v2.518h-68.56zM437.16 341.575h68.56v2.518h-68.56zM437.16 346.04h68.56v2.518h-68.56zM437.16 350.457h68.56v2.518h-68.56z"/><path fill="#969697" d="M393.362 337.11h43.749v2.518h-43.75zM393.362 341.575h43.749v2.518h-43.75zM393.362 346.04h43.749v2.518h-43.75zM393.362 350.457h43.749v2.518h-43.75z"/></g><g><path d="M498.571 288.988h-76.16v27.74h76.16c7.82 0 14.183-6.223 14.183-13.87 0-7.6-6.363-13.87-14.183-13.87z" fill="#E7E5E4"/><path d="M498.571 284.142h-80.094c-1.36 0-2.477 1.093-2.477 2.423s1.117 2.422 2.477 2.422h80.094a14.3 14.3 0 0110.006 4.085c2.574 2.518 4.177 5.985 4.177 9.785s-1.603 7.268-4.177 9.785a14.3 14.3 0 01-10.006 4.086h-80.094c-1.36 0-2.477 1.092-2.477 2.422s1.117 2.423 2.477 2.423h80.094c5.295 0 10.055-2.09 13.552-5.51 3.448-3.373 5.634-8.075 5.634-13.253 0-5.177-2.137-9.832-5.634-13.252-3.449-3.325-8.257-5.415-13.552-5.415z" fill="#8B99AA"/><path fill="#CACACB" d="M422.411 292.693h74.606v2.518h-74.606zM422.411 297.158h74.606v2.518h-74.606zM422.411 301.622h74.606v2.518h-74.606zM422.411 306.087h74.606v2.518h-74.606zM422.411 310.505h74.606v2.518h-74.606z"/></g></g></svg>