<svg width="543" height="419" xmlns="http://www.w3.org/2000/svg"><g fill="none" fill-rule="evenodd"><path d="M259.083 68.74c-4.275-21.993-23.624-38.522-46.851-38.522-23.228 0-42.577 16.529-46.852 38.523h.206v15.395h93.363V68.741h.134zM212.232 48.66c12.782 0 23.633 8.205 27.58 19.642h-55.16c3.946-11.437 14.797-19.642 27.58-19.642z" fill="#F4EAE9" fill-rule="nonzero"/><path d="M212.232 32.25s35.937 5.827 41.515 34.254" stroke="#020202" stroke-width="2" stroke-linecap="round" stroke-linejoin="round" stroke-dasharray="12"/><path d="M114.06 62.582c-13.21-.88-9.247 21.554-9.247 21.554h17.835s4.625-20.674-8.587-21.554zm-.22 10.557a2.86 2.86 0 01-2.862-2.859 2.86 2.86 0 012.863-2.86 2.86 2.86 0 012.862 2.86 2.86 2.86 0 01-2.862 2.86zM460.067 66.541c-13.211-.88-9.248 21.554-9.248 21.554h17.836s4.624-20.674-8.588-21.554zm-.22 10.557a2.86 2.86 0 01-2.863-2.86 2.86 2.86 0 012.863-2.858 2.86 2.86 0 012.863 2.859c0 1.58-1.282 2.86-2.863 2.86z" fill="#FD4631" fill-rule="nonzero"/><path stroke="#020202" stroke-width="2" stroke-linecap="round" stroke-linejoin="round" d="M530.67 372.693H46.68L40.516 81.937l497.64 9.677z"/><path fill="#43B5A5" fill-rule="nonzero" d="M524.063 369.614H40.075L33.91 78.858l497.64 9.677z"/><path d="M65.178 274.601l5.284 88.855h113.18L65.178 274.6zm21.138 39.149l48.443 34.09-46.681-2.299-1.762-31.791z" fill="#FD4631" fill-rule="nonzero"/><g stroke="#020202" stroke-linecap="round" stroke-linejoin="round" stroke-width="2"><path d="M68.554 279.674l2.118 1.578"/><path stroke-dasharray="11.7286,11.7286" d="M74.813 284.337l97.301 72.48"/><path d="M174.184 358.359l2.118 1.578"/></g><g fill-rule="nonzero"><path d="M44.135 320.093S41.566 273.502 0 279.5c0 0 35.1 12.916 35.1 37.365l9.035 3.23z" fill="#8BD6E8"/><path d="M51.727 320.093s1.847-37.365 38.333-39.21c0 0-39.66-10.15-49.619 35.98l11.286 3.23z" fill="#8BD6E8"/><path d="M48.955 307.366s5.34-41.411-26.888-51.016c0 0 20.709 20.842 18.257 54.978l8.631-3.962z" fill="#8BD6E8"/><path d="M45.52 301.898s-.721-40.662 13.596-44.447c0 0-7.39 17.435-5.542 37.27l-8.053 7.177z" fill="#8BD6E8"/><path d="M29.558 314.63h29.558s-6.466 7.344-6.928 17.032c-.461 9.687 10.161 15.666.924 31.812l-20.321-.47s-5.08-9.866-3.233-18.295c1.847-8.43 10.622-9.845 0-30.08z" fill="#F4EAE9"/></g><path fill="#F1BA22" fill-rule="nonzero" d="M537.715 381.05L11.01 386.77l11.45-23.753H543z"/><path d="M498.732 269.576s6.835-.349 6.835 5.506c0 0-5.293.881-6.835-5.506z" fill="#FFF" fill-rule="nonzero"/><g fill-rule="nonzero"><path d="M118.465 358.177a5.282 5.282 0 01-5.285 5.279H70.462a5.282 5.282 0 01-5.284-5.279V350.7a5.282 5.282 0 015.284-5.278h42.718a5.282 5.282 0 015.285 5.278v7.478z" fill="#FFF"/><path fill="#020202" d="M67.82 353.778h53.287v-12.756H61.655v13.636z"/></g><g transform="translate(300.345 1)"><ellipse fill="#F6DC35" fill-rule="nonzero" cx="34.779" cy="34.7" rx="34.741" ry="34.7"/><ellipse stroke="#020202" stroke-width="2" stroke-linecap="round" stroke-linejoin="round" cx="41.826" cy="34.7" rx="34.741" ry="34.7"/><path stroke="#020202" stroke-width="2" stroke-linecap="round" stroke-linejoin="round" d="M41.837 8.797V34.75l13.689-12.976"/></g><path d="M1.105 279.935s27.814.971 39.41 34.695M90.06 280.882s-37.435-3.495-40.773 33.748M22.067 256.35s19.504 8.77 23.454 45.548M59.116 257.45s-11.482 15.316-9.83 38.154M30.827 317.269h26.424M44.039 393.147l1.476-15.175 103.777 3.079v12.316zM393.268 389.628l1.476-15.175 103.777 3.079v12.316z" stroke="#020202" stroke-width="2" stroke-linecap="round" stroke-linejoin="round"/><path stroke="#FFF" stroke-width="2" stroke-linecap="round" stroke-linejoin="round" d="M108.336 198.223v66.087l59.91-6.076-5.678-66.557z"/><path d="M154.212 233.788c0 1.336-.186 2.61-.53 3.837a14.219 14.219 0 01-13.696 10.345c-7.859 0-14.225-6.328-14.225-14.177 0-7.846 6.366-14.176 14.225-14.176h.1c7.808 0 14.126 6.359 14.126 14.171z" fill="#FFF" fill-rule="nonzero"/><path d="M154.19 233.751c0 1.336-.195 2.628-.54 3.856l-13.606-3.998v-14.067c7.927.053 14.147 6.397 14.147 14.21z" fill="#F6DC35" fill-rule="nonzero"/><path stroke="#020202" stroke-width="2" stroke-linecap="round" stroke-linejoin="round" stroke-dasharray="12" d="M140.085 233.609l10.589-9.23"/><path d="M117.628 211.224c-2.48 8.371-10.235 14.477-19.421 14.477-11.19 0-20.258-9.062-20.258-20.235 0-11.177 9.068-20.234 20.258-20.234.167 0 .339 0 .506.009a17.798 17.798 0 00-2.048 8.314c0 9.901 8.033 17.924 17.946 17.924 1.03 0 2.04-.088 3.017-.255z" fill="#FFF" fill-rule="nonzero"/><path d="M118.465 205.466c0 2.002-.29 3.932-.837 5.758-.978.167-1.986.255-3.017.255-9.913 0-17.946-8.023-17.946-17.924 0-3 .74-5.829 2.048-8.314 10.957.264 19.752 9.215 19.752 20.225z" fill="#8BD6E8" fill-rule="nonzero"/><path d="M132.557 193.555c0 8.872-6.452 16.24-14.929 17.67a20.05 20.05 0 00.837-5.759c0-11.01-8.795-19.961-19.752-20.225a17.929 17.929 0 0115.898-9.611c9.913 0 17.946 8.023 17.946 17.925z" fill="#FD4631" fill-rule="nonzero"/><g><path stroke="#FFF" stroke-width="2" stroke-linecap="round" stroke-linejoin="round" d="M73.545 163.99l47.562-2.155-24.442-47.2z"/><path stroke="#FFF" stroke-width="2" stroke-linecap="round" stroke-linejoin="round" d="M121.107 161.994h59.012l-20.258-49.419-63.196 2.06"/><text fill="#FFF" font-family="Helvetica" font-size="22.277" transform="translate(73.545 95.133)"><tspan x="16.515" y="21.217">A</tspan></text><text fill="#FFF" font-family="Helvetica" font-size="22.277" transform="translate(73.545 95.133)"><tspan x="94.702" y="24.991">B</tspan></text><text fill="#FFF" font-family="Helvetica" font-size="22.277" transform="translate(73.545 95.133)"><tspan x="110.097" y="88.456">C</tspan></text><path stroke="#FFF" stroke-width="2" stroke-linecap="round" stroke-linejoin="round" stroke-dasharray="12" d="M96.665 161.994l.661-40.104"/></g><g fill="#FFF" font-family="Helvetica" font-size="41.627"><text transform="translate(200.67 98.006)"><tspan x="0" y="40">M</tspan> <tspan x="0" y="90">AT</tspan> <tspan x="0" y="140">H</tspan></text><text transform="translate(200.67 98.006)"><tspan x="0" y="56.275">CL</tspan> <tspan x="0" y="106.275">AS</tspan> <tspan x="0" y="156.275">S</tspan></text></g><g><g stroke="#FFF" stroke-linecap="round" stroke-linejoin="round" stroke-width="2"><path d="M504.93 133.277l-.45 21.318-30.086 9.93-29.636-11.386.45-21.318 30.086-9.931zM504.93 211.135l-.45 21.317-30.086 9.931-29.636-11.387.45-21.317 30.086-9.931zM444.759 153.14l.449 56.538M474.299 164.633v77.857M504.48 154.594l.45 56.54M475.24 121.965v2.64"/><path stroke-dasharray="10,10" d="M475.24 129.003v24.633"/><path d="M475.24 155.835v2.64"/></g><text fill="#FFF" font-family="Helvetica" font-size="22.277" transform="translate(444.353 102.17)"><tspan x="29.946" y="21.23">A</tspan></text><text fill="#FFF" font-family="Helvetica" font-size="22.277" transform="translate(444.353 102.17)"><tspan x="29.946" y="165.942">B</tspan></text><text fill="#FFF" font-family="Helvetica" font-size="22.277" transform="translate(444.353 102.17)"><tspan x="67.38" y="149.68">C</tspan></text></g><g transform="translate(313.117 106.57)"><ellipse fill="#F4EAE9" fill-rule="nonzero" cx="16.072" cy="58.043" rx="16.072" ry="16.053"/><path stroke="#FFF" stroke-width="2" stroke-linecap="round" stroke-linejoin="round" d="M53.727 15.165L7.047 63.782H80.15M33.11 36.638s13.571 5.95 10.489 27.543"/><ellipse stroke="#FFF" stroke-width="2" stroke-linecap="round" stroke-linejoin="round" cx="59.766" cy="30.636" rx="3.018" ry="3.014"/><text fill="#FFF" font-family="Helvetica" font-size="41.627"><tspan x="66.47" y="40.044">7</tspan> <tspan x="66.47" y="90.044">0</tspan></text><text fill="#FFF" font-family="Helvetica" font-size="30.327"><tspan x="20.687" y="108.034">3x </tspan> <tspan x="20.687" y="144.034">+ </tspan> <tspan x="20.687" y="180.034">3y </tspan> <tspan x="20.687" y="216.034">=</tspan></text></g><g><text fill="#FFF" font-family="Helvetica" font-size="30.327" transform="translate(419.25 278.56)"><tspan x="15.818" y="30.759">22 </tspan> <tspan x="15.818" y="66.759">+ </tspan> <tspan x="15.818" y="102.759">xy</tspan></text><path stroke="#FFF" stroke-width="2" stroke-linecap="round" stroke-linejoin="round" d="M419.39 292.15l6.466 5.765V278.56h60.774"/></g><g><path fill="#020202" fill-rule="nonzero" d="M404.24 363.007l54.646-8.349v8.798z"/><path d="M440.83 363.456h86.756l3.964-18.035h-90.72s-6.606 9.237 0 18.035z" fill="#F4EAE9" fill-rule="nonzero"/><path d="M459.326 329.443s-3.083 10.7 4.844 16.418h74.866v-18.915l-79.71 2.497z" fill="#A6E3ED" fill-rule="nonzero"/><path d="M475.62 307.592s-12.33 5.68-3.082 21.978l56.37-2.614-3.18-19.364H475.62z" fill="#F6DC35" fill-rule="nonzero"/><path d="M505.567 281.3s-10.57-2.74-12.771 4.738c-2.202 7.478 3.082 21.114 10.569 21.114l3.963-.012 5.285.012s7.927-7.478 4.844-23.313c0 0-4.403-5.96-11.89-2.54z" fill="#FD4631" fill-rule="nonzero"/><path d="M508.21 269.763s-4.196 6.158-2.98 14.076" stroke="#020202" stroke-width="2" stroke-linecap="round" stroke-linejoin="round"/><path d="M464.17 345.86h34.791l-38.726-4.628s1.293 4.629 3.935 4.629zM499.003 328.2l-26.465 1.37s-1.61-2.301-2.382-5.203l28.847 3.834z" fill="#020202" fill-rule="nonzero"/><path d="M528.467 359.937h-82.573c-3.303-3.52.054-10.557.054-10.557h84.721M529.907 352.899l-84.699-1.587M444.758 354.659l85.149 1.869M539.036 341.232l-71.783.84c-1.321-3.79 0-9.407 0-9.407l71.783-3.095M466.77 335.82l72.267-2.715M466.77 339.853l72.267-3.45M479.581 325.622s-2.777-10.113 4.999-11.872h42.126M479.598 321.668l47.934-3.087M528.039 321.668l-48.441 5.3" stroke="#020202" stroke-width="2" stroke-linecap="round" stroke-linejoin="round"/></g><g transform="translate(179.679 137.8)"><path d="M250.582 71.37c-3.083 2.969-11.45 8.247-12.772 12.206-1.32 3.959-6.165 119.98-35.671 123.939-12.6 1.694-24.715-6.383-34.465-16.192-6.35-6.387-11.697-13.513-15.52-19.152-4.047-5.982-6.385-10.298-6.385-10.298l2.475-14.45 12.058-70.445s7.927 10.997 13.211 22.873c3.493 7.852 12.375 29.16 17.995 42.699 2.88 6.945 4.906 11.846 4.906 11.846l26.423-85.582s-3.964-8.111 0-10.31c3.963-2.2 7.487-3.08 7.487-3.08h3.523s3.523-4.399 5.725-3.519c2.202.88 4.404 3.959 4.404 3.959l4.844 2.2s1.321 6.597 1.762 6.597c.44 0 3.082 3.74 0 6.708z" fill="#EFC6BB" fill-rule="nonzero"/><path stroke="#020202" stroke-width="2" stroke-linecap="round" stroke-linejoin="round" d="M237.564 54.33L222.837 9.677h-2.642l14.053 45.2M238.174 67.503l5.496 17.675 3.203-2.628-3.805-11.534"/><path d="M191.508 142.55c-3.955 7.32-14.256 20.621-39.353 29.62-4.048-5.981-6.386-10.297-6.386-10.297l14.533-84.895s7.927 10.997 13.211 22.873c3.493 7.852 12.375 29.16 17.995 42.699z" fill="#8BD6E8" fill-rule="nonzero"/><path d="M167.674 191.323c-6.35-6.387-11.697-13.513-15.52-19.152-4.047-5.982-6.385-10.298-6.385-10.298l2.475-14.45 11.617-34.815 7.813 78.715z" fill="#020202" fill-rule="nonzero"/><path d="M70.022 204.981S3.082 214.658.44 196.184c-.924-6.475 2.638-22.25 7.835-40.117 9.618-33.11 24.82-73.415 27.397-75.13 3.963-2.64 5.725 1.76 5.725 1.76l19.117 81.67 9.508 40.614z" fill="#EFC6BB" fill-rule="nonzero"/><path d="M60.514 164.368c-23.882 7.257-43.36-2.437-52.24-8.3 9.619-33.11 24.821-73.416 27.398-75.131 3.963-2.64 5.725 1.76 5.725 1.76l19.117 81.67z" fill="#8BD6E8" fill-rule="nonzero"/><path d="M35.672 80.937c7.927-4.399 53.287-22.434 124.63-3.96 0 0 3.523 1.32 3.523 10.998 0 9.677-11.89 131.082-14.533 143.838H64.011L35.67 80.937z" fill="#CBF3F7" fill-rule="nonzero"/><path d="M92.663 68.916l15.012 5.57 4.629-5.274s-2.366-11.165-.733-12.73c1.633-1.566 9.547-1.566 7.718-13.048-1.83-11.48-3.358-33.66-22.95-33.92-19.594-.262-10.17 35.747-10.17 35.747s-3.72 2.349-2.247 4.697c1.472 2.349 5.32 2.349 5.32 2.349s3.748 12.271 3.421 16.61z" fill="#EFC6BB" fill-rule="nonzero"/><path d="M86.176 45.26l4.192 2.61L86.176 22.3s3.432.782 6.804-6.002c0 0 16.772 7.661 21.317 5.527 4.546-2.134 12.122-14.399 7.159-19.618-4.964-5.218-16.459 1.566-18.026 0-1.568-1.565-28.475-3.394-30.043 7.305 0 0-13.05 30.792 10.194 38.36l2.595-2.61z" fill="#FD4631" fill-rule="nonzero"/><g fill-rule="nonzero"><path d="M104.813 78.774s-20.01-8.394-21.015-3.116c-1.004 5.279 2.078 9.677 2.078 9.677v7.478l18.937-7.038v-7.001zM110.538 78.774s20.01-8.394 21.015-3.116c1.003 5.279-2.079 9.677-2.079 9.677v7.478l-18.936-7.038v-7.001z" fill="#FD4631"/><path d="M102.01 77.672s-1.462 10.15 6.106 10.083c7.567-.067 4.624-11.657 4.624-11.657s-9.79-4.111-10.73 1.574z" fill="#F2A799"/></g><path d="M85.655 69.263s2.073-2.177 7.009-.347l15.012 5.57-8.148 9.31-13.873-14.533z" fill="#FFF" fill-rule="nonzero"/><path d="M112.304 69.212l-4.629 5.273 8.808 9.31 3.078-14.583s-4.586-3.044-7.257 0z" fill="#FFF" fill-rule="nonzero"/><path d="M57.25 280.2s-1.013-33.44 6.76-49.706h85.282l10.57 49.705H57.25z" fill="#020202" fill-rule="nonzero"/><path d="M118.905 234.892a5.282 5.282 0 01-5.285 5.279h-8.367a5.282 5.282 0 01-5.285-5.279v-1.32a5.282 5.282 0 015.285-5.278h8.367a5.282 5.282 0 015.285 5.279v1.32z" fill="#F6DC35" fill-rule="nonzero"/><path d="M55.287 73.915l19.139 142.063 11.01-.88-15.7-144.08s-11.086 1.973-14.45 2.897zM136.961 71.018l-7.487 142.76 11.01.88 9.357-140.173s-6.074-3.43-12.88-3.467z" fill="#FD4631" fill-rule="nonzero"/><g transform="translate(74.426 215.098)"><ellipse fill="#FD4631" fill-rule="nonzero" cx="6.165" cy="7.038" rx="2.202" ry="2.199"/><path d="M1.321 17.155h13.652s-1.541-5.718-6.826-5.718c-5.284 0-6.826 5.718-6.826 5.718z" fill="#FFF" fill-rule="nonzero"/><path d="M0 .88s.22 9.897 6.165 9.677C12.111 10.337 11.01 0 11.01 0" stroke="#020202" stroke-width="2" stroke-linecap="round" stroke-linejoin="round"/></g><g transform="translate(125.51 214.658)"><ellipse fill="#FD4631" fill-rule="nonzero" cx="8.808" cy="7.038" rx="2.202" ry="2.199"/><path d="M13.652 17.595H0s1.541-5.718 6.826-5.718 6.826 5.718 6.826 5.718z" fill="#FFF" fill-rule="nonzero"/><path d="M14.973.88s-.22 9.897-6.165 9.677C2.863 10.337 3.964 0 3.964 0" stroke="#020202" stroke-width="2" stroke-linecap="round" stroke-linejoin="round"/></g><path d="M233.847 55.424s4.183 1.98 2.202 4.179c-1.982 2.2-7.267 1.98-7.267 1.98s6.606 3.298 6.606 8.137M247.719 69.72s-5.725 1.924-6.386-.907c-.66-2.832 5.285-4.372 9.249-4.152M244.636 58.723s-12.652 4.906-3.353 8.776M240.453 55.424l-3.871 1.76M234.345 60.734s-.185 3.927 3.292 3.488M196.414 154.396s-3.67 9.141-3.377 12.561M42.13 175.95s3.557-3.838 10.146-6.611M108.116 87.755l2.422 140.539" stroke="#020202" stroke-width="2" stroke-linecap="round" stroke-linejoin="round"/><path stroke="#FFF" stroke-width="2" stroke-linecap="round" stroke-linejoin="round" d="M69.582 230.494v12.756h3.082v-10.997M144.448 230.494v12.756h3.082v-10.997M93.803 230.494v12.756h3.083v-10.997M121.547 230.494v12.756h3.083v-10.997"/><path d="M113.618 5.572s-.438 6.744-8.805 7.624c-8.368.88-13.652 1.173-13.652 1.173M118.171 7.918s-.293 10.798-13.358 12.877" stroke="#020202" stroke-width="2" stroke-linecap="round" stroke-linejoin="round"/><ellipse stroke="#020202" stroke-width="2" stroke-linecap="round" stroke-linejoin="round" cx="117.071" cy="32.706" rx="3.366" ry="5.123"/><ellipse stroke="#020202" stroke-width="2" stroke-linecap="round" stroke-linejoin="round" cx="105.181" cy="34.026" rx="3.366" ry="5.123"/><path d="M108.547 34.026s.847-3.78 5.159-1.32M105.18 47.87s4.263 3.48 8.525-.44" stroke="#020202" stroke-width="2" stroke-linecap="round" stroke-linejoin="round"/></g></g></svg>