<svg width="551" height="367" xmlns="http://www.w3.org/2000/svg"><g fill-rule="nonzero" fill="none"><path fill="#FFF" d="M0 0h551v367H0z"/><path d="M345 197.846v13.308a3.825 3.825 0 003.829 3.829h8.892a53.682 53.682 0 008.042 19.426l-6.28 6.28a3.815 3.815 0 000 5.408l9.42 9.42a3.815 3.815 0 005.408 0l6.28-6.28a53.534 53.534 0 0019.426 8.042v8.892a3.825 3.825 0 003.829 3.829h13.308a3.825 3.825 0 003.829-3.829v-8.892a53.682 53.682 0 0019.426-8.042l6.28 6.28a3.815 3.815 0 005.408 0l9.42-9.42a3.815 3.815 0 000-5.408l-6.28-6.28a53.534 53.534 0 008.042-19.426h8.892a3.825 3.825 0 003.829-3.829v-13.308a3.825 3.825 0 00-3.829-3.829h-8.892a53.682 53.682 0 00-8.042-19.426l6.28-6.28a3.815 3.815 0 000-5.408l-9.42-9.42a3.815 3.815 0 00-5.408 0l-6.28 6.28a53.534 53.534 0 00-19.426-8.042v-8.892a3.825 3.825 0 00-3.829-3.829h-13.308a3.825 3.825 0 00-3.829 3.829v8.892a53.682 53.682 0 00-19.426 8.042l-6.28-6.28a3.815 3.815 0 00-5.408 0l-9.42 9.42a3.815 3.815 0 000 5.408l6.28 6.28a53.534 53.534 0 00-8.042 19.426h-8.892a3.838 3.838 0 00-3.829 3.829zm42.762 6.664c0-12.539 10.169-22.708 22.708-22.708 12.539 0 22.707 10.17 22.707 22.708 0 12.539-10.168 22.708-22.707 22.708-12.54-.02-22.708-10.169-22.708-22.708zM219 119.564v9.872a2.829 2.829 0 002.835 2.835h6.588a39.526 39.526 0 005.955 14.378l-4.65 4.65a2.831 2.831 0 000 3.998l6.975 6.975a2.831 2.831 0 003.998 0l4.65-4.65a39.674 39.674 0 0014.378 5.955v6.588a2.829 2.829 0 002.835 2.835h9.872a2.829 2.829 0 002.835-2.835v-6.588a39.526 39.526 0 0014.378-5.955l4.65 4.65a2.831 2.831 0 003.998 0l6.975-6.975a2.831 2.831 0 000-3.998l-4.65-4.65a39.674 39.674 0 005.955-14.378h6.588a2.829 2.829 0 002.835-2.835v-9.872a2.829 2.829 0 00-2.835-2.835h-6.588a39.526 39.526 0 00-5.955-14.378l4.65-4.65a2.831 2.831 0 000-3.998l-6.975-6.975a2.831 2.831 0 00-3.998 0l-4.65 4.65a39.674 39.674 0 00-14.378-5.955v-6.588A2.829 2.829 0 00272.436 76h-9.872a2.829 2.829 0 00-2.835 2.835v6.588a39.526 39.526 0 00-14.378 5.955l-4.65-4.65a2.831 2.831 0 00-3.998 0l-6.975 6.975a2.831 2.831 0 000 3.998l4.65 4.65a39.674 39.674 0 00-5.955 14.378h-6.588a2.829 2.829 0 00-2.835 2.835zm31.674 4.936c0-9.28 7.526-16.826 16.826-16.826 9.28 0 16.826 7.526 16.826 16.826 0 9.28-7.526 16.826-16.826 16.826-9.28-.02-16.826-7.546-16.826-16.826zM492.898 67c.061-.41.102-1.129.102-1.704 0-8.54-6.862-15.437-15.311-15.437-1.059 0-2.118.123-3.115.329-3.34-6.63-10.16-11.188-18.06-11.188-9.672 0-17.755 6.856-19.75 16.012-.102 0-.183-.041-.285-.041-6.943 0-12.685 5.46-13.479 12.029h69.898z" fill="#F5F5F5"/><path d="M338.486 300.615c1.308-31.932 47.35-38.679 64.496-9.118-26.402-3.12-27.408 25.265-59.143 16.857-1.087 7.963-1.369 27.677-1.147 32.64-2.717-.02-5.313.082-8.05-.02.141-6.909.343-24.576-.784-32.782-33.868 8.47-31.916-19.916-57.513-17.708 25.476-25.974 57.15-22.875 62.141 10.13z" fill="#9FB5FD"/><path d="M329.873 300.047a.354.354 0 01-.302-.162c-1.288-2.006-13.341-19.47-37.69-13.028a.344.344 0 01-.444-.263.347.347 0 01.262-.446c24.852-6.585 37.188 11.286 38.516 13.332.121.162.06.405-.1.506-.1.04-.181.061-.242.061zM347.562 300.27c-.06 0-.121-.02-.181-.04a.37.37 0 01-.141-.507c6.198-11.468 16.642-14.912 24.309-15.783 8.27-.932 15.193.85 15.274.871.2.06.322.263.261.446-.06.202-.261.324-.443.263-.06-.02-6.862-1.783-15.012-.85-7.486.85-17.668 4.213-23.705 15.397a.451.451 0 01-.362.203z" fill="#263238"/><path d="M342.551 301.141c-.443-2.026-1.51-45.12 1.71-48.444l-12.053-.162c2.676 3.546 2.434 48.505 2.434 48.505l7.909.101z" fill="#9FB5FD"/><g><path d="M393.202 159.112c0-30.776-24.994-55.697-55.682-55.272-29.923.426-54.192 25.286-54.112 55.414.04 17.85 8.492 33.694 21.572 43.764 3.14 2.41 5.092 6.058 5.514 9.988l.483 6.038a4.45 4.45 0 004.448 4.113h45.76c2.315 0 4.246-1.783 4.448-4.113l.503-6.038c.422-3.971 2.394-7.598 5.554-10.029 13.08-10.07 21.512-25.975 21.512-43.865z" fill="#C0CFFE"/><path d="M292.745 161.584a2.913 2.913 0 01-2.917-2.918v-.04-.101a48.267 48.267 0 017.405-25.671c4.709-7.497 11.35-13.555 19.198-17.506a2.95 2.95 0 011.308-.303c1.107 0 2.113.628 2.596 1.62a2.93 2.93 0 01-1.308 3.931c-6.903 3.485-12.738 8.814-16.884 15.398a42.218 42.218 0 00-6.5 22.55V158.647c0 1.6-1.288 2.938-2.898 2.938zm38.819-45a2.912 2.912 0 01-2.878-2.532c-.02-.142-.02-.284-.02-.405a2.936 2.936 0 012.515-2.898 47.495 47.495 0 015.876-.446h.04c1.57 0 2.878 1.297 2.918 2.898a2.913 2.913 0 01-2.877 2.958c-1.71.02-3.461.162-5.172.405-.14 0-.262.02-.402.02z" fill="#FFF"/><path fill="#263238" d="M290.22 77.982l1.027-.598 13.332 23.249-1.028.597zM256.195 112.706l.594-1.035 23.09 13.422-.593 1.036zM370.475 100.636l13.332-23.248 1.028.598-13.331 23.248zM395.179 125.057l23.09-13.423.594 1.035-23.09 13.423zM336.937 65.061h1.187v26.846h-1.187zM329.511 223.319c0-.263-.322-26.603-1.992-37.159v-.02c-.725-5.632-1.61-10.637-2.677-14.892l-.241-.911-1.167.162a24.386 24.386 0 01-3.16.223c-3.521 0-6.52-.851-8.693-2.472-2.656-1.986-3.844-4.68-3.24-7.395.543-2.432 2.516-4.377 4.91-4.863a6.102 6.102 0 011.208-.122c2.636 0 5.272 1.662 7.385 4.68 1.207 1.723 2.314 4.195 3.28 7.315l.342 1.094.865-.203a32.667 32.667 0 002.174-.648c3.24-1.094 6.4-2.796 8.915-4.822l.362-.304-.684-.669c-2.053-2.087-3.562-4.417-4.528-6.95-.866-2.289-1.027-4.295-.463-5.976a5.852 5.852 0 011.79-2.614c1.108-.891 2.597-1.378 4.146-1.378 1.47 0 2.918.446 4.106 1.257 2.616 1.783 3.48 4.943 2.374 8.671-.744 2.492-2.153 4.843-4.246 6.97l-.684.71.362.283c2.697 2.188 6.077 3.93 9.498 4.903l.685.203c.523-2.25 1.69-6.423 3.561-8.45 2.435-2.613 5.112-4.051 7.587-4.051.563 0 1.107.08 1.63.222 1.912.548 3.3 2.047 3.723 4.012.543 2.675-.805 5.633-3.622 7.922-1.771 1.439-4.448 2.25-7.547 2.25-1.167 0-2.374-.102-3.622-.325l-.805-.142-.16.75c-1.651 7.699-2.778 18.235-3.382 31.343-.422 9.28-.422 18.701-.422 21.355h-1.188c0-2.674 0-12.116.423-21.415.584-13.17 1.73-23.787 3.4-31.547l.162-.709.02-.06-.745-.223c-3.561-1.034-7.083-2.837-9.92-5.126l-.524-.426-.523.426c-2.616 2.107-5.916 3.89-9.277 5.024a25.99 25.99 0 01-2.274.669l-.805.182.02.061h-.02l.202.77c1.086 4.295 1.992 9.34 2.716 15.034 1.69 10.637 2.013 37.057 2.013 37.32l-1.248.061zm-15.072-66.253c-.322 0-.665.04-.987.101-1.931.385-3.541 1.965-3.964 3.95-.503 2.23.523 4.479 2.797 6.18 1.952 1.46 4.73 2.23 7.99 2.23.965 0 1.971-.062 2.998-.203l.986-.122-.302-.952c-.926-3.02-1.972-5.37-3.1-6.99-1.89-2.695-4.165-4.194-6.418-4.194zm36.825 11.61l.745.12c1.167.203 2.314.305 3.421.305 2.817 0 5.232-.71 6.782-1.966 2.455-2.005 3.662-4.538 3.2-6.746-.323-1.52-1.39-2.695-2.858-3.1a4.639 4.639 0 00-1.308-.183c-2.133 0-4.508 1.297-6.701 3.688-.584.628-2.073 2.674-3.28 7.881zm-13.24-22.065c-1.289 0-2.496.405-3.402 1.114a4.505 4.505 0 00-1.408 2.047c-.483 1.418-.322 3.16.442 5.166.906 2.37 2.335 4.58 4.267 6.545l.744.729.745-.77c1.952-2.006 3.28-4.174 3.944-6.483.946-3.202.241-5.856-1.912-7.335-.966-.648-2.193-1.013-3.42-1.013z"/><path d="M365.31 227.675c0-2.472-1.992-4.478-4.447-4.478h-45.076c-2.455 0-4.447 2.006-4.447 4.478v15.905c0 2.472 1.992 4.478 4.447 4.478h45.056c2.455 0 4.447-2.006 4.447-4.478.02-1.722.02-14.162.02-15.905z" fill="#E0E0E0"/><path d="M334.502 253.569h7.647c2.535 0 4.628-1.824 5.09-4.235l.041-1.276h-17.87v1.276a5.178 5.178 0 005.092 4.235zM307.332 234.113l61.657-6.177.117 1.19-61.656 6.177zM307.332 243.21l61.657-6.177.118 1.19-61.657 6.177z" fill="#263238"/></g><path d="M56 113c.328-8.792 7.493-15.813 16.317-15.813 1.883 0 3.664.33 5.343.926 3.357-8.092 11.3-13.775 20.554-13.775 1.085 0 2.15.103 3.214.268 0-.082-.02-.165-.02-.268C101.408 67.022 115.35 53 132.567 53s31.159 14.022 31.159 31.338c12.304 0 22.274 10.028 22.274 22.403 0 2.182-.328 4.282-.9 6.259H56z" fill="#F5F5F5"/><path fill="#263238" d="M60 338h435v1H60z"/><g><path d="M230.47 249.765c-10.217 1.41-27.88 6.629-44.449-11.363l-5.078 1.672-.81 5.682c12.059 13.942 23.186 18.032 51.551 15.192v-.02c1.437-.162 2.53-.988 2.428-1.854-.06-.564-.607-1.008-1.396-1.21.708-.362 1.153-.906 1.093-1.47-.061-.564-.607-1.007-1.396-1.209.708-.363 1.153-.907 1.092-1.47-.06-.565-.607-1.008-1.396-1.21.708-.362 1.153-.906 1.093-1.47-.04-.867-1.295-1.471-2.732-1.27z" fill="#FFD3C9"/><path d="M179.466 229.093l-4.31 8.684c2.246 3.808 2.712 5.098 4.998 7.959l5.867-7.355c-3.055-3.062-4.107-4.775-6.555-9.288z" fill="#5E84FB"/><path d="M94.047 222.746s1.355-73.48 47.18-74.286c57.56-1.028 38.219 80.633 38.219 80.633l-85.4-6.347z" fill="#FFD3C9"/><path d="M195.854 127.042s9.205 58.027-75.344 40.7l-3.621 18.174s-6.677-7.697-9.57.302c-3.338 9.187 6.616 6.145 6.616 6.145s-10.318 20.974-19.807 28.087c-.971-1.512-19.14-87.363 17.844-78.7.567-2.175 6.818-16.46 28.71-17.549 33.078-1.672 30.873 24.138 55.172 2.841z" fill="#263238"/><path d="M137 188.092c-.021 3.284-1.437 5.923-3.137 5.903-1.7-.02-3.055-2.68-3.035-5.964.02-3.284 1.437-5.924 3.136-5.903 1.72.02 3.076 2.7 3.035 5.964zM173.052 188.071c-.02 3.285-1.436 5.924-3.136 5.904-1.7-.02-3.055-2.68-3.034-5.964.02-3.284 1.436-5.924 3.136-5.904 1.7.02 3.055 2.68 3.034 5.964z" fill="#263238"/><path d="M163.604 204.19c-3.682-.423-16.003-1.652-24.784-.08a1.31 1.31 0 00-1.093 1.228c-.161 3.144.506 12.331 13.475 12.714 12.807.383 13.656-9.248 13.555-12.593 0-.644-.506-1.188-1.153-1.27z" fill="#EA7D84"/><g><path d="M164.494 333.703l9.793-22.97c.384-10.92-.344-20.41-.506-27.582-30.368 1.974-57.196 3.586-79.046 2.397.769 7.878 3.904 16.018 4.855 24.561l-4.734 28.107s26.666 5.823 22.316-2.84c-6.11-12.11-17.48-2.076-17.48-2.076l8.72-21.82-.506-18.154c36.215 1.551 54.019-1.733 54.019-1.733l3.601 19.16-5.584 27.805s30.995 6.085 20.96-5.903c-7.627-9.147-16.408 1.048-16.408 1.048z" fill="#263238"/><path d="M95.018 286.556c-3.136-24.279-4.35-37.597-.89-66.127l85.338 8.664c-2.468 16.643-3.905 29.719-5.443 54.058-21.708 2.78-46.108 5.601-79.005 3.405z" fill="#5E84FB"/></g><g><path d="M92.55 227.159l-.182 7.072c-21.628 22.344 19.3 32.862 19.604 33.063 1.194.826 1.76 2.075 1.255 2.78-.324.464-1.012.605-1.801.404.465.644.587 1.35.263 1.813-.324.463-1.012.604-1.8.403.465.645.586 1.35.262 1.813-.323.464-1.011.605-1.8.403.465.645.587 1.35.263 1.814-.506.725-1.862.644-3.055-.182v.02c-41.213-16.823-30.146-37.737-19.929-48.678l6.92-.725z" fill="#FFD3C9"/><path d="M97.284 229.818l-3.156-9.389s-4.168 2.841-8.477 7.455l6.717 6.347c1.375-1.43 2.994-2.901 4.916-4.413z" fill="#5E84FB"/></g><path d="M280.463 254.137l-6.96-6.97a.796.796 0 00-1.112 0 .788.788 0 000 1.107l.04.04a4.874 4.874 0 00-.323 5.24l-11.775 9.489.465-16.018a.776.776 0 00.81-.685c.06-.423-.264-.826-.689-.886l-19.604-2.318c-.425-.06-.83.262-.89.686a.797.797 0 00.627.866l-.081.383c-1.396-.907-3.642-1.955-6.13-1.471-2.752.544-5.018 2.78-6.717 6.649-2.995 6.85.87 10.255 3.985 13.016 2.53 2.216 4.107 3.787 3.743 6.266l-.324 1.571h-.06c-.425-.06-.83.262-.89.685-.061.423.263.826.687.887l24.623 2.921c.424.06.83-.262.89-.685.06-.423-.263-.826-.688-.886h-.06v-.141l14.162-18.275a4.978 4.978 0 005.138-.383l.04.04c.122.142.304.202.466.222.223.02.466-.04.648-.221.283-.323.303-.826-.02-1.129zm-46.776 7.355c-3.055-2.7-4.774-4.594-2.468-9.873 1.376-3.123 2.124-5.32 4.067-5.702 2.205-.443 4.33 1.027 5.159 1.692l-3.581 17.106c-.89-1.209-2.084-2.256-3.177-3.223z" fill="#9FB5FD"/><g fill="#263238"><path d="M276.437 247.126c.04 0 .061-.02.101-.06 0 0 .263-.263.749-.625a.216.216 0 00.04-.282.218.218 0 00-.283-.04c-.506.382-.769.644-.789.644a.194.194 0 000 .282c.06.08.122.101.182.08zM306.077 253.392a35.688 35.688 0 00-1.315-1.632c-.081-.08-.06-.202.02-.282.081-.08.202-.06.283.02.446.524.89 1.088 1.336 1.652.06.08.04.222-.04.282-.021.02-.061.04-.082.04-.08 0-.162-.02-.202-.08zm-2.711-3.204a34.512 34.512 0 00-1.477-1.49.194.194 0 010-.283c.08-.08.202-.08.283 0a26.51 26.51 0 011.497 1.511c.081.081.081.202 0 .282-.02.02-.06.04-.1.04-.082 0-.163-.02-.203-.06zm-3.055-2.88a24.457 24.457 0 00-1.68-1.27c-.08-.06-.12-.182-.04-.282.06-.08.182-.121.283-.04.567.402 1.133.826 1.7 1.289.08.06.101.201.02.282-.02.04-.06.06-.121.06-.04.02-.101 0-.162-.04zm-3.44-2.378a17.771 17.771 0 00-1.86-.927c-.102-.04-.142-.161-.102-.262.04-.1.162-.141.263-.1.647.281 1.275.604 1.902.946.101.06.121.181.08.262-.02.06-.08.08-.14.1-.041.021-.102 0-.143-.02zm-3.823-1.652a18.415 18.415 0 00-2.024-.484c-.1-.02-.182-.12-.161-.222.02-.1.121-.181.222-.16.688.12 1.396.281 2.084.503.101.04.162.14.142.242-.02.08-.081.12-.142.14-.06-.02-.08-.02-.121-.02zm-14.304 1.934a.216.216 0 01.06-.282 20.99 20.99 0 011.882-1.008c.101-.04.223 0 .263.101.04.1 0 .222-.101.262-.627.302-1.234.625-1.841.987-.02.02-.04.02-.061.02a.193.193 0 01-.202-.08zm10.197-2.66c-.688-.02-1.396-.02-2.084.04a.237.237 0 01-.223-.18c0-.102.081-.202.182-.222.708-.06 1.437-.081 2.145-.04.101 0 .202.1.182.2 0 .101-.081.162-.162.182 0 .02-.02.02-.04.02zm-6.414.806c-.04-.1.02-.222.121-.262a19.787 19.787 0 012.064-.584c.101-.02.223.04.243.161.02.1-.04.222-.162.242-.668.14-1.355.342-2.003.564h-.02c-.101.04-.202-.02-.243-.12zM308.1 255.991c.02 0 .04-.02.081-.02.101-.06.122-.181.06-.282-.181-.282-.384-.564-.566-.826-.06-.08-.182-.121-.283-.04-.08.06-.121.18-.04.282.182.261.384.544.566.826.02.06.101.08.182.06z"/></g><g fill="#263238"><path d="M278.845 249.483c.04 0 .06-.02.101-.04 0 0 .283-.242.769-.584.101-.06.121-.182.06-.283-.06-.1-.182-.12-.283-.06-.526.363-.809.604-.809.625a.215.215 0 00-.02.282c.04.06.121.08.182.06zM301.019 257.361c-.344-.524-.688-1.048-1.052-1.531a.216.216 0 01.04-.282c.081-.06.223-.04.284.04.344.504.708 1.007 1.052 1.551.06.101.04.222-.061.283-.02.02-.04.02-.06.02-.082.04-.163 0-.203-.08zm-2.165-3.022a21.331 21.331 0 00-1.193-1.43c-.081-.081-.061-.202.02-.283.08-.08.202-.06.283.02.405.464.81.947 1.214 1.451.06.08.06.222-.04.282-.02.02-.061.04-.081.04a.29.29 0 01-.203-.08zm-2.468-2.78c-.445-.444-.91-.867-1.376-1.25-.08-.08-.101-.201-.02-.282.08-.08.202-.1.283-.02.466.383.93.826 1.396 1.27.081.08.081.2 0 .281-.02.02-.06.04-.101.06-.06.021-.121 0-.182-.06zm-2.833-2.358a13.08 13.08 0 00-1.578-.947c-.1-.06-.141-.181-.08-.262.06-.1.182-.14.262-.08.547.282 1.093.604 1.619.967.101.06.121.181.06.282-.04.04-.08.08-.12.08-.061 0-.122 0-.163-.04zm-3.277-1.692a11.159 11.159 0 00-1.78-.504.209.209 0 01-.162-.242.21.21 0 01.242-.161c.607.12 1.235.302 1.842.504.1.04.161.16.12.262-.02.06-.08.12-.14.12-.041.04-.082.04-.122.02zm-9.226.342c-.04-.1 0-.221.101-.262a11.995 11.995 0 011.78-.685.18.18 0 01.244.141c.04.101-.02.222-.142.242-.587.181-1.153.403-1.72.665-.02 0-.02.02-.04.02-.081 0-.182-.04-.223-.12zm5.625-1.048c-.607-.02-1.235.02-1.841.101-.102.02-.203-.06-.223-.161-.02-.1.06-.201.162-.222.627-.08 1.274-.12 1.902-.1.1 0 .202.1.202.201 0 .1-.06.161-.162.181h-.04zM302.719 259.92c.02 0 .04-.02.06-.02a.203.203 0 00.081-.262c-.162-.302-.344-.584-.506-.867-.06-.1-.182-.12-.283-.06-.101.06-.121.181-.06.282.161.282.323.564.505.866.04.04.122.081.203.06z"/></g><g fill="#263238"><path d="M280.403 251.9c.02 0 .04 0 .06-.02 0 0 .324-.16.91-.322a.219.219 0 00.142-.241.22.22 0 00-.242-.141c-.607.18-.951.342-.971.362-.102.06-.142.161-.081.262 0 .08.1.121.182.1zM294.99 258.933a21.623 21.623 0 00-1.214-1.713.216.216 0 01.04-.282c.081-.06.223-.04.284.04.425.544.83 1.129 1.234 1.733.06.1.04.222-.06.282-.021.02-.041.02-.062.02-.1.02-.182 0-.222-.08zm-2.55-3.305a20.14 20.14 0 00-1.496-1.45c-.081-.08-.102-.202-.02-.282.08-.081.202-.101.283-.02.526.443 1.031.946 1.537 1.47.081.08.06.202-.02.282-.02.02-.06.04-.101.04a.132.132 0 01-.182-.04zm-3.176-2.68a10.632 10.632 0 00-1.84-.946c-.102-.04-.142-.161-.102-.262.04-.101.162-.141.263-.101.647.262 1.275.604 1.902.987.101.06.121.182.06.282-.02.04-.08.081-.12.081a.382.382 0 01-.163-.04zm-3.824-1.55a10.184 10.184 0 00-2.063-.162.202.202 0 01-.202-.201c0-.101.08-.202.202-.202.708-.02 1.436.02 2.144.161.102.02.182.121.162.242a.22.22 0 01-.162.161h-.08zM296.77 261.693c.02 0 .04 0 .061-.02.101-.06.142-.181.081-.262-.162-.302-.324-.605-.486-.887a.205.205 0 00-.263-.08.203.203 0 00-.08.262c.161.282.323.564.485.866.04.1.121.141.202.121z"/></g></g></g></svg>