<svg width="618" height="526" xmlns="http://www.w3.org/2000/svg"><defs><linearGradient x1="43.029%" y1="40.458%" x2="60.302%" y2="52.48%" id="a"><stop stop-color="#E3E8F9" offset="1.613%"/><stop stop-color="#F2F4FC" offset="46.06%"/><stop stop-color="#FFF" offset="100%"/></linearGradient><linearGradient x1="-.822%" y1="50.04%" x2="99.8%" y2="50.04%" id="b"><stop stop-color="#0E8DC9" offset="0%"/><stop stop-color="#284C80" offset="100%"/></linearGradient><linearGradient x1="43.68%" y1="37.239%" x2="60.416%" y2="59.174%" id="c"><stop stop-color="#0E8DC9" offset="0%"/><stop stop-color="#284C80" offset="100%"/></linearGradient><linearGradient x1=".495%" y1="49.678%" x2="99.933%" y2="49.678%" id="d"><stop stop-color="#D1D3D4" offset="0%"/><stop stop-color="#EEEFEF" offset="57%"/><stop stop-color="#FFF" offset="100%"/></linearGradient><linearGradient x1="73.471%" y1="94.839%" x2="26.022%" y2="20.333%" id="e"><stop stop-color="#284C80" offset="0%"/><stop stop-color="#157CB5" offset="97.31%"/></linearGradient><linearGradient x1="1.077%" y1="49.816%" x2="100.485%" y2="49.816%" id="f"><stop stop-color="#F9FDFF" offset="0%"/><stop stop-color="#DAF3FD" offset="100%"/></linearGradient><linearGradient x1="40.912%" y1="41.921%" x2="63.315%" y2="56.833%" id="g"><stop stop-color="#E3E8F9" offset="1.613%"/><stop stop-color="#F2F4FC" offset="46.06%"/><stop stop-color="#FFF" offset="100%"/></linearGradient><linearGradient x1="20.231%" y1="72.311%" x2="80.03%" y2="27.632%" id="h"><stop stop-color="#F9FDFF" offset="0%"/><stop stop-color="#DAF3FD" offset="100%"/></linearGradient><linearGradient x1=".053%" y1="50.024%" x2="100.05%" y2="50.024%" id="i"><stop stop-color="#F2FBFF" offset="0%"/><stop stop-color="#DAF3FD" offset="100%"/></linearGradient><linearGradient x1="-.065%" y1="50.025%" x2="100.041%" y2="50.025%" id="j"><stop stop-color="#F2FBFF" offset="0%"/><stop stop-color="#DAF3FD" offset="100%"/></linearGradient><linearGradient x1="5.199%" y1="3.248%" x2="103.507%" y2="54.069%" id="k"><stop stop-color="#F0F1F2" offset="0%"/><stop stop-color="#FFF" offset="77.42%"/><stop stop-color="#FFF" offset="100%"/></linearGradient><linearGradient x1=".206%" y1="50.043%" x2="100.04%" y2="50.043%" id="l"><stop stop-color="#BAE2E8" offset="0%"/><stop stop-color="#BAE2E8" offset="100%"/></linearGradient><linearGradient x1=".015%" y1="50.072%" x2="99.959%" y2="50.072%" id="m"><stop stop-color="#284C80" offset="0%"/><stop stop-color="#0E8DC9" offset="100%"/></linearGradient><linearGradient x1="-.007%" y1="49.677%" x2="100.936%" y2="49.677%" id="n"><stop stop-color="#FFE957" offset="0%"/><stop stop-color="#FCD24A" offset="100%"/></linearGradient><linearGradient x1="-.073%" y1="50.089%" x2="99.21%" y2="50.089%" id="o"><stop stop-color="#FFE957" offset="0%"/><stop stop-color="#FCD24A" offset="100%"/></linearGradient><linearGradient x1="11.768%" y1="35.304%" x2="81.928%" y2="58.267%" id="p"><stop stop-color="#E3E8F9" offset="1.613%"/><stop stop-color="#F6F8FD" offset="57.7%"/><stop stop-color="#FFF" offset="100%"/></linearGradient><linearGradient x1=".017%" y1="49.991%" x2="100.018%" y2="49.991%" id="q"><stop stop-color="#DAF3FD" offset="0%"/><stop stop-color="#F2FBFF" offset="100%"/></linearGradient><linearGradient x1=".009%" y1="50%" x2="100.002%" y2="50%" id="r"><stop stop-color="#F2FBFF" offset="0%"/><stop stop-color="#DAF3FD" offset="100%"/></linearGradient><linearGradient x1=".096%" y1="49.99%" x2="100.008%" y2="49.99%" id="s"><stop stop-color="#33D1EA" offset="0%"/><stop stop-color="#2F90D6" offset="100%"/></linearGradient><linearGradient x1="50.067%" y1="100.031%" x2="50.067%" y2="-.009%" id="t"><stop stop-color="#FFF" offset="0%"/><stop stop-color="#C9FDF6" offset="24.72%"/><stop stop-color="#44F9DE" offset="81.11%"/><stop stop-color="#16F7D6" offset="100%"/></linearGradient><linearGradient x1="50.089%" y1="49.261%" x2="56.943%" y2="56.055%" id="u"><stop stop-color="#E3E8F9" offset="1.613%"/><stop stop-color="#F2F4FC" offset="46.06%"/><stop stop-color="#FFF" offset="100%"/></linearGradient><linearGradient x1="-.073%" y1="49.928%" x2="99.907%" y2="49.928%" id="v"><stop stop-color="#284C80" offset="0%"/><stop stop-color="#0E8DC9" offset="100%"/></linearGradient><linearGradient x1="-.38%" y1="50.36%" x2="99.819%" y2="50.36%" id="w"><stop stop-color="#14193C" offset="44.62%"/><stop stop-color="#282A55" offset="100%"/></linearGradient><linearGradient x1=".666%" y1="50.543%" x2="99.943%" y2="50.543%" id="x"><stop stop-color="#282A55" offset="0%"/><stop stop-color="#14193C" offset="44.62%"/><stop stop-color="#282A55" offset="100%"/></linearGradient><linearGradient x1="-.906%" y1="50.331%" x2="99.61%" y2="50.331%" id="y"><stop stop-color="#282A55" offset="0%"/><stop stop-color="#14193C" offset="55.38%"/></linearGradient><linearGradient x1="-.163%" y1="50.337%" x2="100.111%" y2="50.337%" id="z"><stop stop-color="#33D1EA" offset="0%"/><stop stop-color="#2F90D6" offset="100%"/></linearGradient><linearGradient x1="75.376%" y1="40.721%" x2="23.675%" y2="58.34%" id="A"><stop stop-color="#FFF" offset="0%"/><stop stop-color="#FDFDFE" offset="1.847%"/><stop stop-color="#F0F1F1" offset="22.6%"/><stop stop-color="#E8E9EA" offset="49.02%"/><stop stop-color="#E6E7E8" offset="100%"/></linearGradient><linearGradient x1=".139%" y1="50.289%" x2="100.351%" y2="50.289%" id="B"><stop stop-color="#0E8DC9" offset="0%"/><stop stop-color="#284C80" offset="100%"/></linearGradient><linearGradient x1=".035%" y1="50.038%" x2="100.049%" y2="50.038%" id="C"><stop stop-color="#B0D6E0" offset="0%"/><stop stop-color="#BFE9F6" offset="100%"/></linearGradient><linearGradient x1="99.893%" y1="49.846%" x2="-.019%" y2="49.846%" id="D"><stop stop-color="#DAF3FD" offset="0%"/><stop stop-color="#F9FDFF" offset="100%"/></linearGradient><linearGradient x1=".177%" y1="49.879%" x2="100.184%" y2="49.879%" id="E"><stop stop-color="#282A55" offset="0%"/><stop stop-color="#14193C" offset="44.62%"/><stop stop-color="#282A55" offset="100%"/></linearGradient><linearGradient x1="-.682%" y1="50.396%" x2="100.054%" y2="50.396%" id="F"><stop stop-color="#282A55" offset="0%"/><stop stop-color="#14193C" offset="44.62%"/><stop stop-color="#282A55" offset="100%"/></linearGradient><linearGradient x1=".407%" y1="49.95%" x2="100.245%" y2="49.95%" id="G"><stop stop-color="#33D1EA" offset="0%"/><stop stop-color="#2F90D6" offset="100%"/></linearGradient><linearGradient x1=".147%" y1="50.002%" x2="99.944%" y2="50.002%" id="H"><stop stop-color="#33D1EA" offset="0%"/><stop stop-color="#2F90D6" offset="100%"/></linearGradient><linearGradient x1="100.033%" y1="49.988%" x2=".128%" y2="49.988%" id="I"><stop stop-color="#DAF3FD" offset="0%"/><stop stop-color="#F9FDFF" offset="100%"/></linearGradient><linearGradient x1="19.064%" y1="38.904%" x2="79.722%" y2="58.707%" id="J"><stop stop-color="#E3E8F9" offset="1.613%"/><stop stop-color="#F6F8FD" offset="57.7%"/><stop stop-color="#FFF" offset="100%"/></linearGradient><linearGradient x1="49.796%" y1="100.07%" x2="49.796%" y2="-.011%" id="K"><stop stop-color="#284C80" offset="0%"/><stop stop-color="#0E8DC9" offset="100%"/></linearGradient><linearGradient x1="49.907%" y1="99.796%" x2="49.907%" y2="-.03%" id="L"><stop stop-color="#284C80" offset="0%"/><stop stop-color="#0E8DC9" offset="100%"/></linearGradient><linearGradient x1=".037%" y1="49.863%" x2="100%" y2="49.863%" id="M"><stop stop-color="#F6FCFF" offset="0%"/><stop stop-color="#EEF9FE" offset="43.55%"/><stop stop-color="#DAF3FD" offset="55.38%"/><stop stop-color="#DAF3FD" offset="100%"/></linearGradient><linearGradient x1="50.03%" y1="66.551%" x2="50.029%" y2="33.486%" id="N"><stop stop-color="#DAF3FD" offset="0%"/><stop stop-color="#FFF" offset="100%"/></linearGradient><linearGradient x1="53.22%" y1="79.969%" x2="46.834%" y2="18.749%" id="O"><stop stop-color="#284C80" offset="0%"/><stop stop-color="#0E8DC9" offset="100%"/></linearGradient><linearGradient x1="49.958%" y1="100.117%" x2="49.958%" y2=".054%" id="P"><stop stop-color="#284C80" offset="0%"/><stop stop-color="#0E8DC9" offset="100%"/></linearGradient><linearGradient x1=".077%" y1="49.837%" x2="100.026%" y2="49.837%" id="Q"><stop stop-color="#0E7384" offset="0%"/><stop stop-color="#14808A" offset="100%"/></linearGradient><linearGradient x1="100.028%" y1="49.832%" x2=".307%" y2="49.832%" id="R"><stop stop-color="#FFF" offset="0%"/><stop stop-color="#DAF3FD" offset="100%"/></linearGradient><linearGradient x1=".094%" y1="50.176%" x2="100.164%" y2="50.176%" id="S"><stop stop-color="#284C80" offset="0%"/><stop stop-color="#1678B1" offset="100%"/></linearGradient><linearGradient x1="-.143%" y1="51.187%" x2="100.569%" y2="51.187%" id="T"><stop stop-color="#284C80" offset="0%"/><stop stop-color="#1678B1" offset="100%"/></linearGradient><linearGradient x1="86.635%" y1="74.719%" x2="13.316%" y2="25.256%" id="U"><stop stop-color="#FFF" offset="0%"/><stop stop-color="#DAF3FD" offset="100%"/></linearGradient><linearGradient x1="-.126%" y1="49.983%" x2="100.053%" y2="49.983%" id="V"><stop stop-color="#33D1EA" offset="0%"/><stop stop-color="#2F90D6" offset="100%"/></linearGradient><linearGradient x1="49.3%" y1="100.175%" x2="49.3%" y2=".156%" id="W"><stop stop-color="#33D1EA" offset="0%"/><stop stop-color="#2F90D6" offset="100%"/></linearGradient><linearGradient x1="50.882%" y1="99.343%" x2="48.45%" y2="-.173%" id="X"><stop stop-color="#33D1EA" offset="0%"/><stop stop-color="#2F90D6" offset="100%"/></linearGradient><linearGradient x1="20.659%" y1="38.349%" x2="97.765%" y2="72.265%" id="Y"><stop stop-color="#80F3C8" offset="0%"/><stop stop-color="#30E695" offset="100%"/></linearGradient><linearGradient x1="45.999%" y1="44.336%" x2="61.06%" y2="52.466%" id="Z"><stop stop-color="#DFE4F8" offset="0%"/><stop stop-color="#F1F3FC" offset="40.99%"/><stop stop-color="#FFF" offset="84.95%"/><stop stop-color="#FFF" offset="100%"/></linearGradient><linearGradient x1="-.301%" y1="50.082%" x2="99.852%" y2="50.082%" id="aa"><stop stop-color="#E4A31E" offset="0%"/><stop stop-color="#F5C43D" offset="100%"/></linearGradient><linearGradient x1="22.724%" y1="87.126%" x2="70.97%" y2="9.86%" id="ab"><stop stop-color="#FFF" offset="0%"/><stop stop-color="#DAF3FD" offset="100%"/></linearGradient><linearGradient x1=".053%" y1="50.103%" x2="100.133%" y2="50.103%" id="ac"><stop stop-color="#F5C139" offset="0%"/><stop stop-color="#FCD24A" offset="100%"/></linearGradient><linearGradient x1="-.298%" y1="49.99%" x2="99.588%" y2="49.99%" id="ad"><stop stop-color="#FCD24A" offset="0%"/><stop stop-color="#FCD24A" offset="17.74%"/><stop stop-color="#FFE957" offset="38.17%"/><stop stop-color="#FFE957" offset="100%"/></linearGradient><linearGradient x1="-.258%" y1="50.017%" x2="99.894%" y2="50.017%" id="ae"><stop stop-color="#1D2047" offset="0%"/><stop stop-color="#282A55" offset="100%"/></linearGradient><linearGradient x1="51.34%" y1="51.86%" x2="51.34%" y2="51.86%" id="af"><stop stop-color="#2F90D6" offset="0%"/><stop stop-color="#33D1EA" offset="100%"/></linearGradient><linearGradient x1="22.734%" y1="87.06%" x2="70.982%" y2="9.793%" id="ag"><stop stop-color="#FFF" offset="0%"/><stop stop-color="#DAF3FD" offset="100%"/></linearGradient><linearGradient x1=".388%" y1="50.046%" x2="100.478%" y2="50.046%" id="ah"><stop stop-color="#2F90D6" offset="0%"/><stop stop-color="#33D1EA" offset="100%"/></linearGradient><linearGradient x1="-.267%" y1="49.926%" x2="99.62%" y2="49.926%" id="ai"><stop stop-color="#206197" offset="1.613%"/><stop stop-color="#206197" offset="19.89%"/><stop stop-color="#0E8DC9" offset="47.85%"/><stop stop-color="#0E8DC9" offset="47.85%"/><stop stop-color="#0E8DC9" offset="100%"/></linearGradient><linearGradient x1="-.146%" y1="49.975%" x2="100.006%" y2="49.975%" id="aj"><stop stop-color="#E4A31E" offset="0%"/><stop stop-color="#F5C43D" offset="100%"/></linearGradient><linearGradient x1="22.746%" y1="87.223%" x2="71.153%" y2="9.958%" id="ak"><stop stop-color="#FFF" offset="0%"/><stop stop-color="#DAF3FD" offset="100%"/></linearGradient><linearGradient x1=".162%" y1="50.007%" x2="100.253%" y2="50.007%" id="al"><stop stop-color="#F5C139" offset="0%"/><stop stop-color="#FCD24A" offset="100%"/></linearGradient><linearGradient x1="-.181%" y1="49.884%" x2="99.705%" y2="49.884%" id="am"><stop stop-color="#FCD24A" offset="0%"/><stop stop-color="#FCD24A" offset="17.74%"/><stop stop-color="#FFE957" offset="38.17%"/><stop stop-color="#FFE957" offset="100%"/></linearGradient><linearGradient x1="-.119%" y1="49.912%" x2="100.048%" y2="49.912%" id="an"><stop stop-color="#1D2047" offset="0%"/><stop stop-color="#282A55" offset="100%"/></linearGradient><linearGradient x1="51.07%" y1="50.45%" x2="51.42%" y2="50.45%" id="ao"><stop stop-color="#2F90D6" offset="0%"/><stop stop-color="#33D1EA" offset="100%"/></linearGradient><linearGradient x1="22.757%" y1="87.159%" x2="71.168%" y2="9.889%" id="ap"><stop stop-color="#FFF" offset="0%"/><stop stop-color="#DAF3FD" offset="100%"/></linearGradient><linearGradient x1=".194%" y1="49.946%" x2="100.275%" y2="49.946%" id="aq"><stop stop-color="#2F90D6" offset="0%"/><stop stop-color="#33D1EA" offset="100%"/></linearGradient><linearGradient x1="-.149%" y1="50.022%" x2="99.726%" y2="50.022%" id="ar"><stop stop-color="#206197" offset="1.613%"/><stop stop-color="#206197" offset="19.89%"/><stop stop-color="#0E8DC9" offset="47.85%"/><stop stop-color="#0E8DC9" offset="47.85%"/><stop stop-color="#0E8DC9" offset="100%"/></linearGradient><linearGradient x1="34.584%" y1="38.757%" x2="68.35%" y2="58.508%" id="as"><stop stop-color="#E3E8F9" offset="1.613%"/><stop stop-color="#F1F4FC" offset="58.04%"/><stop stop-color="#FFF" offset="100%"/></linearGradient><linearGradient x1="49.832%" y1="100.008%" x2="49.832%" y2=".087%" id="at"><stop stop-color="#284C80" offset="0%"/><stop stop-color="#0E8DC9" offset="100%"/></linearGradient><linearGradient x1=".009%" y1="49.928%" x2="100.048%" y2="49.928%" id="au"><stop stop-color="#FCD24A" offset="0%"/><stop stop-color="#FFE957" offset="100%"/></linearGradient><linearGradient x1="94.847%" y1="31.013%" x2="3.804%" y2="64.819%" id="av"><stop stop-color="#FCD24A" offset="0%"/><stop stop-color="#FFE957" offset="100%"/></linearGradient><linearGradient x1=".1%" y1="50.013%" x2="100.046%" y2="50.013%" id="aw"><stop stop-color="#2F90D6" offset="0%"/><stop stop-color="#2F90D6" offset="18.74%"/><stop stop-color="#33D1EA" offset="74.91%"/><stop stop-color="#3D7CDB" offset="100%"/></linearGradient><linearGradient x1=".1%" y1="49.957%" x2="99.973%" y2="49.957%" id="ax"><stop stop-color="#C6C9E3" offset="0%"/><stop stop-color="#C5C8E3" offset="100%"/></linearGradient><linearGradient x1="-.182%" y1="50.1%" x2="99.978%" y2="50.1%" id="ay"><stop stop-color="#C9CBE5" offset="0%"/><stop stop-color="#C8CBE5" offset="100%"/></linearGradient><linearGradient x1=".061%" y1="50.413%" x2="100.007%" y2="50.413%" id="az"><stop stop-color="#CCCEE6" offset="0%"/><stop stop-color="#CACDE6" offset="100%"/></linearGradient><linearGradient x1="-.233%" y1="50.229%" x2="100.031%" y2="50.229%" id="aA"><stop stop-color="#CED1E8" offset="0%"/><stop stop-color="#CCD0E8" offset="100%"/></linearGradient><linearGradient x1=".147%" y1="50.211%" x2="99.999%" y2="50.211%" id="aB"><stop stop-color="#D1D4E9" offset="0%"/><stop stop-color="#CFD2E9" offset="100%"/></linearGradient><linearGradient x1="-.153%" y1="50.012%" x2="100.001%" y2="50.012%" id="aC"><stop stop-color="#D4D6EA" offset="0%"/><stop stop-color="#D1D4EA" offset="100%"/></linearGradient><linearGradient x1=".018%" y1="49.814%" x2="100.12%" y2="49.814%" id="aD"><stop stop-color="#D7D9EC" offset="0%"/><stop stop-color="#D3D7EC" offset="100%"/></linearGradient><linearGradient x1="-.157%" y1="49.97%" x2="100.053%" y2="49.97%" id="aE"><stop stop-color="#DADCED" offset="0%"/><stop stop-color="#D6D9ED" offset="100%"/></linearGradient><linearGradient x1=".106%" y1="50.133%" x2="100.064%" y2="50.133%" id="aF"><stop stop-color="#DDDEEE" offset="0%"/><stop stop-color="#D8DBEE" offset="100%"/></linearGradient><linearGradient x1=".018%" y1="49.744%" x2="100.064%" y2="49.744%" id="aG"><stop stop-color="#E0E1F0" offset="0%"/><stop stop-color="#DADEF0" offset="100%"/></linearGradient><linearGradient x1="-.155%" y1="50.28%" x2="99.941%" y2="50.28%" id="aH"><stop stop-color="#E2E4F1" offset="0%"/><stop stop-color="#DDE0F1" offset="100%"/></linearGradient><linearGradient x1="-.28%" y1="50.453%" x2="99.777%" y2="50.453%" id="aI"><stop stop-color="#E5E7F3" offset="0%"/><stop stop-color="#DFE3F3" offset="100%"/></linearGradient><linearGradient x1="-.157%" y1="50.627%" x2="99.948%" y2="50.627%" id="aJ"><stop stop-color="#E8E9F4" offset="0%"/><stop stop-color="#E1E5F4" offset="100%"/></linearGradient><linearGradient x1="-.05%" y1="50.227%" x2="99.881%" y2="50.227%" id="aK"><stop stop-color="#EBECF5" offset="0%"/><stop stop-color="#E4E7F5" offset="100%"/></linearGradient><linearGradient x1="-.056%" y1="50.201%" x2="99.994%" y2="50.201%" id="aL"><stop stop-color="#EEEFF7" offset="0%"/><stop stop-color="#E6EAF7" offset="100%"/></linearGradient><linearGradient x1=".053%" y1="50.179%" x2="99.976%" y2="50.179%" id="aM"><stop stop-color="#F1F1F8" offset="0%"/><stop stop-color="#E8ECF8" offset="100%"/></linearGradient><linearGradient x1="-.102%" y1="50.367%" x2="99.955%" y2="50.367%" id="aN"><stop stop-color="#F4F4F9" offset="0%"/><stop stop-color="#EBEEF9" offset="100%"/></linearGradient><linearGradient x1=".085%" y1="50.343%" x2="100.006%" y2="50.343%" id="aO"><stop stop-color="#F6F7FB" offset="0%"/><stop stop-color="#EDF1FB" offset="100%"/></linearGradient><linearGradient x1="-.161%" y1="50.322%" x2="99.654%" y2="50.322%" id="aP"><stop stop-color="#F9FAFC" offset="0%"/><stop stop-color="#EFF3FC" offset="100%"/></linearGradient><linearGradient x1="-.007%" y1="49.87%" x2="99.94%" y2="49.87%" id="aQ"><stop stop-color="#FCFCFE" offset="0%"/><stop stop-color="#F2F6FE" offset="100%"/></linearGradient><linearGradient x1=".104%" y1="49.904%" x2="99.994%" y2="49.904%" id="aR"><stop stop-color="#FFF" offset="0%"/><stop stop-color="#DAF3FD" offset="100%"/></linearGradient><linearGradient x1="49.998%" y1="99.87%" x2="49.998%" y2=".037%" id="aS"><stop stop-color="#16F7D6" offset="0%"/><stop stop-color="#28F8D9" offset="4.314%"/><stop stop-color="#61FAE3" offset="18.76%"/><stop stop-color="#91FBEC" offset="33.27%"/><stop stop-color="#B9FDF3" offset="47.54%"/><stop stop-color="#D7FEF8" offset="61.51%"/><stop stop-color="#EDFEFC" offset="75.1%"/><stop stop-color="#FBFFFE" offset="88.13%"/><stop stop-color="#FFF" offset="100%"/></linearGradient><linearGradient x1="-.007%" y1="50.508%" x2="99.54%" y2="50.508%" id="aT"><stop stop-color="#3E7AE8" offset="0%"/><stop stop-color="#154BAF" offset="100%"/></linearGradient><linearGradient x1="-.222%" y1="49.796%" x2="99.9%" y2="49.796%" id="aU"><stop stop-color="#154BAF" offset="0%"/><stop stop-color="#3E7AE8" offset="100%"/></linearGradient><linearGradient x1="-.222%" y1="49.755%" x2="99.9%" y2="49.755%" id="aV"><stop stop-color="#3E7AE8" offset="0%"/><stop stop-color="#154BAF" offset="100%"/></linearGradient><linearGradient x1="-.222%" y1="49.235%" x2="99.868%" y2="49.235%" id="aW"><stop stop-color="#3E7AE8" offset="0%"/><stop stop-color="#154BAF" offset="100%"/></linearGradient><linearGradient x1="-.222%" y1="49.515%" x2="99.868%" y2="49.515%" id="aX"><stop stop-color="#3E7AE8" offset="0%"/><stop stop-color="#154BAF" offset="100%"/></linearGradient><linearGradient x1="-.15%" y1="49.983%" x2="99.943%" y2="49.983%" id="aY"><stop stop-color="#FFE957" offset="0%"/><stop stop-color="#FCD24A" offset="100%"/></linearGradient><linearGradient x1=".208%" y1="49.38%" x2="100.016%" y2="49.38%" id="aZ"><stop stop-color="#3A4983" offset="0%"/><stop stop-color="#282A55" offset="100%"/></linearGradient></defs><g fill="none" fill-rule="evenodd"><g opacity=".2" stroke="#979797"><path fill="#B04848" opacity=".564" d="M1 76.205L421 1v320.662L1 397z"/><path fill="#0091FF" opacity=".497" d="M101 132.205L521 57v320.662L101 453z"/><path fill="#30C41D" opacity=".234" d="M197 204.205L617 129v320.662L197 525z"/></g><g fill-rule="nonzero"><path fill="url(#a)" d="M64.3 18.8L36.8 7.5 2.9 28.6l29.6 19.9z" transform="translate(128 238)"/><path d="M43.1 6.5c0 .5-.1.9-.2 1.3s-.3.6-.6.8c-.1.1-.3.2-.5.3l-3.1 1.8-2.1 1.2-.3-.5-.2-.4-.4-.7c-.8-.6-1.4-1.4-2-2.3-.5-.9-.9-2-1-2.9l-.3-.6-.2-.4-.3-.6 2-1.2 3.3-2c.6-.4 1.5-.4 2.5.2 1 .6 1.8 1.5 2.5 2.6.5 1.1.9 2.3.9 3.4z" fill="url(#b)" transform="translate(128 238)"/><path d="M36.5 10.5c0 .4 0 .7-.1 1-.1.5-.3.8-.6 1.1-.1.1-.3.2-.5.3L12.8 26l-.8.4L9.9 23l-3.1-5 1.1-.6L30.4 4.3c.2-.1.3-.2.5-.3.4-.1.8-.1 1.3 0 .3.1.5.2.8.4 1 .6 1.8 1.5 2.5 2.6.6 1.1 1 2.3 1 3.5z" fill="url(#c)" transform="translate(128 238)"/><path d="M43.1 6.5c0 .5-.1.9-.2 1.3s-.3.6-.6.9c-.1.1-.3.2-.5.3l-5.2 3-.3-.5c-.2.7-.6 1.2-1.1 1.4L12.7 26l-.8.4L9.8 23l-.3-.9L33.6 8l1.7-1L42 3.2c.7 1 1.1 2.2 1.1 3.3z" fill="url(#d)" transform="translate(128 238)"/><path d="M11.1 26.7l-7.2.4c.2-.1.3-.3.3-.7 0-.4-.2-.8-.4-1.2-.2-.3-.4-.5-.7-.7-.3-.2-.6-.2-.8 0l3.9-6v-.1c.6-.9 1.7-1 3-.3 1 .6 1.9 1.6 2.5 2.7.6 1.1 1 2.3 1 3.4.2 1.5-.5 2.4-1.6 2.5z" fill="url(#e)" transform="translate(128 238)"/><path d="M132.2 264.4c0 .3-.1.6-.3.7h-.5l-2.7.1 1.5-2.3.2-.4c.2-.1.5-.1.8 0 .5.4 1 1.2 1 1.9z" fill="#282A55"/><path d="M38.7 9.1c0 .5-.1.9-.2 1.3-.1.3-.2.5-.4.7l-.2.2-1.5.9-.7.4c.3-.3.5-.6.6-1.1.1-.3.1-.6.1-1 0-1.1-.4-2.4-1-3.5s-1.5-2.1-2.5-2.6c-.3-.2-.6-.3-.8-.4-.5-.1-.9-.1-1.3 0l.6-.4 1.2-.8c.1-.1.2-.1.4-.2.6-.2 1.3-.1 2.1.4 2.1 1.1 3.6 3.9 3.6 6.1z" fill="url(#f)" transform="translate(128 238)"/><path fill="url(#g)" d="M146.9 143.5L72 102.7l-49.9 31.1 54 48.6z" transform="translate(102 97)"/><path d="M58.1 121.6c-7.4 0-14.9-5.5-14.9-17.6V90.2c0-13 8.8-28.2 20-34.7l15-8.7c3.5-2 7-3.1 10.4-3.1 7.4 0 14.8 5.5 14.8 17.7v13.8c0 13-8.8 28.2-20 34.7l-15 8.7c-3.4 1.9-6.9 3-10.3 3zm30.6-67.5c-1.5 0-3.3.6-5.2 1.7l-15 8.7c-8 4.6-14.8 16.4-14.8 25.7V104c0 2.7.6 7.2 4.4 7.2 1.5 0 3.3-.6 5.2-1.7l15-8.7c8-4.6 14.8-16.4 14.8-25.6V61.4c0-2.8-.5-7.3-4.4-7.3z" fill="url(#h)" transform="translate(102 97)"/><path d="M85.6 117v.4c0 .9-.3 1.9-.8 2.9-3.5 7.6-19 16.5-41.6 16.5-25.8 0-42.3-11.6-42.3-19.6V49.1h84.7V117z" fill="url(#i)" transform="translate(102 97)"/><path d="M43.3 68.8C17.4 68.8 1 57.1 1 49.1s16.5-19.7 42.3-19.7c25.9 0 42.3 11.7 42.3 19.7S69.1 68.8 43.3 68.8z" fill="url(#j)" transform="translate(102 97)"/><path d="M85.6 117v.4c0 .9-.3 1.9-.8 2.9C10.5 94.1 8.3 51.2 8.3 51.2h13.5l5-2h58.8V117z" fill="url(#k)" transform="translate(102 97)"/><path d="M78.3 50.3c0 1.6-.8 3.3-2.3 5.1-4.7 5.6-16.5 11.2-32.8 11.2-16.3 0-28.1-5.6-32.8-11.2-1.5-1.8-2.3-3.5-2.3-5.1 0-6.6 13.7-16.3 35-16.3s35.2 9.7 35.2 16.3z" fill="url(#l)" transform="translate(102 97)"/><path d="M76.1 55.4C71.4 61 59.6 66.6 43.3 66.6 27 66.6 15.2 61 10.5 55.4c4.7-5.6 16.5-11.2 32.8-11.2 16.3 0 28.1 5.6 32.8 11.2z" fill="url(#m)" transform="translate(102 97)"/><path d="M40.8 12.5c.1-.8.3-1.6.6-2.3.2-.7.5-1.4.8-2.1l.9-1.8c.6-1.1 1.3-2 2-2.8.7-.8 1.3-1.4 1.9-1.9.6-.5 1.1-.8 1.4-1 .3-.2.5-.3.5-.3s.1.8.2 2.3c.1.7.1 1.5.2 2.4 0 .5.1.9.1 1.4 0 .5.1 1 .2 1.5s.1 1 .2 1.6c0 .3.1.5.1.8.1.3.1.5.2.8.1.3.1.5.2.8.1.3.1.5.2.8.1.5.3 1 .4 1.5.3 1 .7 1.8 1.1 2.6.4.8.9 1.6 1.4 2.3l.1.1v.1l.3.4v.1l.3.5.6.9c.1.2.2.3.3.5l.4.8c.2.5.5 1 .7 1.6.2.5.3 1 .5 1.5.1.5.2 1 .3 1.4.2.9.2 1.9.3 2.8 0 .9 0 1.8-.2 2.6-.1.8-.3 1.6-.5 2.4-.4 1.5-1 2.8-1.7 4-1.3 2.3-2.9 3.8-4 4.7-.6.5-1.1.8-1.4 1l-.6.3s0-.8-.1-2.3c-.1-.7-.1-1.5-.2-2.4-.1-.9-.2-1.9-.3-2.9-.1-1-.3-2-.5-3-.1-.5-.3-1-.4-1.5-.2-.5-.3-.9-.5-1.4-.2-.4-.4-.9-.6-1.3l-.3-.6c-.1-.2-.2-.5-.3-.5-.1-.1-.2-.3-.3-.4 0-.1-.1-.1-.1-.2s-.2-.3-.3-.4l-.6-.9-.3-1c-.5-.8-1.2-1.7-1.6-2.6-.2-.5-.4-.9-.6-1.4-.2-.5-.4-.9-.5-1.4-.6-1.9-.8-3.8-.7-5.6 0-.8.1-1.7.2-2.5z" fill="url(#n)" opacity=".6" transform="translate(102 97)"/><path d="M33.2 30.4c.1-.5.1-1 .2-1.5.2-.9.5-1.7.9-2.5.7-1.4 1.6-2.4 2.3-3.1.7-.6 1.2-.9 1.2-.9s.1.5.3 1.4c.1.4.2.9.3 1.5.1.5.2 1.2.4 1.8.1.3.1.6.2.9l.3.9.3.9c.1.3.2.6.4.9.5 1.1 1.1 2 1.8 2.8l.1.1.2.3.2.3.4.5c.1.1.1.1.2.3l.3.5c.2.3.4.6.5.9.6 1.2.8 2.3 1 3.5 0 .6.1 1.1 0 1.7-.1.5-.1 1-.2 1.5-.2 1-.5 1.8-.9 2.5-.7 1.5-1.6 2.5-2.3 3.1-.7.6-1.2.9-1.2.9s-.1-.5-.3-1.4c-.2-.9-.4-2-.7-3.2-.1-.6-.3-1.2-.5-1.8l-.3-.9c-.1-.3-.3-.5-.4-.8-.2-.2-.3-.5-.4-.7-.2-.2-.3-.5-.4-.6l-.2-.2s0-.1-.1-.1c0 0-.1-.2-.2-.2l-.4-.5-.3-.4c-.8-1-1.5-2.1-1.9-3.2-.2-.6-.4-1.2-.5-1.7-.1-.6-.2-1.1-.2-1.7-.1-.8-.2-1.3-.1-1.8z" fill="url(#o)" opacity=".6" transform="translate(102 97)"/><g><path d="M259.4 273.7l-77.2-29.4c-3.3 3.6-13.2 2.8-13.2 2.8l62.3 48c10.7-4 26.5-14.5 28.1-21.4z" fill="url(#p)" transform="translate(274 43)"/><path d="M184.4 257.1L18.1 152.5c-3.1-1.8-5.7-6.2-5.7-9.8L5.3 9.7C5.3 1 13-.6 18.1 2.2l172.3 99.4c3.1 1.8 5.7 6.2 5.7 9.8v137.3c0 9.6-8.5 10.2-11.7 8.4z" fill="url(#q)" transform="translate(274 43)"/><path d="M458.4 300.1L292.1 195.5c-3.1-1.8-5.7-6.2-5.7-9.8l-7.1-133c0-8.7 7.7-10.3 12.8-7.5l172.3 99.4c3.1 1.8 5.7 6.2 5.7 9.8v137.3c0 9.6-8.5 10.2-11.7 8.4z" fill="#E4EFEE"/><path d="M458.3 300.1l-167-104c-3.1-1.8-5.7-6.2-5.7-9.8l-6.3-133.5c0-8.1 7.2-9.7 12-7.1L463.7 145c3.1 1.8 5.7 6.2 5.7 9.8v137.3c-.1 9.1-7.9 9.8-11.1 8z" fill="#E7F1F0"/><path d="M458.2 300L290.5 196.6c-3.1-1.8-5.7-6.2-5.7-9.8l-5.5-134c0-7.6 6.6-9.1 11.2-6.6l172.3 99.4c3.1 1.8 5.701 6.2 5.701 9.8v137.3c.099 8.3-7.201 9.1-10.301 7.3z" fill="#EAF3F2"/><path d="M458.1 299.9L289.8 197.1c-3.1-1.8-5.7-6.2-5.7-9.8l-4.7-134.5c0-7 6-8.6 10.4-6.1L462.1 146c3.1 1.8 5.7 6.2 5.7 9.8v137.3c0 7.8-6.6 8.6-9.7 6.8z" fill="#EDF4F4"/><path d="M458 299.9L289 197.6c-3.1-1.8-5.7-6.2-5.7-9.8l-4-134.9c0-6.4 5.4-8 9.6-5.6l172.3 99.4c3.1 1.8 5.701 6.2 5.701 9.8v137.3c.099 6.9-5.801 7.9-8.901 6.1z" fill="#F0F6F6"/><path d="M457.8 299.8L288.2 198.1c-3.1-1.8-5.7-6.2-5.7-9.8l-3.2-135.4c0-5.9 4.8-7.4 8.8-5.2l172.3 99.4c3.1 1.8 5.701 6.2 5.701 9.8v137.3c.099 6.3-5.101 7.4-8.301 5.6z" fill="#F3F8F7"/><path d="M457.7 299.8L287.4 198.7c-3.1-1.8-5.7-6.2-5.7-9.8L279.3 53c0-5.3 4.3-6.8 8-4.7l172.3 99.4c3.1 1.8 5.702 6.2 5.702 9.8v137.3c.098 5.6-4.502 6.8-7.602 5z" fill="#F6FAF9"/><path d="M457.6 299.7l-171-100.5c-3.1-1.8-5.7-6.2-5.7-9.8L279.3 53c0-4.7 3.7-6.2 7.3-4.2l172.3 99.4c3.1 1.8 5.7 6.2 5.7 9.8v137.3c0 4.9-3.9 6.2-7 4.4z" fill="#F9FBFB"/><path d="M457.5 299.6l-171.7-99.9c-3.1-1.8-5.7-6.2-5.7-9.8L279.3 53c0-4.2 3.1-5.7 6.5-3.7l172.3 99.4c3.1 1.8 5.7 6.2 5.7 9.8v137.3c0 4.3-3.2 5.7-6.3 3.8z" fill="#FCFDFD"/><path d="M457.3 299.6L285 200.2c-3.1-1.8-5.7-6.2-5.7-9.8V53.1c0-3.6 2.5-5.1 5.7-3.3l172.3 99.4c3.1 1.8 5.7 6.2 5.7 9.8v137.3c0 3.6-2.5 5.1-5.7 3.3z" fill="#FFF"/><path d="M183.3 256.6L11 157.2c-3.1-1.8-5.7-6.2-5.7-9.8V10.1C5.3 6.5 7.8 5 11 6.8l172.3 99.4c3.1 1.8 5.7 6.2 5.7 9.8v137.3c0 3.6-2.5 5.1-5.7 3.3z" fill="url(#r)" transform="translate(274 43)"/><path d="M174 114.8v122.3c0 1-.2 1.7-.6 2.3-.1.2-.3.4-.5.6-.8.2-1.9.1-3-.6L15.5 150.6c-2.8-1.6-5.1-5.5-5.1-8.8V19.6c0-1.3.4-2.3 1-2.9.2-.1.5-.1.8-.1.7 0 1.4.2 2.3.7L169 106c2.7 1.7 5 5.6 5 8.8z" fill="url(#s)" transform="translate(274 43)"/><path d="M164.3 118.9v122.3c0 1-.2 1.7-.6 2.3-.1.2-.3.4-.5.6-.8.2-1.9.1-3-.6L5.8 154.7C3 153.1.7 149.2.7 145.9V23.7c0-1.3.4-2.3 1-2.9.2-.1.5-.1.8-.1.7 0 1.4.2 2.2.7l154.4 88.8c3 1.6 5.2 5.5 5.2 8.7z" fill="url(#t)" transform="translate(274 43)"/></g><g opacity=".8"><g fill="#FFF"><path d="M383.8 243.9c-2.2 0-4.5-.7-6.8-2l-80-46.2c-7.5-4.4-13.4-14.5-13.4-23.1v-63.2c0-6.7 3.8-11.2 9.4-11.2 2.2 0 4.5.7 6.8 2l80 46.2c7.5 4.4 13.4 14.5 13.4 23.1v63.2c0 6.7-3.7 11.2-9.4 11.2zM293 100.5c-4.4 0-7.1 3.4-7.1 8.9v63.2c0 7.9 5.4 17.1 12.3 21.1l80 46.2c2 1.1 3.9 1.7 5.7 1.7 4.4 0 7.1-3.4 7.1-8.9v-63.2c0-7.9-5.4-17.1-12.3-21.1l-80-46.2c-2.1-1.2-4-1.7-5.7-1.7zM430.1 195.2c-.7 0-1.5-.2-2.3-.7l-25.7-14.8c-2.5-1.4-4.4-4.8-4.4-7.6v-20.3c0-2.3 1.3-3.8 3.2-3.8.7 0 1.5.2 2.3.7l25.7 14.8c2.5 1.4 4.4 4.8 4.4 7.6v20.3c0 2.2-1.3 3.8-3.2 3.8zm-29.2-46.1c-1.3 0-2.1 1-2.1 2.7V172c0 2.5 1.7 5.4 3.8 6.6l25.7 14.8c.6.3 1.2.5 1.7.5 1.3 0 2.1-1 2.1-2.7V171c0-2.5-1.7-5.4-3.8-6.6l-25.7-14.8c-.6-.4-1.2-.5-1.7-.5zM430.1 235c-.7 0-1.5-.2-2.3-.7l-25.7-14.8c-2.5-1.4-4.4-4.8-4.4-7.6v-20.3c0-2.3 1.3-3.8 3.2-3.8.7 0 1.5.2 2.3.7l25.7 14.8c2.5 1.4 4.4 4.8 4.4 7.6v20.3c0 2.2-1.3 3.8-3.2 3.8zm-29.2-46.1c-1.3 0-2.1 1-2.1 2.7v20.3c0 2.5 1.7 5.4 3.8 6.6l25.7 14.8c.6.3 1.2.5 1.7.5 1.3 0 2.1-1 2.1-2.7v-20.3c0-2.5-1.7-5.4-3.8-6.6l-25.7-14.8c-.6-.3-1.2-.5-1.7-.5zM430.1 274.8c-.7 0-1.5-.2-2.3-.7l-25.7-14.8c-2.5-1.4-4.4-4.8-4.4-7.6v-20.3c0-2.3 1.3-3.8 3.2-3.8.7 0 1.5.2 2.3.7l25.7 14.8c2.5 1.4 4.4 4.8 4.4 7.6V271c0 2.2-1.3 3.8-3.2 3.8zm-29.2-46.1c-1.3 0-2.1 1-2.1 2.7v20.3c0 2.5 1.7 5.4 3.8 6.6l25.7 14.8c.6.4 1.2.5 1.7.5 1.3 0 2.1-1 2.1-2.7v-20.3c0-2.5-1.7-5.4-3.8-6.6l-25.7-14.8c-.6-.3-1.2-.5-1.7-.5z"/></g><path d="M353.1 168.6c-.2.4-.6.7-1 .7l-26.4.6c-.3 0-.6-.1-.8-.3-.2-.2-.3-.5-.3-.8v-31.7c0-.5.3-.9.7-1.1.4-.2 1 0 1.3.3l26.4 31.1c.2.4.3.8.1 1.2zM382.7 227.3c-.2 0-.4 0-.6-.2l-87.7-50.6c-.6-.3-.7-1-.4-1.6.3-.6 1-.7 1.6-.4l87.7 50.6c.6.3.7 1 .4 1.6-.3.4-.6.6-1 .6z" fill="#FFF"/><path d="M309.4 183.8c0 1.8-1.3 2.5-2.9 1.6-1.6-.9-2.9-3.1-2.9-4.9 0-1.8 1.3-2.5 2.9-1.6 1.6.9 2.9 3.1 2.9 4.9z" fill="#FFF"/><path d="M456.5 261.5c0-.1.1-.1.1-.1s-.1.4-.4.9c.1-.3.2-.6.3-.8z" fill="#E6E7E8"/></g><g><path fill="url(#u)" d="M3.2 80.1l30.2 18.1 48-27.8-30.2-15.8z" transform="translate(66 175)"/><path d="M35.2 51.5s-18.9-7.3-22-7.3c-3.1 0-11.1 2.2-7.7 8.1C8.8 58.2 26 75.8 26 75.8s5.3-1.7 5.6-3.5c.3-1.8-5.4-11.1-5.4-11.1s11 4 12.9 2.2c1.9-1.8-3.9-11.9-3.9-11.9z" fill="url(#v)" transform="translate(66 175)"/><path d="M30.8 83.1c-3.4 3.1-6.4 5.5-8.3 4.8-.2-.1-.5-.2-.7-.4-.2-.2-.5-.4-.7-.8-1.7-3 5.8-13.4 5.8-13.4s-.8-2.2 5.7 0c.1 0 .2.1.2.1.2.1.4.1.6.2 5.3 2.2 1.5 5.7-2.6 9.5z" fill="url(#w)" transform="translate(66 175)"/><path d="M18.3 76.5s-4.7 1.5-6.1 2.3c-1.3.8-4.8 2.1-8.2 1.5-3.4-.5-4.9-4.3-2.5-6.5 2.4-2.1 15.2-5.5 16.3-4.1 1.2 1.5 3.1 6 .5 6.8z" fill="url(#x)" transform="translate(66 175)"/><path d="M96.8 258.1c-3.4 3.1-6.4 5.5-8.3 4.8-.2-.1-.5-.2-.7-.4-.2-.4-.3-1.1.1-1.9 1.2-2.7 6.8-11.3 11-12.2.2.1.4.1.6.2 5.2 2.2 1.4 5.7-2.7 9.5z" fill="#575E91"/><path d="M30.8 83.1c-3.4 3.1-6.4 5.5-8.3 4.8-.5-.4-.8-1.1-.3-2.2 1.2-2.7 7.1-11.9 11.3-12.1 5.2 2.2 1.4 5.7-2.7 9.5z" fill="url(#y)" transform="translate(66 175)"/><path d="M31.5 62.8c-.1.3-.2.6-.4.7 0 0-.2-.9-.2-1.1v-.1c-1.9 1.5-3.7 2.5-5.5 3.1-.1.1-.3.1-.4.1-.1 0-.3.1-.4.1-2.7.9-5.1.9-7.2.6-.7-.1-1.3-.3-1.9-.4-1.6-.5-2.9-1.1-3.9-1.7-1.2-.7-1.9-1.4-1.9-1.4s-.6-1.5-1.3-4c-.8-2.4-1.7-5.7-2.7-9.3-.2-.9-.5-1.8-.7-2.7 0-.2-.1-.3-.1-.5-.4-1.7-.8-3.5-1.1-5.3-1.3-7.6-1.6-15.1 1.4-18.2 0 0 0-.1.1-.1.3-.4.7-.6 1.1-.9.3-.2.6-.3 1-.4.6-.2 1.4-.3 2.2-.4 1-.1 2.1-.1 3.3 0 1.2.1 2.5.3 3.8.5 3.9.7 7.7 2.2 9.8 4.1.3.2.5.7.6 1.3.3.9.5 2.2.7 3.8v.1c.1.5.1 1 .2 1.6.4 4.5.8 10.7 1.5 16.2.1.4.1.7.2 1l.6 3.3c.1.4.1.8.2 1.1.8 3.7 1.5 7.2 1 8.9z" fill="url(#z)" transform="translate(93 175)"/><path d="M117.6 240.7c.2-.1.5-.2.8-.3 1.7-.7 3.5-1.9 5.5-3.2l.2 1.6c1.3-1.1.2-6.4-.7-10.9-.2-1-.4-2.1-.6-3.3-.1-.4-.1-.7-.2-1-.8-5.5-1.1-11.7-1.5-16.2-.2-2.3-.5-3.7-1.6-4.2-2.1-.9-6.2.3-6.3 2.1-.6 7 2.5 32.3 4.4 35.4z" fill="#E6E7E8"/><path d="M102.6 197.4l.6 2.3.2.7c.4.6 1.3 2.3 4 .6 1.8-1.2 3.2-3.2 3.2-3.2l-2.2-7.7-5.8 7.3z" fill="#F79A97"/><path d="M9.6 22.4l.6 2.3c3.1-1.8 5.3-3.8 6-6.5l-.7-3.1-5.9 7.3z" fill="url(#A)" transform="translate(93 175)"/><path d="M99.3 179.9c4.3-1.2 7-.2 8.8 6.1.1-.3 1.7-1.5 2.2.2.2.7.1 2.3-1 3 0 .7.3 3.5-1.8 5.6-1.3 1.3-4.1 2.7-5.4 3.1-3 .8-4.4-1.8-6.3-7.1-2.4-6.8-2.6-9.1 3.5-10.9z" fill="#F79A97"/><path d="M110 185.4c0-.9 0-3.8-.9-6.1-1.1-2.7-4.6-5.2-9.3-3.7-4.8 1.5-7.1 6.6-6.5 8.6.6 1.9 2.9 2.4 6.3.9 2.9-1.3 3.1-1.9 4.1-1.5 1 .4 1.2 2.3 1.9 3.1.7.8 1.3 1.5 1.7 1.4.7-.2.4-1.2 1-1.8.2-.3 1.1-1 1.7-.7-.1 0 0 0 0-.2z" fill="#6A4123"/><path d="M15.3 70s-1.3 1-.9 4 5.1 2.5 6.1 2.6c1 .1 24.6 1 26.4.5 1.9-.5 11.9-6.2 11.9-12.6 0-4.3-1.8-5.2-7-5.2-5.5 0-11.8 7-14.7 6.9-2.7-.1-21.8 3.8-21.8 3.8z" fill="url(#B)" transform="translate(66 175)"/><path d="M42.7 14.9c0 .4-.2.7-.5.9l-16.4 9.4c-.5.3-1.3.3-1.8 0L1.4 12.1c-.3-.2-.5-.5-.5-.8 0-.4.1-.7.4-.9l16.5-8.7c.5-.3 1.3-.3 1.8 0l22.8 12.4c.2.2.4.5.3.8z" fill="url(#C)" transform="translate(74 220)"/><path d="M116.7 234.9c-.1.1-.2.2-.4.3l-16.4 9.4c-.3.2-.6.3-1 .3s-.8-.1-1-.3l-22.6-13c-.1-.1-.3-.2-.3-.3 0-.4.1-.7.4-.9l16.5-8.7c.5-.3 1.3-.3 1.8 0l22.8 12.4c.1.2.3.5.2.8z" fill="#E8F9F6"/><path d="M24 24.5L1.4 11.4c-.5-.3-.5-.8 0-1L17.8 1c.5-.3 1.3-.3 1.8 0l22.7 13c.5.3.5.8 0 1l-16.4 9.4c-.6.4-1.4.4-1.9.1z" fill="url(#D)" transform="translate(74 220)"/><path d="M23.2 21.9l-18-10.4c-.4-.2-.4-.6 0-.8l8.9-5.1c.4-.2 1-.2 1.4 0l18 10.4c.4.2.4.6 0 .8l-8.9 5.1c-.3.2-1 .2-1.4 0z" fill="url(#E)" transform="translate(74 220)"/><path d="M28.5 11l-5.3-3.1c-.1-.1-.1-.2 0-.2l2.6-1.5c.1-.1.3-.1.4 0l5.3 3.1c.1.1.1.2 0 .2L28.9 11c-.1.1-.3.1-.4 0z" fill="url(#F)" transform="translate(74 220)"/><path d="M105.8 231.3s-1.4-1-2.6-.9c-1.2.1-3.8-.6-3.7.5.1 1.1 2.4 1 1.9 1.3-.4.3-6.4 1.9-6.3 2.7.1.7 1 .7 1 .7s-1.5.7-1.4 1.3c.1.6.8.7 1.5.5 0 0-.6 1.2 1.4.8 0 0-.2.6 1.3.4 1.4-.2 5.7-1 7.9-4.1.2.1-.3-2.8-1-3.2z" fill="#F79A97"/><path d="M50.5 47.3s-5.9-18.5-2.1-20.7c3.8-2.2 6.2-1.7 7.8 6.8 1.7 8.5 6 20.1 3.4 20.7-2.6.7-17.2 6.4-20.1 5.4-1-.3-2.6-2.4-1.4-3.6 1.8-1.9 10-6.4 12.7-7.4l-.3-1.2z" fill="url(#G)" transform="translate(66 175)"/><path d="M32.8 48.9c-3.5 2.3-8.4 4.2-8.4 4.2-.3-.1-.6-.3-.8-.4-2-1.2-1.8-3.2-1.8-3.2l8.1-7.7c-.1-1.3-.7-8.5 0-12.4 0 0-.2 6.3.9 11.6.3 1.7.6 3.4 1 5.1v.2c0 .2.1.3.1.5.3.8.3 1.6.9 2.1z" fill="url(#H)" transform="translate(66 175)"/><path d="M98.8 223.9c-3.5 2.3-8.4 4.2-8.4 4.2-.3-.1-.6-.3-.8-.4 2-1.7 5.3-4.4 6.2-4.8.4-.2.3-3 0-6.1-.1-1.3-.7-8.5 0-12.4 0 0-.2 6.3.9 11.6.3 1.7.6 3.4 1 5.1v.2c0 .2.1.3.1.5.4.8.4 1.6 1 2.1z" fill="#E6E7E8"/><path d="M31.8 69.4L10 56.8c-.6-.3-1.2-1.2-1.3-1.8L5.8 39.7c-.1-.7.2-.9.8-.6l21.8 12.6c.6.3 1.2 1.2 1.3 1.8l2.9 15.3c.1.7-.2.9-.8.6z" fill="url(#I)" transform="translate(66 175)"/></g><g><path d="M134.1 132.1l-72.9-31.2c-3.3 3.6-10.2 11-17.5 11.8-2.1.2-3.2 2.6-3.7 4.4l-2.1-.8c-3.3 3.6-10.5 8.2-17.8 9-3.4.4-4.1 6.4-4.1 6.4l64 35.4c10.7-3.9 25.2-9.6 31.9-16 10.8-5.1 20.6-12.1 22.2-19z" fill="url(#J)" transform="translate(327 264)"/><path d="M405.8 375.9l-.3.6c-.9 1.5-2.8 2.7-4.4 3.4-.3.1-.5.2-.7.3-2.6 1-7.6.5-7.6.5l-.2.7c-5.1.5-5.9-.9-5.9-.9l.3-1.5.4-2.3.9-2.2s5.4-.8 10.5-1.1c2.3-.1 6.9-1.3 7.4.8-.1.5-.1 1.1-.4 1.7zM383.6 366.4c-.3 1-.7 2.2-1.3 3.1-1.4 2.4-5.7 4-5.7 4v.6s-.2.6-2.8 1.2c-2.6.6-3.8-1.1-3.8-1.1l.1-1 .4-4.6 4.9-1.9s5.5-4.5 7.4-3.9c1.1.5 1.2 1.9.8 3.6z" fill="#0F152B"/><path d="M383.6 366.4c-.3 1-.7 2.2-1.3 3.1-1.4 2.4-5.7 4-5.7 4v.6s-.2.6-2.8 1.2c-2.6.6-3.8-1.1-3.8-1.1l.1-1c.1.1.8 1.2 2.8 1.3 2.7.1 3.7-1.6 3.7-1.6 3.2-1.6 5-2.2 7-6.5z" fill="#A7A9AC"/><path d="M68.9 73.8c.4 10.2-.2 37.6-.2 37.6s-1.5 2.5-7.7.8c0 0-2.1-29.6-3.3-31.4l-7.5-8.3c0 .1 18.3-8.8 18.7 1.3z" fill="url(#K)" transform="translate(327 264)"/><path d="M54.4 64.5c3.2 9-.9 36.8-.9 36.8s-1.5 2.5-7.7.8c0 0-1.2-28.1-2.4-29.9L35 64c0-.1 16-9.1 19.4.5z" fill="url(#L)" transform="translate(327 264)"/><path d="M.7 85.5v35.7c0 1.5 1 3.1 3 4.3l22.6 13.1c4 2.3 10.5 2.3 14.5 0l17.6-10.2c1.8-1.1 2.8-2.4 3-3.8V88.5l-60.7-3z" fill="url(#M)" transform="translate(327 264)"/><path d="M58.4 92.5l-17.6 10.2c-4 2.3-10.5 2.3-14.5 0L3.7 89.6c-4-2.3-4-6 0-8.3l17.6-10.2c4-2.3 10.5-2.3 14.4 0l22.6 13.1c4.1 2.3 4.1 6 .1 8.3z" fill="url(#N)" transform="translate(327 264)"/><path d="M26.3 86.6c6.5-3 26.9-16.5 27.5-18.4 1.3-3.9-2.7-8.5-10.6-6.6-8.9 2.2-20.9 6.9-20.4 6.9.6-.1-2.8 21 3.5 18.1z" fill="url(#O)" transform="translate(327 264)"/><path d="M18.1 66.7s-.8 12.2 2.2 17.2S33.9 94.5 40.6 92c6.7-2.5 25.1-13.9 26.7-15.2 3.9-3.2-.1-10.6-6.3-9.6-9 1.5-22.8 6.4-22.3 6.4.5.1-20.6-6.9-20.6-6.9z" fill="url(#P)" transform="translate(327 264)"/><path d="M43.7 33.5c0 .4-.2.7-.5.9l-17 9.8c-.5.3-1.4.3-1.9 0L.9 30.7c-.3-.2-.5-.5-.5-.9s.2-.8.4-.9l17.1-9c.5-.3 1.4-.3 1.9 0l23.6 12.8c.2.2.4.5.3.8z" fill="url(#Q)" transform="translate(355 295)"/><path d="M43.7 33.5c-.1.1-.2.2-.4.3l-17 9.8c-.3.2-.7.3-1.1.3-.4 0-.8-.1-1.1-.3L.7 30.1c-.2-.1-.3-.2-.4-.3 0-.4.2-.8.4-.9l17.1-9c.5-.3 1.4-.3 1.9 0l23.6 12.8c.3.2.5.5.4.8z" fill="url(#R)" transform="translate(355 295)"/><path d="M27.6 38.8L8.9 28c-.4-.2-.4-.6 0-.9l9.2-5.3c.4-.2 1.1-.2 1.5 0l18.6 10.7c.4.2.4.6 0 .9L29 38.7c-.4.3-1 .3-1.4.1z" fill="url(#S)" transform="translate(355 295)"/><path d="M16.2 37.4l-5.5-3.2c-.1-.1-.1-.2 0-.3l2.7-1.6c.1-.1.3-.1.4 0l5.5 3.2c.1.1.1.2 0 .3l-2.7 1.6c-.1.1-.3.1-.4 0z" fill="url(#T)" transform="translate(355 295)"/><path d="M20.3 20.3l22.2 12.8c.6.3 1.2.1 1.3-.6l3.9-17.6c.2-.7-.2-1.5-.8-1.8L24.7.3c-.6-.3-1.2-.1-1.3.6l-3.9 17.6c-.2.6.2 1.5.8 1.8z" fill="url(#U)" transform="translate(355 295)"/><path d="M46.5 14.7c0-.1-.1-.4-.2-.5L24.5 1.6l-3.8 17.1c0 .1.1.4.2.5l21.8 12.6 3.8-17.1z" fill="url(#V)" transform="translate(355 295)"/><path d="M361 283.3c-.4-2-.3-4.4-.3-4.4l4-6.3h9.4s-2.4 13.2-5 14.9c-1.4.9-3.5 0-4.6.1l-1.6 6.2-7.5-2.5 1.7-9.3 3.9 1.3z" fill="#F9AAAA"/><path d="M46.2 73.6V76.9c-.2.3-1.6 3-5.1 4.6-.1 0-.2.1-.3.1-1.1.4-3.2.9-4.7 1-9.7.5-18.9-8.2-18.5-13.1.2-3.2.2-5.3.3-9.4.1-17.7-1.4-24.6 1.1-32.4 1.1-3.6 5.6-4.6 7.8-4.1.7.1 2.4.8 2.4.8.5 1.9 4.4 2.8 7.4 3.9.3.1 5.5 3.6 6.4 4.3 2.1.9 3 4.5 3.5 7.4.3 1.8.4 3.2.4 3.6v.1c0 6.9-.3 14.1-.4 16.4 0 .3 0 .5-.1.6v.2c.1 8.8.1 6.9.1 10.4v2.3h-.3z" fill="url(#W)" transform="translate(327 264)"/><path d="M373.2 317.6v.1c0 2.1 0 4.3.1 6.4v16.8c-.2.3-1.6 3-5.1 4.6-.1 0-.2.1-.3.1.1-8.2-.1-19.2-.2-22.4-.2-5.5-.9-15.8-.9-18.7V303c.4 1 1.7 1.1 2.7 1.2 2.2.2 2.4-.1 3.9-.3h.3v3.7c-.1 4.7-.4 9.1-.5 10z" fill="#E6E7E8"/><path d="M375.3 270.5c0-4.5-7.7-5.5-9.8-5.9-10-1.6-10.7 10.1-10.5 11.5.3 2.7 1.2 5 1.5 6.4.2 1.4.3 1.6 4.1 2.7 3.4 1 5.1-3.4 5.7-4.9.3-.7.5-2.7 1.8-2.4 1.4.3 1.2 2.4 1.9 1.9.4-.4 1.2-2.1 1.7-3.6.2-.5.4-1.8.4-2.1.1-.6 3.2.5 3.2-3.6z" fill="#6A4123"/><path d="M374.5 327.4c-.1-.3 5.9.8 9.1-.1.3-.4.8-1 1.4-1.3 1-.4 2.9-2 3.2-1 .3.9-1.5 1.8-1.1 1.8.5.1 6-.9 6.2-.3.2.7-.6 1-.6 1s1.5 0 1.6.5c.1.6-.4.9-1 1 0 0 1 .7-.9 1.2 0 0 .4.4-.9.8-1.2.4-4.8 1.3-7.7-.1-2.1.6-10.6 4.2-13.1 2.7-4.1-2.4-6.5-21.5-5.1-25 0 0 5.9-1.5 7.5 1 0 .1 1.6 18.9 1.4 17.8z" fill="#F9AAAA"/><path d="M47 50.9V52c-4.9 2.8-7.7 2-8.7 1.4-1.6-9.2-.7-19.2 3.1-20.6 1.9-.7 2.8.4 3.5 1.1 1.4 1.3 1.8 4.4 2.1 7.5.2 2.9.1 6.2 0 9.5z" fill="url(#X)" transform="translate(327 264)"/></g><path d="M363.5 245.6c-8.6-5-15.6-1.2-15.6 8.4 0 3.3.8 6.8 2.2 10.3l-22.7 9.1 28.7.8c2.2 2.6 4.7 4.7 7.3 6.3 8.6 5 15.6 1.2 15.6-8.4.1-9.7-6.9-21.5-15.5-26.5z" fill="url(#Y)" opacity=".7" transform="translate(66 43)"/><g><path d="M84.2 50.1L39.8 78.8 3.4 52.2s-.4-1.7 1.4-3.4c.9-.8 4.4-3.4 4.7-4 2.1-4.8 22.8-11.2 22.8-11.2l51.9 16.5z" fill="url(#Z)" transform="translate(208 189)"/><path d="M26.3 2.5V33c0 1.5-1.1 3.4-2.4 4.1l-22.4 13V14L23.9 1c.6-.4 1.2-.4 1.6-.2h.1c.4.3.7.9.7 1.7z" fill="url(#aa)" transform="translate(208 189)"/><path d="M31.3 6.6l-5.9-3.4-.2-.1c-.4-.2-1-.1-1.6.2l-5.4 3.1-17 9.8.3 35 22.1-11.9c1.3-.8 2.4-2.6 2.4-4.1V9.8l5.3-3.2z" fill="url(#ab)" transform="translate(208 189)"/><path d="M31.5 4.5c-.3 0-.7.1-1.1.3l-4.8 2.8L8.1 17.7c-.1 0-.2.1-.3.1-.5.1-2 .2-3.9-.8-1.9-1.1-2.3-2.3-2.4-2.8 0-.1 0-.3.2-.4L23.8 1c.6-.4 1.2-.4 1.6-.2l-.5-.3h-.2c-.4-.2-1-.1-1.6.2L1 13.5c-.1.1-.2.2-.2.3v.2c.1.7.5 2 2.3 3.1C5.2 18.5 5 19.2 6 19l2 34.8.6-.4 21.8-12.6c1.3-.8 2.4-2.6 2.4-4.1V6.1c0-.4-.1-.8-.2-1 .1-.1.2-.1.2-.1l-.2-.1-.5-.3c-.1 0-.4-.1-.6-.1z" fill="url(#ac)" transform="translate(208 189)"/><path d="M32.7 5c-.4-.2-1-.1-1.6.2l-5.4 3.1S9.2 18.2 8.1 18.4c-.9.2-2.8.1-4.9-1.2C1.4 16 1 14.7.9 14.1v-.2 35.9c0 .2-.2 1.9 2 3.3 2.4 1.6 4.9 1.3 5.6 1.2.1 0 .3-.1.4-.1C11 53 31.2 41.4 31.2 41.4c1.3-.8 2.4-2.6 2.4-4.1V6.7c0-.7-.2-1.2-.6-1.5-.2-.1-.3-.2-.3-.2z" fill="url(#ad)" transform="translate(208 189)"/><g><path d="M26 2.2v30.6c0 1.5-1.1 3.4-2.4 4.1l-22.4 13V13.8L23.6.8c.6-.4 1.2-.4 1.6-.2h.1c.4.3.7.8.7 1.6z" fill="url(#ae)" transform="translate(224 190)"/><path d="M.5 13.4c0 .1 0 .1 0 0z" fill="url(#af)" transform="translate(224 190)"/><path d="M31 6.4L25.1 3l-.2-.1c-.4-.2-1-.1-1.6.2l-5.4 3.1L.9 16l.3 35 22.1-11.9c1.3-.8 2.4-2.6 2.4-4.1V9.6L31 6.4z" fill="url(#ag)" transform="translate(224 190)"/><path d="M31.2 4.3c-.3 0-.7.1-1.1.3l-4.8 2.8L7.8 17.5c-.1 0-.2.1-.3.1-.5.1-2 .2-3.9-.8-1.9-1.1-2.3-2.3-2.4-2.8 0-.1.1-.3.2-.4L23.5.8c.6-.4 1.2-.4 1.6-.2l-.5-.3h-.2c-.4-.2-1-.1-1.6.2L.6 13.3c-.1.1-.2.2-.2.3v.2c.1.7.5 2 2.3 3.1 2.1 1.4 1.9 2.1 2.9 1.9l2 34.8.6-.4L30 40.6c1.3-.8 2.4-2.6 2.4-4.1V6c0-.4-.1-.8-.2-1 .1-.1.2-.1.2-.1l-.2-.1-.5-.3c0-.1-.2-.2-.5-.2z" fill="url(#ah)" transform="translate(224 190)"/><path d="M32.4 4.8c-.4-.2-1-.1-1.6.2l-5.4 3.1S8.9 18 7.8 18.2c-.9.2-2.8.1-4.9-1.2C1.1 15.8.7 14.5.6 13.9v-.2 35.9c0 .2-.2 1.9 2 3.3 2.4 1.6 4.9 1.3 5.6 1.2.1 0 .3-.1.4-.1 2.1-1.2 22.3-12.8 22.3-12.8 1.3-.8 2.4-2.6 2.4-4.1V6.5c0-.7-.2-1.2-.6-1.5-.2-.1-.3-.2-.3-.2z" fill="url(#ai)" transform="translate(224 190)"/></g><g><path d="M26 2.5v30.6c0 1.5-1.1 3.4-2.4 4.1l-22.4 13V14.1l22.4-13c.6-.4 1.2-.4 1.6-.2h.1c.4.3.7.8.7 1.6z" fill="url(#aj)" transform="translate(225 199)"/><path d="M31 6.6l-6-3.4-.2-.1c-.4-.2-1-.1-1.6.2l-5.4 3.1-17 9.8.3 35 22.1-11.9c1.3-.8 2.4-2.6 2.4-4.1V9.8L31 6.6z" fill="url(#ak)" transform="translate(225 199)"/><path d="M31.3 4.6c-.3 0-.7.1-1.1.3l-4.8 2.8L7.9 17.8c-.1 0-.2.1-.3.1-.5.1-2 .2-3.9-.8-1.9-1.1-2.3-2.3-2.4-2.8 0-.1.1-.3.2-.4L23.6 1.1c.6-.4 1.2-.4 1.6-.2l-.5-.3h-.2c-.4-.2-1-.1-1.6.2L.7 13.6c-.1.1-.2.2-.2.3v.2c.1.7.5 2 2.3 3.1 2.1 1.4 1.9 2.1 2.9 1.9l2 34.8.6-.4 21.8-12.6c1.3-.8 2.4-2.6 2.4-4.1V6.2c0-.4-.1-.8-.2-1 .1-.1.2-.1.2-.1l-.2-.1-.5-.3c-.1-.1-.3-.1-.5-.1z" fill="url(#al)" transform="translate(225 199)"/><path d="M32.4 5.1c-.4-.2-1-.1-1.6.2l-5.4 3.1S8.9 18.3 7.8 18.5c-.9.2-2.8.1-4.9-1.2C1.1 16.1.7 14.8.6 14.2V14v35.9c0 .2-.2 1.9 2 3.3 2.4 1.6 4.9 1.3 5.6 1.2.1 0 .3-.1.4-.1 2.1-1.2 22.3-12.8 22.3-12.8 1.3-.8 2.4-2.6 2.4-4.1V6.8c0-.7-.2-1.2-.6-1.5-.1-.1-.3-.2-.3-.2z" fill="url(#am)" transform="translate(225 199)"/></g><g><path d="M26.7 2.3v30.6c0 1.5-1.1 3.4-2.4 4.1L1.9 50V13.9L24.3.9c.6-.4 1.2-.4 1.6-.2.5.2.8.8.8 1.6z" fill="url(#an)" transform="translate(240 200)"/><path d="M1.2 13.5c.1 0 .1 0 0 0 .1 0 0 0 0 0z" fill="url(#ao)" transform="translate(240 200)"/><path d="M31.7 6.4l-6-3.4-.2-.1c-.4-.2-1-.1-1.6.2l-5.4 3.1-17 9.8.3 35 22.1-11.9c1.3-.8 2.4-2.6 2.4-4.1V9.6l5.4-3.2z" fill="url(#ap)" transform="translate(240 200)"/><path d="M32 4.4c-.3 0-.7.1-1.1.3l-4.8 2.8L8.6 17.6c-.1 0-.2.1-.3.1-.5.1-2 .2-3.9-.8-1.9-1.1-2.3-2.3-2.4-2.8 0-.1.1-.3.2-.4L24.3.9c.6-.4 1.2-.4 1.6-.2l-.5-.3h-.2c-.4-.2-1-.1-1.6.2L1.4 13.4c-.1.1-.2.2-.2.3v.2c.1.7.5 2 2.3 3.1 2.1 1.4 1.9 2.1 2.9 1.9l2 34.8.6-.4 21.8-12.6c1.3-.8 2.4-2.6 2.4-4.1V6c0-.4-.1-.8-.2-1 .1-.1.2-.1.2-.1l-.2-.1-.5-.3c-.1-.1-.3-.1-.5-.1z" fill="url(#aq)" transform="translate(240 200)"/><path d="M33.1 4.8c-.4-.2-1-.1-1.6.2l-5.4 3.1S9.6 18 8.5 18.2c-.9.2-2.8.1-4.9-1.2-1.8-1.2-2.2-2.5-2.3-3.1v-.2 35.9c0 .2-.2 1.9 2 3.3 2.4 1.6 4.9 1.3 5.6 1.2.1 0 .3-.1.4-.1 2.1-1.2 22.3-12.8 22.3-12.8 1.3-.8 2.4-2.6 2.4-4.1V6.5c0-.7-.2-1.2-.6-1.5-.1-.1-.3-.2-.3-.2z" fill="url(#ar)" transform="translate(240 200)"/></g></g><g><path d="M78.3 142.3c-1.7 7.4-4.7 8.5-16.3 12.8L1 131.8s5.4-2.4 8.3-2.7c6.3-.7 16.7 2.3 24.7 3.7l44.3 9.5z" fill="url(#as)" transform="translate(280 151)"/><path d="M332.3 164.5c.4-1.3 0-4.8.7-4.8.8 0 .9 1 .9 1s2.5-4.8 3.2-5.4c.7-.6 2.7-1 3.2 0 .5.9-.8 5.9-2.1 8.1-1.3 2.1-2.8 2.8-2.8 2.8s-1 1-1.2 1c-.5-.4-2.3-1.8-1.9-2.7z" fill="#F79A97"/><path d="M281.1 272.7l-1.1 3 1 7.1h1.4l.7-3.6 1.7 3.4s4.6.9 5.6-1.1-1-2.6-2.2-2.6l-1.6-6.3s-3.5-.7-5.5.1zM299.1 276s-.5-.1-.7 3.2c-.1 1.6-.1 1.4.5 5.9 0 0 .7.3 1.1 0l1-3.8s2.9 4.1 4.8 4.4c1.9.3 9.1.4 9.1-.9s-4.5-2.7-5.9-3.9c-1.4-1.1-4.4-5.4-4.4-5.4s-4.7-.2-5.5.5z" fill="#10122B"/><path d="M24.5 61.3s-2.5.6-6.2.1c-2-.3-4.2-.5-6.1-.6-.2-.2-.5-.4-.8-.5-1.7-.9-4.8-5.9-6.5-2.7-3.8 7.4 0 19.4-1 37.1 0 0-3.2 15.4-2.7 27 0 0 1.4.9 4.2.6.4 0 .9-.1 1.4-.2 0 0 2.2-15 4-19.9 1-3 2.6-9.1 3.7-15.4 1.2 6.4 2.2 14 2.2 14 .2 11.9 2.5 24.2 2.5 24.2 2.4.5 5.4-.4 5.4-.4l.7-25.5s.4-5.7.7-18.6c.3-14-1.5-19.2-1.5-19.2z" fill="url(#at)" transform="translate(280 151)"/><path d="M296.5 154.4l-1.4.8c0-.3-1.6.4-1.6.4l-5.9-.2-2.4 16.9-1 6.2c1.7 2.8 8.7 3.1 9 3.1.3 0 1.9-7.1 2-7.8l-.3-2.1c4.6-.8 5.3.1 5.1-9-.2-10.8-3.5-8.3-3.5-8.3z" fill="#F79A97"/><path d="M24.9 63.1s-1.5 2-4.3 2.6c-2.2.5-4.8.6-7.3.4C8 65.7 3.1 64 2.9 62c0 0 1.1-11.6.8-16.5-.3-5-5.1-15.8-1.3-23.3 1.8-3.5 11.2-.1 11.2-.1s6.5 1.3 8.4 3.4c.4.5.9 1.4 1.3 2.5 1.3 3.9 2.1 10.6.7 13.2-1.4 2.4-2.5 2.3-2.5 2.3 0 1 1.7 15.4 3.4 19.6z" fill="url(#au)" transform="translate(280 151)"/><path d="M306.2 216.6s-1.5 2-4.3 2.6c-2.2.5-4.8.6-7.3.4.2-.4 1.9-.8 2.1-.8 3.4-.1 4.5-9.6 3.4-15.6-.9-5.1-1.9-12.6-2.1-16.1-.3-3.6 2.2-7 2.2-7l4.4 1.4c1.3 3.9 2.1 10.6.7 13.2-1.4 2.5-2.5 2.3-2.5 2.3 0 1 1.7 15.4 3.4 19.6z" fill="#F1F2F2"/><path d="M19.2 34.5c-1.5-1.4-4-5.1.5-8 2.7-1.8 16.4-4.1 16.9-4.6 1.7-1.7 15.5-8.4 15.5-8.4s2.9-.8 2.8 2.5c0 0-7.3 7.3-15.3 10.7-1.8.7-17 11.1-20.4 7.8z" fill="url(#av)" transform="translate(280 151)"/><path fill="#D1D3D4" d="M294.3 237.8l-2.7-10.7 1.2 18.2z"/><path d="M298.5 173.9c.1 1-3.1 3.3-6.6 3.3-3.3 0-9.2-1-8.8-4.3.4-2.6.2-6.5-.1-11.4-.2-3.3.7-10.5 8.8-10.5 5.4 0 7.9 3.5 8.6 8.1v.1c0 2.5-1.5 2.4-2 3.7-.5 3.2 0 8.8.1 11z" fill="#282A55"/></g><g><path d="M85 78.2c0 3.6-1.7 6.8-4.9 9.7-5.6 5.1-15.8 8.8-28.2 10-.5 0-1 .1-1.5.1s-1 .1-1.5.1c-2 .1-4 .2-6.1.2-1.1 0-2.1 0-3.1-.1-1 0-2-.1-2.9-.1-1-.1-2-.1-2.9-.2-12.5-1.2-22.6-4.9-28.2-10C2.6 85.1.8 81.8.8 78.2c0-11.5 18.1-20.1 42.1-20.1C67 58.1 85 66.7 85 78.2z" fill="url(#aw)" transform="translate(200 308)"/><path d="M274.9 390.2c-3.7 5.7-15.4 11.8-31.9 11.8-16.6 0-28.2-6.1-31.9-11.8-2.3-3-3-6-2.8-8.7v-.1c0-.5.1-1 .2-1.6 0-.1.1-.2.1-.3v-.2-.1c0-.1 0-.2.1-.3 0-.1 0-.2.1-.3 0-.1 0-.1.1-.1v-.1c0-.1.1-.2.1-.3v-.1-.1s0-.1.1-.2c0-.1.1-.2.1-.3v-.1c0-.1.1-.2.1-.3 0 0 0-.1.1-.1.8-1.8 1.9-3.3 2.7-4.2 3-3.2 9.7-2 16.1.2 4.3-1.1 9.3-1.8 14.8-1.8s10.5.7 14.8 1.8c6.4-2.2 13.1-3.3 16.1-.2l.1.1c.9.9 1.9 2.3 2.7 4.1v.1c0 .1.1.2.1.3 0 .1 0 .1.1.2 0 .1.1.2.1.3v.2c0 .1 0 .1.1.2v.1c0 .2.1.3.1.5v.1c0 .1.1.2.1.3v.1c0 .1.1.3.1.4.1.5.2 1 .2 1.6v.1c.3 2.8-.4 5.8-2.7 8.8z" fill="#C3C6E2"/><path d="M69.7 19.8c.1 2.5-.7 5.3-2.9 8.1-3.7 5.7-15.3 11.8-31.9 11.8-16.5 0-28.2-6.1-31.9-11.8C.8 25.1.1 22.4.1 19.8v-.3-.1c0-.5.1-1 .2-1.6 0-.1.1-.2.1-.3v-.2-.1c0-.1 0-.2.1-.3 0-.1 0-.2.1-.3 0-.1 0-.1.1-.1v-.1c0-.1.1-.2.1-.3V16v-.1s0-.1.1-.2c0-.1.1-.2.1-.3v-.1c0-.1.1-.2.1-.3 0 0 0-.1.1-.1.8-1.8 1.9-3.3 2.7-4.2 3-3.2 9.7-2 16.1.2 4.3-1.1 9.3-1.8 14.8-1.8s10.5.7 14.8 1.8c6.4-2.2 13.1-3.3 16.1-.2l.1.1c.9.9 1.9 2.3 2.7 4.1v.1c0 .1.1.2.1.3 0 .1 0 .1.1.2 0 .1.1.2.1.3v.2c0 .1 0 .1.1.2v.1c0 .2.1.3.1.5v.1c0 .1.1.2.1.3v.1c0 .1.1.3.1.4.1.5.2 1 .2 1.6v.1c.3.2.3.3.3.4z" fill="url(#ax)" transform="translate(208 362)"/><path d="M69.7 19.8c0 2.4-.8 5.1-2.9 7.7-3.7 5.6-15.3 11.7-31.8 11.7S6.8 33.1 3.2 27.5C1.1 24.9.3 22.2.3 19.8v-.3-.1c0-.5.1-1 .2-1.6 0-.1.1-.2.1-.3v-.2-.1c0-.1 0-.2.1-.3 0-.1 0-.2.1-.3 0-.1 0-.1.1-.1v-.1c0-.1.1-.2.1-.3V16v-.1s0-.1.1-.2c0-.1.1-.2.1-.3v-.1c0-.1.1-.2.1-.3 0 0 0-.1.1-.1.8-1.8 1.9-3.3 2.7-4.2 3-3.2 9.7-2 16.1.2 4.3-1.1 9.3-1.8 14.8-1.8s10.5.7 14.8 1.8c6.4-2.2 13.1-3.3 16.1-.2l.1.1c.9.9 1.9 2.3 2.7 4.1v.1c0 .1.1.2.1.3 0 .1 0 .1.1.2 0 .1.1.2.1.3v.2c0 .1 0 .1.1.2v.1c0 .2.1.3.1.5v.1c0 .1.1.2.1.3v.1c0 .1.1.3.1.4.1.5.2 1 .2 1.6v.1c.1.2.1.3.1.4z" fill="url(#ay)" transform="translate(208 362)"/><path d="M69.5 19.7v.2c-.1 2.3-.9 4.7-2.8 7.1-3.7 5.6-15.3 11.7-31.8 11.7S6.8 32.7 3.1 27C1.3 24.6.5 22.1.3 19.9v-.4-.3c0-.4 0-.7.1-1.1 0-.2.1-.5.1-.7v-.2-.1c0-.1 0-.2.1-.3 0-.1 0-.2.1-.3 0-.1 0-.1.1-.1v-.1c0-.1.1-.2.1-.3v-.1-.1s0-.1.1-.2c0-.1.1-.2.1-.3v-.1c0-.1.1-.2.1-.3 0 0 0-.1.1-.1.8-1.8 1.9-3.3 2.7-4.2 3-3.2 9.7-2 16.1.2C24.4 9.7 29.4 9 34.9 9s10.5.7 14.8 1.8c6.4-2.2 13.1-3.3 16.1-.2l.1.1c.9.9 1.9 2.3 2.7 4.1v.1c0 .1.1.2.1.3 0 .1 0 .1.1.2 0 .1.1.2.1.3v.2c0 .1 0 .1.1.2v.1c0 .2.1.3.1.5v.1c0 .1.1.2.1.3v.2c.3.9.3 1.7.3 2.4z" fill="url(#az)" transform="translate(208 362)"/><path d="M69.5 19.7v.2c-.2 2.2-1 4.5-2.8 6.8C63 32.3 51.4 38.3 35 38.3c-16.5 0-28.1-6-31.7-11.6C1.5 24.4.7 22.1.5 20v-.4-.3c0-.5 0-1 .1-1.5 0-.1.1-.2.1-.3v-.2-.1c0-.1 0-.2.1-.3 0-.1 0-.2.1-.3 0-.1 0-.1.1-.1v-.1c0-.1.1-.2.1-.3V16v-.1s0-.1.1-.2c0-.1.1-.2.1-.3v-.1c0-.1.1-.2.1-.3 0 0 0-.1.1-.1.8-1.8 1.9-3.3 2.7-4.2 3-3.2 9.7-2 16.1.2 4.3-1.1 9.3-1.8 14.8-1.8s10.5.7 14.8 1.8C56.3 8.7 63 7.6 66 10.7l.1.1c.9.9 1.9 2.3 2.7 4.1v.1c0 .1.1.2.1.3 0 .1 0 .1.1.2 0 .1.1.2.1.3v.2c0 .1 0 .1.1.2v.1c0 .2.1.3.1.5v.1c0 .1.1.2.1.3v.1c0 .1.1.3.1.4v2z" fill="url(#aA)" transform="translate(208 362)"/><path d="M69.4 18.6c0 2.5-.7 5.1-2.8 7.8-3.7 5.5-15.2 11.5-31.7 11.5s-28-6-31.7-11.5c-1.3-1.8-2.1-3.5-2.5-5.2 0-.1-.1-.2-.1-.3-.2-1.2-.3-2.4-.2-3.5v-.2c0-.1 0-.2.1-.3 0-.1 0-.2.1-.3 0-.1 0-.1.1-.1v-.1c0-.1.1-.2.1-.3V16v-.1s0-.1.1-.2c0-.1.1-.2.1-.3v-.1c0-.1.1-.2.1-.3 0 0 0-.1.1-.1.8-1.8 1.9-3.3 2.7-4.2 3-3.2 9.7-2 16.1.2 4.3-1.1 9.3-1.8 14.8-1.8s10.5.7 14.8 1.8c6.4-2.2 13.1-3.3 16.1-.2l.1.1c.9.9 1.9 2.3 2.7 4.1v.1c0 .1.1.2.1.3 0 .1 0 .1.1.2 0 .1.1.2.1.3v.2c0 .1 0 .1.1.2v.1c0 .2.1.3.1.5v.1c0 .1.1.2.1.3v.1c.3.4.3.8.3 1.3z" fill="url(#aB)" transform="translate(208 362)"/><path d="M69.4 18.6c-.1 2.4-.8 4.9-2.8 7.5C63 31.6 51.4 37.6 35 37.6c-16.4 0-28-6-31.6-11.5-1.3-1.6-2.1-3.2-2.5-4.8 0-.1-.1-.2-.1-.3-.2-.9-.3-1.9-.3-2.8v-.4c0-.1.1-.2.1-.3v-.2-.1c0-.1 0-.2.1-.3 0-.1 0-.2.1-.3 0-.1 0-.1.1-.1v-.1c0-.1.1-.2.1-.3V16v-.1s0-.1.1-.2c0-.1.1-.2.1-.3v-.1c0-.1.1-.2.1-.3 0 0 0-.1.1-.1.8-1.8 1.9-3.3 2.7-4.2 3-3.2 9.7-2 16.1.2 4.3-1.1 9.3-1.8 14.8-1.8s10.5.7 14.8 1.8c6.4-2.2 13.1-3.3 16.1-.2l.1.1c.9.9 1.9 2.3 2.7 4.1v.1c0 .1.1.2.1.3 0 .1 0 .1.1.2 0 .1.1.2.1.3v.2c0 .1 0 .1.1.2v.1c0 .2.1.3.1.5v.1c0 .1.1.2.1.3v.2c.1.5.1.8.1 1.2z" fill="url(#aC)" transform="translate(208 362)"/><path d="M66.5 25.7c-3.7 5.5-15.2 11.5-31.6 11.5-16.4 0-27.9-5.9-31.6-11.4C1.1 23 .4 20.2.5 17.6v-.2-.1c0-.1 0-.2.1-.3 0-.1 0-.2.1-.3 0-.1 0-.1.1-.1v-.1c0-.1.1-.2.1-.3v-.1-.1s0-.1.1-.2c0-.1.1-.2.1-.3v-.1c0-.1.1-.2.1-.3 0 0 0-.1.1-.1.8-1.8 1.9-3.3 2.7-4.2 3-3.2 9.7-2 16.1.2 4.3-1.1 9.3-1.8 14.8-1.8s10.5.7 14.8 1.8c6.4-2.2 13.1-3.3 16.1-.2l.1.1c.9.9 1.9 2.3 2.7 4.1v.1c0 .1.1.2.1.3 0 .1 0 .1.1.2 0 .1.1.2.1.3v.2c0 .1 0 .1.1.2v.1c0 .2.1.3.1.5v.1c0 .1.1.2.1.3v.1c.3 2.5-.4 5.4-2.7 8.3z" fill="url(#aD)" transform="translate(208 362)"/><path d="M69.2 17.6v.3c0 2.3-.8 4.8-2.7 7.4-3.6 5.5-15.1 11.4-31.5 11.4S7.1 30.8 3.5 25.3c-1.6-2.1-2.3-4.2-2.6-6.2 0-.3-.1-.6-.1-.9V18v-1.4-.1c0-.1.1-.2.1-.3v-.1-.1s0-.1.1-.2c0-.1.1-.2.1-.3v-.1c0-.1.1-.2.1-.3 0 0 0-.1.1-.1.8-1.8 1.9-3.3 2.7-4.2 3-3.2 9.7-2 16.1.2 4.3-1.1 9.3-1.8 14.8-1.8s10.5.7 14.8 1.8c6.4-2.2 13.1-3.3 16.1-.2l.1.1c.9.9 1.9 2.3 2.7 4.1v.1c0 .1.1.2.1.3 0 .1 0 .1.1.2 0 .1.1.2.1.3v.2c0 .1 0 .1.1.2v.1c0 .2.1.3.1.5.1.2.1.4.1.7z" fill="url(#aE)" transform="translate(208 362)"/><path d="M69.2 17.3V17.9c-.1 2.2-.9 4.6-2.8 7-3.6 5.5-15.1 11.3-31.5 11.3S7 30.3 3.4 24.9c-1.3-1.7-2.1-3.4-2.5-5.1 0-.1 0-.2-.1-.2-.1-.5-.2-.9-.2-1.4V18v-1.3c0-.1 0-.1.1-.1v-.1c0-.1.1-.2.1-.3v-.1-.1s0-.1.1-.2c0-.1.1-.2.1-.3v-.1c0-.1.1-.2.1-.3 0 0 0-.1.1-.1.8-1.8 1.9-3.3 2.7-4.2 3-3.2 9.7-2 16.1.2 4.3-1.1 9.3-1.8 14.8-1.8s10.5.7 14.8 1.8c6.4-2.2 13.1-3.3 16.1-.2l.1.1c.9.9 1.9 2.3 2.7 4.1v.1c0 .1.1.2.1.3 0 .1 0 .1.1.2 0 .1.1.2.1.3v.2c0 .1 0 .1.1.2v.1c0 .2.1.3.1.5v.1c.2 0 .2.2.2.3z" fill="url(#aF)" transform="translate(208 362)"/><path d="M69.2 17.3v.3c-.1 2.2-.9 4.6-2.9 7-3.6 5.4-15.1 11.3-31.4 11.3-16.3 0-27.8-5.9-31.4-11.3C2.2 23 1.4 21.4 1 19.9c0-.1 0-.2-.1-.2 0-.2-.1-.3-.1-.5-.1-.7-.2-1.4-.2-2.1 0-.1 0-.2.1-.3 0-.1 0-.1.1-.1v-.1c0-.1.1-.2.1-.3v-.1-.1s0-.1.1-.2c0-.1.1-.2.1-.3v-.1c0-.1.1-.2.1-.3 0 0 0-.1.1-.1.8-1.8 1.9-3.3 2.7-4.2 3-3.2 9.7-2 16.1.2 4.3-1.1 9.3-1.8 14.8-1.8s10.5.7 14.8 1.8c6.4-2.2 13.1-3.3 16.1-.2l.1.1c.9.9 1.9 2.3 2.7 4.1v.1c0 .1.1.2.1.3 0 .1 0 .1.1.2 0 .1.1.2.1.3v.2c0 .1 0 .1.1.2v.1c0 .2.1.3.1.5v.1c.1 0 .1.1.1.2z" fill="url(#aG)" transform="translate(208 362)"/><path d="M69.1 16.3c.1 2.4-.6 5.1-2.7 7.9-3.6 5.4-15.1 11.2-31.4 11.2-16.3 0-27.8-5.8-31.4-11.2C1.5 21.5.8 18.8.9 16.4c0-.1.1-.2.1-.3V16v-.1s0-.1.1-.2c0-.1.1-.2.1-.3v-.1c0-.1.1-.2.1-.3 0 0 0-.1.1-.1.8-1.8 1.9-3.3 2.7-4.2 3-3.2 9.7-2 16.1.2 4.3-1.1 9.3-1.8 14.8-1.8s10.5.7 14.8 1.8c6.4-2.2 13.1-3.3 16.1-.2l.1.1c.9.9 1.9 2.3 2.7 4.1v.1c0 .1.1.2.1.3 0 .1 0 .1.1.2 0 .1.1.2.1.3v.2c0 .1 0 .1.1.2-.1 0-.1.1 0 .1z" fill="url(#aH)" transform="translate(208 362)"/><path d="M68.9 16v1.5c-.2 2-1 4.1-2.6 6.3C62.7 29.2 51.2 35 35 35 18.7 35 7.3 29.2 3.7 23.8c-1.8-2.4-2.5-4.8-2.6-7v-.2-.7-.1s0-.1.1-.2c0-.1.1-.2.1-.3v-.1c0-.1.1-.2.1-.3 0 0 0-.1.1-.1.8-1.8 1.9-3.3 2.7-4.2 3-3.2 9.7-2 16.1.2C24.6 9.7 29.6 9 35.1 9s10.5.7 14.8 1.8C56.3 8.6 63 7.5 66 10.6l.1.1c.9.9 1.9 2.3 2.7 4.1v.1c0 .1.1.2.1.3 0 .1 0 .1.1.2 0 .1.1.2.1.3-.2.2-.2.2-.2.3z" fill="url(#aI)" transform="translate(208 362)"/><path d="M69 16v.8c0 .4-.1.9-.2 1.4 0 .1 0 .2-.1.2-.4 1.6-1.1 3.3-2.4 5-3.6 5.3-15 11.1-31.3 11.1S7.3 28.7 3.7 23.4C2 21.1 1.2 18.9 1 16.8v-.2-.6-.1-.1s0-.1.1-.2c0-.1.1-.2.1-.3v-.1c0-.1.1-.2.1-.3 0 0 0-.1.1-.1.8-1.8 1.9-3.3 2.7-4.2 3-3.2 9.7-2 16.1.2C24.5 9.7 29.5 9 35 9s10.5.7 14.8 1.8c6.4-2.2 13.1-3.3 16.1-.2l.1.1c.9.9 1.9 2.3 2.7 4.1v.1c0 .1.1.2.1.3 0 .1 0 .1.1.2 0 .1.1.2.1.3-.1.2-.1.2 0 .3z" fill="url(#aJ)" transform="translate(208 362)"/><path d="M69 16c0 .1 0 .1.1.2 0 .4-.1.9-.1 1.3 0 .2-.1.4-.1.7 0 .1 0 .2-.1.2-.4 1.5-1.2 3.1-2.5 4.7-3.6 5.3-15 11.1-31.3 11.1-16.2 0-27.6-5.8-31.3-11.1-1.8-2.3-2.5-4.6-2.7-6.7v-.5s0-.1.1-.2c0-.1.1-.2.1-.3v-.1c0-.1.1-.2.1-.3 0 0 0-.1.1-.1.8-1.8 1.9-3.3 2.7-4.2 3-3.2 9.7-2 16.1.2 4.3-1.1 9.3-1.8 14.8-1.8s10.5.7 14.8 1.8c6.4-2.2 13.1-3.3 16.1-.2l.1.1c.9.9 1.9 2.3 2.7 4.1v.1c0 .1.1.2.1.3 0 .1 0 .1.1.2 0 .1.1.2.1.3-.1.1-.1.1 0 .2z" fill="url(#aK)" transform="translate(208 362)"/><path d="M68.8 15.6c0 .1.1.2.1.3-.1 2.2-.9 4.6-2.8 6.9-3.6 5.3-15 11-31.2 11s-27.6-5.7-31.2-11C2 20.6 1.2 18.5 1 16.4v-.5s0-.1.1-.2c0-.1.1-.2.1-.3v-.1c0-.1.1-.2.1-.3 0 0 0-.1.1-.1.8-1.8 1.9-3.3 2.7-4.2 3-3.2 9.7-2 16.1.2 4.3-1.1 9.3-1.8 14.8-1.8s10.5.7 14.8 1.8c6.4-2.2 13.1-3.3 16.1-.2l.1.1c.9.9 1.9 2.3 2.7 4.1v.1c0 .1.1.2.1.3-.1.1-.1.2 0 .3 0-.1 0-.1 0 0z" fill="url(#aL)" transform="translate(208 362)"/><path d="M68.8 15.5c-.1 2.2-.8 4.5-2.7 6.9-3.6 5.3-15 11-31.2 11s-27.6-5.7-31.2-11c-.9-1.2-1.5-2.4-1.9-3.5-.4-1.2-.7-2.4-.7-3.5v-.1c0-.1.1-.2.1-.3 0 0 0-.1.1-.1.8-1.8 1.9-3.3 2.7-4.2 3-3.2 9.7-2 16.1.2 4.3-1.1 9.3-1.8 14.8-1.8s10.5.7 14.8 1.8c6.4-2.2 13.1-3.3 16.1-.2l.1.1c.9.9 1.9 2.3 2.7 4.1v.1c0 .1.1.2.1.3 0 .1 0 .2.1.2z" fill="url(#aM)" transform="translate(208 362)"/><path d="M68.8 15.5c-.1 2.1-.9 4.3-2.7 6.5-3.6 5.3-15 10.9-31.1 10.9-16.2 0-27.5-5.7-31.1-10.9-.9-1-1.5-2.1-2-3.1-.5-1.1-.7-2.2-.8-3.2 0-.1.1-.2.1-.3v-.1c0-.1.1-.2.1-.3 0 0 0-.1.1-.1.8-1.8 1.9-3.3 2.7-4.2 3-3.2 9.7-2 16.1.2 4.3-1.1 9.3-1.8 14.8-1.8s10.5.7 14.8 1.8c6.4-2.2 13.1-3.3 16.1-.2l.1.1c.9.9 1.9 2.3 2.7 4.1v.1c0 .1.1.2.1.3-.1.1-.1.2 0 .2z" fill="url(#aN)" transform="translate(208 362)"/><path d="M68.6 15c0 .1.1.2.1.3-.2 2-1 4.2-2.7 6.3-3.6 5.2-14.9 10.9-31.1 10.9-16.1 0-27.5-5.7-31.1-10.9-1.7-2.2-2.5-4.3-2.7-6.3 0-.1.1-.2.1-.3 0 0 0-.1.1-.1.8-1.8 1.9-3.3 2.7-4.2 3-3.2 9.7-2 16.1.2 4.3-1.1 9.3-1.8 14.8-1.8s10.5.7 14.8 1.8c6.4-2.2 13.1-3.3 16.1-.2l.1.1c.9.9 1.9 2.3 2.7 4.1-.1 0-.1.1 0 .1z" fill="url(#aO)" transform="translate(208 362)"/><path d="M68.6 15c-.2 2-.9 4.1-2.6 6.3-3.6 5.2-14.9 10.8-31 10.8S7.6 26.5 4 21.3C2.3 19.1 1.6 17 1.4 15c0 0 0-.1.1-.1.8-1.8 1.9-3.3 2.7-4.2 3-3.2 9.7-2 16.1.2 4.3-1.1 9.3-1.8 14.8-1.8s10.5.7 14.8 1.8C56.3 8.7 63 7.6 66 10.7l.1.1c.9.9 1.9 2.3 2.7 4.1-.3 0-.3.1-.2.1z" fill="url(#aP)" transform="translate(208 362)"/><path d="M68.6 15c-.2 1.9-1 3.9-2.6 6-3.6 5.2-14.9 10.8-31 10.8S7.6 26.2 4 21c-1.6-2-2.4-4-2.7-5.9 0 0 0-.1.1-.1.8-1.8 1.9-3.3 2.7-4.2 3-3.2 9.7-2 16.1.2 4.3-1.1 9.3-1.8 14.8-1.8s10.5.7 14.8 1.8c6.4-2.2 13.2-3.3 16.1-.2.9.9 1.9 2.3 2.7 4.1-.1 0-.1.1 0 .1z" fill="url(#aQ)" transform="translate(208 362)"/><path d="M68.1 15.8c0 .8-.2 1.7-.6 2.5-1 2.1-3.1 4.2-6.1 6.2-2.1 1.4-4.6 2.6-7.6 3.7-2.6.9-5.6 1.7-8.9 2.2-3.1.5-6.4.8-10 .8-20.2 0-33.2-9.1-33.2-15.4C1.7 9.5 14.6.4 34.9.4 55.2.3 68.1 9.5 68.1 15.8z" fill="url(#aR)" transform="translate(208 362)"/><path d="M43.9.9C28.1.9 15.4 6.8 15.4 14.2v55.6c0 7.3 12.8 13.3 28.5 13.3 15.8 0 28.5-5.9 28.5-13.3V14.2C72.4 6.9 59.7.9 43.9.9z" fill="url(#aS)" transform="translate(200 308)"/></g><g opacity=".9"><g transform="translate(223 371)"><path d="M39.3 7.9c0 4-8.6 7.2-19.3 7.2C9.3 15.1.7 11.9.7 7.9S9.3.7 20 .7c10.7 0 19.3 3.2 19.3 7.2z" fill="#F8FFFD"/><path d="M37.5 7.7c0 3.6-7.8 6.5-17.4 6.5-9.6 0-17.4-2.9-17.4-6.5s7.8-6.5 17.4-6.5c9.6 0 17.4 2.9 17.4 6.5z" fill="#F1F8F6"/><path d="M35.6 7.6c0 3.2-7 5.8-15.6 5.8S4.4 10.8 4.4 7.6c0-3.2 7-5.8 15.6-5.8s15.6 2.6 15.6 5.8z" fill="#EBF1EF"/><ellipse fill="#E4E9E9" cx="20" cy="7.4" rx="13.7" ry="5.1"/><path d="M31.9 7.3c0 2.4-5.3 4.4-11.9 4.4-6.6 0-11.9-2-11.9-4.4 0-2.4 5.3-4.4 11.9-4.4 6.6 0 11.9 2 11.9 4.4z" fill="#DDE2E2"/><path d="M30.1 7.2c0 2.1-4.5 3.7-10 3.7s-10-1.7-10-3.7c0-2.1 4.5-3.7 10-3.7 5.5-.1 10 1.6 10 3.7z" fill="#D7DBDB"/><path d="M28.2 7c0 1.7-3.7 3-8.1 3-4.5 0-8.1-1.4-8.1-3 0-1.7 3.6-3 8.1-3s8.1 1.4 8.1 3z" fill="#D0D4D4"/><path d="M26.4 6.9c0 1.3-2.8 2.3-6.3 2.3s-6.3-1-6.3-2.3c0-1.3 2.8-2.3 6.3-2.3s6.3 1 6.3 2.3z" fill="#C9CCCE"/><path d="M24.5 6.7c0 .9-2 1.6-4.4 1.6-2.5 0-4.4-.7-4.4-1.6 0-.9 2-1.6 4.4-1.6 2.5 0 4.4.7 4.4 1.6z" fill="#C3C5C7"/><path d="M22.7 6.6c0 .5-1.2 1-2.6 1-1.4 0-2.6-.4-2.6-1 0-.5 1.1-1 2.6-1 1.4.1 2.6.5 2.6 1z" fill="#BCBEC0"/></g><path d="M11.8 52.7v8.5c0 2.6 3.5 4.7 8.1 4.7 4.5 0 8.1-2.1 8.1-4.7v-8.6H11.8v.1z" fill="url(#aT)" transform="translate(223 315)"/><path d="M8.7 45.5v11.9c0 3.6 4.9 6.5 11.2 6.5 6.3 0 11.2-2.9 11.2-6.5V45.5H8.7z" fill="url(#aU)" transform="translate(223 315)"/><path d="M19.9 52c-6.3 0-11.2-2.9-11.2-6.5S13.6 39 19.9 39c6.3 0 11.2 2.9 11.2 6.5S26.2 52 19.9 52z" fill="url(#aV)" transform="translate(223 315)"/><path d="M31.1 53.3v2.1c0 3.6-4.9 6.5-11.2 6.5-6.3 0-11.2-2.9-11.2-6.5v-1.5c.4 3.4 5.2 6 11.2 6 6.2-.2 11.2-3 11.2-6.6z" fill="url(#aW)" transform="translate(223 315)"/><path d="M31.1 49v2.1c0 3.6-4.9 6.5-11.2 6.5-6.3 0-11.2-2.9-11.2-6.5v-1.5c.4 3.4 5.2 6 11.2 6 6.2-.1 11.2-3 11.2-6.6z" fill="url(#aX)" transform="translate(223 315)"/><path d="M39 19.7c0-5.4-2.1-10.3-5.6-13.9C30 2.2 25.2 0 19.9 0c-5.3 0-10 2.3-13.5 5.8C3 9.4.8 14.3.8 19.7c0 2.6.6 5 1.6 7.3.9 2.2 2.2 4.2 3.4 6.1 2.5 3.8 2.9 5.2 3.5 8.9.1.8.3 1.6.4 2.1l.2 1.4c0 2.9 4.5 5.3 10 5.3s10-2.4 10-5.3l.1-1.4c.1-.5.2-1.3.4-2.1.6-3.7 1-5.1 3.5-8.9 1.2-1.9 2.5-3.9 3.4-6.1 1-2.3 1.7-4.7 1.7-7.3z" fill="url(#aY)" opacity=".8" transform="translate(223 315)"/><path d="M10.7 26.3c-.3 0-.6-.3-.6-.6V2.4L6.2 6.2c-.2.2-.6.2-.8 0L1.6 2.5v23.3c0 .3-.3.6-.6.6s-.6-.3-.6-.6V1.1C.4.9.5.6.8.6c.2-.1.5 0 .6.1L5.8 5 10.3.7c.2-.2.4-.2.6-.1.2.1.4.3.4.5v24.7c0 .2-.3.5-.6.5z" transform="translate(237 335)" fill="url(#aZ)"/></g></g></g></svg>