<svg width="491" height="321" xmlns="http://www.w3.org/2000/svg"><g fill-rule="nonzero" fill="none"><path d="M69.586 274.19c-42.694-3.043-60.09-4.13-67.774 13.913-7.683 18.043 19.354 37.68 149.682 31.52 130.328-6.159 222.24-.58 262.904-6.159 40.664-5.58 36.605-33.404 18.919-40.143-17.687-6.739-68.861.942-165.992 3.695-97.057 2.754-149.971.58-197.74-2.825z" fill="#D1D3D4"/><g transform="translate(8.698)"><path d="M157.728 216.657l-8.119 85.938s2.103 2.609 6.307 2.101l14.642-80.72-12.83-7.32zM245.58 216.657l8.118 85.938s-2.102 2.609-6.306 2.101l-14.642-80.72 12.83-7.32z" fill="#A97C50"/><path d="M169.036 216.657l-6.017 64.272s1.522 1.957 4.64 1.594l10.872-60.432-9.495-5.434zM234.272 216.657l6.016 64.272s-1.522 1.957-4.639 1.594l-10.872-60.432 9.495-5.434z" fill="#8B5E3C"/><g fill="#A97C50"><path d="M175.994 114.415v82.17h7.539v-81.083zM230.503 114.415v82.17h-7.539v-81.083z"/></g><path d="M165.919 70.504c-11.018 7.174-10.293 33.332.29 41.882 13.627 11.014 60.162 13.913 73.282 2.464 13.192-11.449 12.323-38.694 1.45-44.201-13.265-6.666-20.224 1.014-36.533 1.014-16.236 0-27.834-8.115-38.49-1.159zM203.61 189.05c-26.746 0-52.26 9.999-53.928 26.737-1.667 16.739 27.98 17.173 53.929 17.173 25.95 0 50.232-2.1 50.232-16.303 0-14.202-28.486-27.608-50.232-27.608z" fill="#8B5E3C"/><path d="M203.61 225.425c-23.63 0-50.304-.29-53.638-11.377-.145.58-.218 1.16-.29 1.812-1.667 16.738 27.98 17.173 53.929 17.173 25.95 0 50.232-2.101 50.232-16.304a9.68 9.68 0 00-.435-2.898c-3.117 10.072-25.732 11.594-49.797 11.594zM41.1 216.657l-8.12 85.938s2.103 2.609 6.307 2.101l14.642-80.72-12.83-7.32zM115.904 216.657l8.118 85.938s-2.102 2.609-6.306 2.101l-14.642-80.72 12.83-7.32z" fill="#A97C50"/><path d="M18.411 216.657l-6.016 64.272s1.522 1.957 4.639 1.594l10.873-60.432-9.496-5.434zM83.72 216.657l6.017 64.272s-1.523 1.957-4.64 1.594l-10.872-60.432 9.495-5.434z" fill="#8B5E3C"/><g fill="#A97C50"><path d="M21.818 114.415l7.249 82.17h7.538l-7.104-81.083zM76.327 114.415l7.176 82.17h-7.539l-7.103-81.083z"/></g><path d="M8.408 70.504c-11.017 7.174-10.293 33.332.29 41.882C22.325 123.4 68.861 126.3 81.981 114.85 95.1 103.4 94.303 76.156 83.43 70.649c-13.265-6.666-20.224 1.014-36.533 1.014-16.31 0-27.834-8.115-38.49-1.159zM59.003 189.05c-26.747 0-48.203 9.999-43.129 26.737 5.074 16.739 34.866 17.173 60.888 17.173s49.362-2.1 43.636-16.303c-5.726-14.202-39.65-27.608-61.395-27.608z" fill="#8B5E3C"/><path d="M73.717 225.425c-23.63 0-50.45-.29-58.278-11.377.145.58.29 1.16.435 1.812 5.074 16.738 34.866 17.173 60.888 17.173 25.95 0 49.362-2.101 43.636-16.304-.362-1.014-.942-1.956-1.595-2.898.943 10.072-21.02 11.594-45.086 11.594z" fill="#A97C50"/><g><path d="M394.754 216.657l8.119 85.938s-2.102 2.609-6.306 2.101l-14.642-80.72 12.83-7.32zM319.95 216.657l-8.119 85.938s2.102 2.609 6.307 2.101l14.642-80.72-12.83-7.32z" fill="#A97C50"/><path d="M417.37 216.657l6.016 64.272s-1.522 1.957-4.639 1.594l-10.873-60.432 9.496-5.434zM352.133 216.657l-6.016 64.272s1.522 1.957 4.639 1.594l10.873-60.432-9.496-5.434z" fill="#8B5E3C"/><g fill="#A97C50"><path d="M413.963 114.415l-7.176 82.17h-7.538l7.103-81.083zM359.527 114.415l-7.176 82.17h7.538l7.104-81.083z"/></g><path d="M427.445 70.504c11.018 7.174 10.293 33.332-.29 41.882-13.627 11.014-60.162 13.913-73.282 2.464-13.193-11.449-12.323-38.694-1.45-44.201 13.265-6.666 20.223 1.014 36.533 1.014 16.164 0 27.834-8.115 38.49-1.159zM376.778 189.05c26.747 0 48.203 9.999 43.129 26.737-5.074 16.739-34.866 17.173-60.888 17.173s-49.362-2.1-43.636-16.303c5.726-14.202 39.722-27.608 61.395-27.608z" fill="#8B5E3C"/><path d="M362.064 225.425c23.63 0 50.45-.29 58.278-11.377-.145.58-.29 1.16-.435 1.812-5.074 16.738-34.866 17.173-60.888 17.173-25.95 0-49.362-2.101-43.636-16.304.363-1.014.942-1.956 1.595-2.898-.87 10.072 21.093 11.594 45.086 11.594z" fill="#A97C50"/></g><g><path d="M189.621 187.673s-3.624 22.173 7.684 30.506c11.235 8.333 55.378 13.767 55.378 13.767l-8.408 49.635 8.77 4.42s17.542-31.085 22.979-49.417c5.509-18.333-.58-33.84-36.968-48.839h-49.435v-.072z" fill="#4E7783"/><path d="M150.697 187.673s-3.625 22.173 7.683 30.506c11.235 8.333 55.379 13.767 55.379 13.767l-8.336 49.563 8.77 4.42s17.542-31.085 22.979-49.418c5.508-18.332-.58-33.839-36.968-48.838h-49.507z" fill="#699298"/><path d="M243.478 280.93l-6.596 7.753 21.963 16.086s.652-8.768-5.872-18.84l-9.495-5zM205.496 280.93l-6.597 7.753 21.963 16.086s.653-8.768-5.87-18.84l-9.496-5z" fill="#594A42"/><path d="M150.697 187.673s-1.595-86.446 12.25-97.387c13.844-10.942 60.525-8.84 66.976 5 6.451 13.84 9.278 92.314 9.278 92.314s-51.61 14.71-88.504.073z" fill="#27AAE1"/><g transform="translate(171.065)"><path d="M59.728 34.274s-4.567 10.434-6.306 25.071c-1.668 14.637-1.668 23.84-17.977 21.738C19.136 78.982 10.8 58.91 9.93 44.708c-.87-14.202 5.002-38.042 27.617-33.042 22.616 5 25.515 12.826 22.18 22.608z" fill="#FFE8B8"/><path d="M45.593 41.52s1.885 5.58 6.379 12.39c4.494 6.884-5.219 10.58-7.539 2.537-2.32-8.043 1.16-14.927 1.16-14.927z" fill="#FBCFAC"/><ellipse fill="#594A42" cx="35.445" cy="38.114" rx="2.32" ry="2.319"/><ellipse fill="#594A42" cx="53.059" cy="40.36" rx="2.32" ry="2.319"/><path d="M16.89 58.476l-1.958 24.709s3.987 9.057 11.09 8.26c7.031-.797 6.959-6.739 6.959-6.739l.58-11.593-16.672-14.637z" fill="#FFE8B8"/><path d="M54.001 6.014C43.346-1.304 24.862-2.1 22.615 4.854c-2.754.943-5.436 2.465-8.19 4.783C-3.117 24.71 2.972 59.417 13.7 61.012c0 0-3.407-26.303 16.381-43.26 0 0 1.45 4.493 13.483 10.363 12.032 5.869 14.062 11.52 14.062 11.52s5.944-3.042 7.176-10.94c1.377-7.826-.073-15.362-10.8-22.68z" fill="#FBB040"/><path d="M14.425 46.157S5.654 34.274 1.595 42.68c-4.06 8.406 3.479 15.942 12.83 11.884v-8.406z" fill="#FFE8B8"/><path d="M43.056 70.142c-.435 0-.87-.073-1.377-.218-4.277-1.376-6.016-8.477-6.089-8.767l1.232-.29c0 .072 1.668 6.739 5.22 7.826 3.334 1.086 5.146-3.551 5.218-3.768l1.16.434c-.58 1.884-2.537 4.783-5.364 4.783z" fill="#594A42"/></g></g><g><path d="M82.633 187.6s51.61 8.333 61.25 22.608c9.64 14.202-10.438 75.649-10.438 75.649l-10.22-4.42 1.884-58.766-47.695-13.405 5.22-21.666z" fill="#4E7783"/><path d="M14.642 187.6s0 22.173 15.512 30.506c15.512 8.333 76.037 13.768 76.037 13.768l-13.845 48.983 9.496 5s24.065-31.086 31.603-49.418c7.539-18.333-.797-33.84-50.812-48.839H14.642z" fill="#699298"/><path d="M33.053 85.576c13.845-11.304 52.262 0 56.466 10.869 4.204 10.869 10.076 48.476 10.076 48.476l27.979-19.202 5.871 6.449s-22.543 34.926-33.85 34.926c-11.308 0-14.57-10.87-14.57-10.87L82.633 187.6s-32.473 8.333-67.991 0c0 0-4.856-83.04 18.411-102.024z" fill="#DC2A27"/><g transform="translate(50.015 15.217)"><path d="M59.873 31.086s-4.567 10.434-6.306 25.07c-1.74 14.638-1.668 23.84-17.977 21.739-16.309-2.101-24.645-22.173-25.515-36.375-.87-14.202 5.002-38.042 27.617-33.042 22.616 5 25.515 12.825 22.18 22.608z" fill="#FAB68F"/><path d="M45.738 38.404s1.885 5.58 6.379 12.39c4.494 6.885-5.22 10.58-7.539 2.537-2.247-8.043 1.16-14.927 1.16-14.927z" fill="#EC977E"/><ellipse fill="#594A42" cx="35.59" cy="34.926" rx="2.32" ry="2.319"/><ellipse fill="#594A42" cx="53.204" cy="37.172" rx="2.32" ry="2.319"/><path d="M30.299 14.637s8.336 6.594 22.978 9.42c14.642 2.826 16.236-5.942 13.41-12.826 0 0-4.06 2.174-9.714 0-5.653-2.173-24.79-19.781-42.331-4.71-17.541 15.072-11.453 49.78-.725 51.375 0 0-3.407-26.303 16.382-43.259z" fill="#594A42"/><path d="M13.99 50.722L5.29 68.04s2.9 9.493 10.003 9.493c7.104 0 7.684-5.87 7.684-5.87l1.957-11.448-10.945-9.493z" fill="#FAB68F"/><path d="M14.642 42.97s-8.77-11.884-12.83-3.479c-4.059 8.405 3.48 15.941 12.83 11.883V42.97z" fill="#FAB68F"/><path d="M48.565 61.736c-.362-1.594-3.552-1.159-7.683-1.811-4.132-.652-5.727-6.884-9.64-3.623-4.64 3.913 2.029 10.217 8.697 10.217 8.844 0 9.061-2.971 8.626-4.783z" fill="#FFF"/></g><path d="M127.574 125.719s-.435-7.391 3.262-9.637c3.769-2.174 7.973-.363 9.423 4.058 1.45 4.42-.363 10.724-6.814 12.028l-5.871-6.449z" fill="#FAB68F"/><path d="M127.574 125.719s1.232-5.072 3.48-6.811c2.174-1.74 5.943-1.377 6.305 0 .29 1.376-3.841 2.826-3.841 2.826s4.204 4.275 0 10.434l-5.944-6.449z" fill="#EC977E"/><path d="M92.346 280.857l-6.596 7.753 21.963 16.086s.652-8.767-5.871-18.84l-9.496-5zM123.225 281.509l-5.22 8.188 23.414 10.434s-1.668-8.333-7.974-14.202l-10.22-4.42z" fill="#594A42"/></g><g><path d="M345.102 187.6s-51.61 8.333-61.25 22.608 10.438 75.649 10.438 75.649l10.22-4.42-1.884-58.766 47.695-13.405-5.219-21.666z" fill="#414042"/><path d="M413.093 187.6s0 22.173-15.512 30.506c-15.511 8.333-76.037 13.768-76.037 13.768l13.845 48.983-9.496 5s-24.065-31.086-31.603-49.418c-7.539-18.333.797-33.84 50.812-48.839h67.991z" fill="#58595B"/><path d="M369.095 91.807c7.9-5.796 46.535-6.231 50.667 4.638 4.204 10.869 10.075 48.476 10.075 48.476l27.98-19.202 5.87 6.449s-22.542 34.926-33.85 34.926c-11.307 0-14.57-10.87-14.57-10.87l-2.391 31.376s-32.474 8.333-67.991 0c0 0 6.016-82.387 24.21-95.793z" fill="#FFDE17"/><g transform="translate(350.104 23.187)"><path d="M6.379 14.275s.58 11.376-3.045 25.65C-.29 54.2-3.552 62.824 12.467 66.592c16.02 3.84 30.952-11.956 36.75-24.999 5.8-13.043 8.771-37.39-14.134-40.65C12.178-2.318 6.74 3.985 6.379 14.275z" fill="#A46C35"/><path d="M17.034 26.158s-3.697 4.493-10.365 9.348c-6.669 4.782 1.16 11.738 6.16 5.072 5.002-6.666 4.205-14.42 4.205-14.42z" fill="#8E572A"/><ellipse fill="#594A42" cx="27.689" cy="26.521" rx="2.32" ry="2.319"/><ellipse fill="#594A42" cx="10.438" cy="22.39" rx="2.32" ry="2.319"/><path d="M49.217 41.665c5.8-12.97 8.771-37.39-14.134-40.65-17.397-2.537-24.718.507-27.4 6.666 1.74 1.014 4.205 1.884 7.321 2.391 14.715 2.536 24.863-.652 24.863-.652 12.322 22.608.29 45.722 0 46.23 4.059-4.348 7.248-9.348 9.35-13.985z" fill="#594A42"/><path d="M41.534 49.273l2.754 22.825S38.2 79.924 31.531 77.46c-6.669-2.536-5.146-8.188-5.146-8.188l2.247-11.376 12.902-8.623z" fill="#A46C35"/><path d="M44.506 41.447S56.9 33.404 57.77 42.752c.87 9.275-8.843 13.695-16.237 6.521l2.972-7.826z" fill="#A46C35"/><path d="M6.089 46.954c.87-1.376 3.697.218 7.828 1.015 4.132.87 7.829-4.42 10.293 0 2.972 5.29-5.581 8.84-11.743 6.521-8.263-3.116-7.393-5.941-6.378-7.536z" fill="#FFF"/></g><path d="M369.095 91.807L330.75 123.98l-23.703-37.39-8.19 3.623s9.06 46.665 22.977 50.795c13.917 4.13 45.159-11.376 45.159-11.376s9.06-17.1 2.102-37.825z" fill="#FFDE17"/><path d="M307.047 86.59s1.16-6.739 4.494-12.028c3.262-5.362-.58-6.45-2.247-2.971-1.667 3.478-3.696 5.29-5.291 4.42-1.595-.797-.435-16.376-2.827-15.869-2.32.435-1.812 11.521-2.32 12.318-.507.87-1.957-10.724-4.928-11.013-2.972-.29 2.319 13.332 1.377 14.564-.943 1.232-4.857-11.449-6.451-9.492-1.595 1.956 3.116 10.869 2.682 12.463-.435 1.594-2.972-7.608-5.002-6.522-2.03 1.087 4.784 16.956 12.25 17.753l8.263-3.623zM457.02 126.299s.724-6.812-.943-12.826c-1.667-6.014 2.32-6.014 2.972-2.246.652 3.768 2.102 6.087 3.842 5.724 1.74-.362 5.001-15.579 7.103-14.492 2.102 1.087-1.45 11.521-1.232 12.463.29.942 4.856-9.782 7.756-9.202 2.972.507-5.944 12.173-5.437 13.622.508 1.45 7.829-9.71 8.844-7.39.942 2.318-6.017 9.564-6.017 11.23 0 1.667 5.002-6.52 6.596-4.854 1.668 1.667-9.35 15-16.744 13.695l-6.74-5.724z" fill="#A46C35"/><path d="M335.39 280.857l6.595 7.753-21.963 16.086s-.652-8.767 5.871-18.84l9.496-5zM304.51 281.509l5.22 8.188-23.413 10.362s1.667-8.333 7.973-14.202l10.22-4.348z" fill="#594A42"/></g><g><path fill="#A97C50" d="M82.923 158.833l-34.865 46.303h321.037l-36.388-46.303zM68.86 209.483l5.002 98.981s.58 2.536 8.119 0v-97.821l-13.12-1.16zM344.087 209.483l-5.001 98.981s-.58 2.536-8.119 0v-97.821l13.12-1.16z"/><path fill="#8B5E3C" d="M48.058 205.136l1.304 8.622 319.08-.87.653-7.752z"/><path fill="#F7941E" d="M143.013 158.833l-69.296 11.811-15.004 20.362 84.3 14.13 63.425 55.577 58.278-55.577 93.071-13.84-16.962-22.1-75.53-10.363z"/><path fill="#FFDE17" d="M62.192 186.223l84.3 16.014 59.656 50.578 55.234-51.375 93.868-13.477-11.815-15.29-89.374-13.84h-96.116l-88.94 18.26z"/></g><g><path d="M197.667 156.95s-5.654-1.45-11.742 1.014c-6.09 2.464-11.743 6.376-9.858 7.536 1.884 1.16 7.393-1.884 8.263-1.884.87 0 7.756 1.666 14.497 2.174l-1.16-8.84z" fill="#EC977E"/><path d="M225.864 90.286s37.112 32.462 43.201 57.823c6.089 25.361-70.456 17.753-70.456 17.753l-1.232-8.913 39.65-15.144s-10.656-16.738-11.163-51.52z" fill="#27AAE1"/></g><ellipse fill="#F7941E" cx="208.25" cy="176.514" rx="23.123" ry="3.116"/><g><path d="M162.947 90.286s-37.113 32.462-43.201 57.823c-6.09 25.361 70.455 17.753 70.455 17.753l1.232-8.913-39.649-15.144s10.655-16.738 11.163-51.52z" fill="#27AAE1"/><path d="M191.433 156.95s5.654-1.45 11.743 1.014 11.743 6.376 9.858 7.536c-1.885 1.16-7.393-1.884-8.263-1.884-.87 0-7.756 1.666-14.497 2.174l1.16-8.84z" fill="#FAB68F"/></g><g><path d="M222.095 152.312s-.073 20.724-2.392 22.825c-2.32 2.101-18.412 3.188-20.296.217-1.885-2.97-3.19-22.752-3.19-22.752s12.105-6.232 25.878-.29z" fill="#ED1C24"/><path d="M198.754 158.036l.218 2.32c-2.03.144-6.234.796-6.016 3.405.145 2.101 3.986 3.623 6.813 4.492l.435 3.986s-10.075-1.957-10.003-8.84c.073-6.884 8.553-5.363 8.553-5.363z" fill="#ED1C24"/><path d="M220.935 152.964s-5.654-1.811-12.54-1.739c-6.886.073-10.728 2.029-10.728 2.029s4.132 1.739 10.873 1.667c6.814-.073 12.395-1.957 12.395-1.957z" fill="#594A42"/></g><ellipse fill="#F7941E" cx="111.047" cy="181.586" rx="23.123" ry="3.116"/><g><path d="M121.558 158.181s-.363 20.724-2.682 22.825c-2.32 2.102-18.484 2.899-20.296 0-1.885-2.898-2.9-22.825-2.9-22.825s12.178-6.086 25.878 0z" fill="#FFF"/><path d="M98.145 163.616l.217 2.319c-2.03.144-6.233.724-6.088 3.333.145 2.101 3.914 3.695 6.74 4.565l.363 3.985s-10.075-2.101-9.858-8.985c.218-6.884 8.626-5.217 8.626-5.217z" fill="#FFF"/><path d="M120.47 158.833s-5.653-1.884-12.54-1.884c-6.886 0-10.8 1.884-10.8 1.884s4.06 1.812 10.873 1.812c6.814 0 12.467-1.812 12.467-1.812z" fill="#594A42"/></g><g><path d="M36.605 83.402l5.509 65.94L85.46 169.34l-1.015 9.782s-48.42 3.406-60.67-6.738c-32.69-26.956-18.121-72.678 12.83-88.982z" fill="#DC2A27"/><path d="M85.46 169.34s7.249-5.434 11.163-3.768c3.914 1.667 5.654 6.45 3.769 10.58-1.885 4.202-8.698 8.115-15.947 2.898l1.015-9.71z" fill="#FAB68F"/></g><ellipse fill="#F7941E" cx="309.729" cy="176.514" rx="23.123" ry="3.116"/><g><path d="M291.608 154.123s.362 20.724 2.682 22.826c2.32 2.1 18.484 2.898 20.296 0 1.884-2.899 2.9-22.826 2.9-22.826s-12.178-6.159-25.878 0z" fill="#ED1C24"/><path d="M315.093 159.558l-.217 2.319c2.03.145 6.233.724 6.088 3.333-.144 2.101-3.914 3.695-6.74 4.565l-.363 3.985s10.075-2.101 9.858-8.985c-.218-6.884-8.626-5.217-8.626-5.217z" fill="#ED1C24"/><path d="M292.768 154.703s5.654-1.884 12.54-1.884c6.886 0 10.8 1.884 10.8 1.884s-4.06 1.812-10.873 1.812-12.467-1.812-12.467-1.812z" fill="#594A42"/></g></g></g></svg>