<?xml version="1.0" encoding="UTF-8"?>
<svg width="1400px" height="980px" viewBox="0 0 1400 980" version="1.1" xmlns="http://www.w3.org/2000/svg" xmlns:xlink="http://www.w3.org/1999/xlink">
    <!-- Generator: Sketch 55.2 (78181) - https://sketchapp.com -->
    <title>Free Welcome Home Vector</title>
    <desc>Created with Sketch.</desc>
    <defs>
        <polygon id="path-1" points="0.468444444 0.763771698 1357 0.763771698 1357 591.223 0.468444444 591.223"></polygon>
        <polygon id="path-3" points="0.18 0.283 56.3 0.283 56.3 48 0.18 48"></polygon>
        <polygon id="path-5" points="0.06 0.507 1400 0.507 1400 43 0.06 43"></polygon>
    </defs>
    <g id="Free-Welcome-Home-Vector" stroke="none" stroke-width="1" fill="none" fill-rule="evenodd">
        <polygon id="Fill-1" fill="#C9E6E8" points="0.06 980 1400 980 1400 0 0.06 0"></polygon>
        <path d="M127.427,199 L393.932,199 C393.932,199 498.535,197 484.108,135 C469.681,73 381.766,69 375.864,121 C375.864,121 422.077,55 358.125,33 C294.174,11 242.938,101 326.394,143 C326.394,143 271.6,81.632 265.023,169 C265.023,169 0.568,183 127.427,199" id="Fill-3" fill="#F5F8F8"></path>
        <path d="M1006.17,267 L821.796,267 C821.796,267 788.82,241.248 817.722,214.124 C846.623,187 867.383,229 867.383,229 C867.383,229 802.617,167 881.461,135 C960.304,103 910.326,214.124 910.326,214.124 C910.326,214.124 926.915,173 958.567,189 C990.22,205 946.132,247 946.132,247 C946.132,247 1018.14,223 1006.17,267" id="Fill-4" fill="#F5F8F8"></path>
        <path d="M752.116,522.301 L555.419,522.301 C555.419,522.301 520.46,483.878 583.332,483.384 C583.332,483.384 544.393,435.487 583.275,418.061 C622.157,400.634 631.31,470.181 631.31,470.181 C631.31,470.181 622.385,394.212 667.666,414.187 C712.945,434.161 649.25,499.019 649.25,499.019 C649.25,499.019 668.388,454.913 702.275,476.966 C736.164,499.019 689.516,504.856 689.516,504.856 C689.516,504.856 882.495,522.301 752.116,522.301" id="Fill-5" fill="#F5F8F8"></path>
        <g id="Group-9" transform="translate(43.000000, 11.000000)">
            <mask id="mask-2" fill="white">
                <use xlink:href="#path-1"></use>
            </mask>
            <g id="Clip-7"></g>
            <path d="M8.864,591.223 L64.309,591.223 C64.309,591.223 101.783,588.898 99.103,564.376 C96.421,539.854 57.739,551.954 61.024,571.588 C61.024,571.588 96.111,528.313 61.024,519.658 C25.936,511.003 37.111,568.703 37.111,568.703 C37.111,568.703 27.753,547.065 8.864,567.261 C-10.026,587.456 8.864,591.223 8.864,591.223" id="Fill-6" fill="#F5F8F8" mask="url(#mask-2)"></path>
            <path d="M1448.65,132.322 L1177.57,132.322 C1177.57,132.322 1132.86,112.322 1161.12,72.322 C1189.37,32.322 1212.39,100.534 1212.39,100.534 C1212.39,100.534 1153.47,5.5 1233.25,0.911 C1313.03,-3.678 1250.23,100.534 1250.23,100.534 C1250.23,100.534 1273.74,26.322 1321.31,54.322 C1368.87,82.322 1291.37,116.322 1291.37,116.322 C1291.37,116.322 1558.34,122.322 1448.65,132.322" id="Fill-8" fill="#F5F8F8" mask="url(#mask-2)"></path>
        </g>
        <path d="M1307.03,539.702 L1207.95,539.702 C1207.95,539.702 1188.67,516.371 1212.95,508.594 C1237.23,500.817 1233.24,524.148 1233.24,524.148 C1233.24,524.148 1206.67,468.154 1235.91,466.599 C1265.15,465.043 1259.19,528.814 1259.19,528.814 C1259.19,528.814 1258.73,482.152 1278.62,496.151 C1298.5,510.149 1278.62,528.814 1278.62,528.814 C1278.62,528.814 1315.56,514.815 1307.03,539.702" id="Fill-10" fill="#F5F8F8"></path>
        <g id="Group-13" transform="translate(1241.000000, 932.000000)">
            <mask id="mask-4" fill="white">
                <use xlink:href="#path-3"></use>
            </mask>
            <g id="Clip-12"></g>
            <path d="M56.3,28.418 C56.3,43.957 43.74,56.553 28.24,56.553 C12.74,56.553 0.18,43.957 0.18,28.418 C0.18,12.879 12.74,0.283 28.24,0.283 C43.74,0.283 56.3,12.879 56.3,28.418" id="Fill-11" fill="#30552D" mask="url(#mask-4)"></path>
        </g>
        <path d="M1290.32,929.212 C1290.32,940.887 1280.88,950.352 1269.24,950.352 C1257.59,950.352 1248.15,940.887 1248.15,929.212 C1248.15,917.536 1257.59,908.072 1269.24,908.072 C1280.88,908.072 1290.32,917.536 1290.32,929.212" id="Fill-14" fill="#30552D"></path>
        <polygon id="Fill-15" fill="#3B2723" points="980.722 960.867 982.586 960.867 982.586 909.716 980.722 909.716"></polygon>
        <path d="M993.227,910.112 C993.227,916.748 987.745,922.129 980.985,922.129 C974.225,922.129 968.743,916.748 968.743,910.112 C968.743,903.476 974.225,898.098 980.985,898.098 C987.745,898.098 993.227,903.476 993.227,910.112" id="Fill-16" fill="#30552D"></path>
        <polygon id="Fill-17" fill="#3B2723" points="962.094 966.785 963.958 966.785 963.958 937.859 962.094 937.859"></polygon>
        <path d="M974.598,939.511 C974.598,945.73 969.416,950.774 963.025,950.774 C956.635,950.774 951.452,945.73 951.452,939.511 C951.452,933.292 956.635,928.25 963.025,928.25 C969.416,928.25 974.598,933.292 974.598,939.511" id="Fill-18" fill="#489343"></path>
        <polygon id="Fill-19" fill="#3B2723" points="34.17 964.682 35.39 964.682 35.39 939.46 34.17 939.46"></polygon>
        <polygon id="Fill-20" fill="#F0AE99" points="59.998 974.231 128.144 974.231 128.144 815.548 59.998 815.548"></polygon>
        <path d="M103.962,837.954 C103.962,843.025 99.863,847.138 94.804,847.138 C89.745,847.138 85.644,843.025 85.644,837.954 C85.644,832.884 89.745,828.771 94.804,828.771 C99.863,828.771 103.962,832.884 103.962,837.954" id="Fill-21" fill="#8AC8A7"></path>
        <path d="M103.962,837.954 C103.962,843.025 99.863,847.138 94.804,847.138 C89.745,847.138 85.644,843.025 85.644,837.954 C85.644,832.884 89.745,828.771 94.804,828.771 C99.863,828.771 103.962,832.884 103.962,837.954 Z" id="Stroke-22" stroke="#8E3427"></path>
        <path d="M103.962,869.544 C103.962,874.615 99.863,878.728 94.804,878.728 C89.745,878.728 85.644,874.615 85.644,869.544 C85.644,864.473 89.745,860.361 94.804,860.361 C99.863,860.361 103.962,864.473 103.962,869.544" id="Fill-23" fill="#8AC8A7"></path>
        <path d="M103.962,869.544 C103.962,874.615 99.863,878.728 94.804,878.728 C89.745,878.728 85.644,874.615 85.644,869.544 C85.644,864.473 89.745,860.361 94.804,860.361 C99.863,860.361 103.962,864.473 103.962,869.544 Z" id="Stroke-24" stroke="#8E3427"></path>
        <path d="M103.962,900.675 C103.962,905.746 99.863,909.857 94.804,909.857 C89.745,909.857 85.644,905.746 85.644,900.675 C85.644,895.604 89.745,891.491 94.804,891.491 C99.863,891.491 103.962,895.604 103.962,900.675" id="Fill-25" fill="#8AC8A7"></path>
        <path d="M103.962,900.675 C103.962,905.746 99.863,909.857 94.804,909.857 C89.745,909.857 85.644,905.746 85.644,900.675 C85.644,895.604 89.745,891.491 94.804,891.491 C99.863,891.491 103.962,895.604 103.962,900.675 Z" id="Stroke-26" stroke="#8E3427"></path>
        <path d="M80.515,974.231 C80.515,974.231 76.118,922.072 94.07,922.072 C112.022,922.072 109.092,974.231 109.092,974.231 L80.515,974.231" id="Fill-27" fill="#8E3427"></path>
        <polyline id="Fill-28" fill="#8E3427" points="132.723 818.119 55.419 818.119 94.987 754.572 132.723 818.119"></polyline>
        <polygon id="Fill-29" fill="#239B64" points="27.452 974.231 42.107 974.231 42.107 961.742 27.452 961.742"></polygon>
        <path d="M42.352,934.07 C42.352,938.263 38.961,941.662 34.781,941.662 C30.599,941.662 27.209,938.263 27.209,934.07 C27.209,929.878 30.599,926.479 34.781,926.479 C38.961,926.479 42.352,929.878 42.352,934.07" id="Fill-30" fill="#436331"></path>
        <polygon id="Fill-31" fill="#441A21" points="248.387 881.146 266.514 881.146 266.514 859.049 248.387 859.049"></polygon>
        <polygon id="Fill-32" fill="#4581B6" points="171.349 977.704 278.461 977.704 278.461 899.733 171.349 899.733"></polygon>
        <polygon id="Fill-33" fill="#441A21" points="181.235 950.124 206.778 950.124 206.778 912.951 181.235 912.951"></polygon>
        <polygon id="Fill-34" fill="#B5D3E4" points="186.18 943.929 202.041 943.929 202.041 917.493 186.18 917.493"></polygon>
        <polygon id="Fill-35" fill="#245343" points="212.546 977.704 239.943 977.704 239.943 924.515 212.546 924.515"></polygon>
        <polygon id="Fill-36" fill="#B5D3E4" points="215.637 948.266 236.647 948.266 236.647 927.613 215.637 927.613"></polygon>
        <polygon id="Fill-37" fill="#441A21" points="245.709 949.298 271.251 949.298 271.251 912.124 245.709 912.124"></polygon>
        <polygon id="Fill-38" fill="#B5D3E4" points="250.652 943.103 266.514 943.103 266.514 916.668 250.652 916.668"></polygon>
        <polyline id="Fill-39" fill="#245343" points="270.278 876.602 183.053 876.602 157.746 906.341 292.468 906.341 270.278 876.602"></polyline>
        <polygon id="Fill-40" fill="#441A21" points="217.694 946.408 224.905 946.408 224.905 929.885 217.694 929.885"></polygon>
        <polygon id="Fill-41" fill="#441A21" points="227.582 946.408 234.792 946.408 234.792 929.885 227.582 929.885"></polygon>
        <polygon id="Fill-42" fill="#D7612B" points="418.457 861.667 430.948 861.667 430.948 812.957 418.457 812.957"></polygon>
        <polyline id="Fill-43" fill="#DF602A" points="342.11 975.987 450.185 975.987 450.185 929.264 396.147 821.903 342.11 930.259 342.11 975.987"></polyline>
        <path d="M411.02,876.578 C411.02,884.813 404.361,891.489 396.147,891.489 C387.934,891.489 381.274,884.813 381.274,876.578 C381.274,868.344 387.934,861.667 396.147,861.667 C404.361,861.667 411.02,868.344 411.02,876.578" id="Fill-44" fill="#D2D9E5"></path>
        <path d="M411.02,876.578 C411.02,884.813 404.361,891.489 396.147,891.489 C387.934,891.489 381.274,884.813 381.274,876.578 C381.274,868.344 387.934,861.667 396.147,861.667 C404.361,861.667 411.02,868.344 411.02,876.578 Z" id="Stroke-45" stroke="#9175A7"></path>
        <polygon id="Fill-46" fill="#D3E0EA" points="351.392 963.064 381.274 963.064 381.274 920.317 351.392 920.317"></polygon>
        <polygon id="Stroke-47" stroke="#A272A3" points="351.392 963.064 381.274 963.064 381.274 920.317 351.392 920.317"></polygon>
        <polygon id="Fill-48" fill="#D3E0EA" points="411.02 963.064 440.902 963.064 440.902 920.317 411.02 920.317"></polygon>
        <polygon id="Stroke-49" stroke="#A272A3" points="411.02 963.064 440.902 963.064 440.902 920.317 411.02 920.317"></polygon>
        <polyline id="Fill-50" fill="#471A20" points="342.11 930.259 328.229 920.317 396.147 800.034 396.147 821.903 342.11 930.259"></polyline>
        <polyline id="Fill-51" fill="#471A20" points="450.185 930.259 464.065 920.317 396.147 800.034 396.147 821.903 450.185 930.259"></polyline>
        <polygon id="Fill-52" fill="#3B2723" points="497.471 960.388 499.335 960.388 499.335 921.838 497.471 921.838"></polygon>
        <polyline id="Fill-53" fill="#A72443" points="506.592 974.985 490.215 974.985 487.204 955.896 509.603 955.896 506.592 974.985"></polyline>
        <path d="M509.976,907.515 C509.976,921.555 504.794,932.938 498.404,932.938 C492.012,932.938 486.831,921.555 486.831,907.515 C486.831,893.476 492.012,882.097 498.404,882.097 C504.794,882.097 509.976,893.476 509.976,907.515" id="Fill-54" fill="#677233"></path>
        <polygon id="Fill-55" fill="#DA964D" points="545.606 976.244 588.039 976.244 588.039 911.465 545.606 911.465"></polygon>
        <polyline id="Fill-56" fill="#D0223C" points="545.606 903.246 527.761 903.246 584.181 867.958 584.181 880.285 545.606 903.246"></polyline>
        <path d="M586.257,905.544 C585.524,905.544 584.829,905.695 584.181,905.94 L584.181,880.285 L545.606,903.246 L545.606,911.465 C545.606,914.735 548.251,917.387 551.513,917.387 C554.38,917.387 556.768,915.336 557.303,912.617 C557.838,915.336 560.226,917.387 563.093,917.387 C565.96,917.387 568.348,915.336 568.883,912.617 C569.418,915.336 571.806,917.387 574.673,917.387 C577.547,917.387 579.936,915.329 580.466,912.604 C580.995,915.329 583.384,917.387 586.257,917.387 C589.519,917.387 592.164,914.735 592.164,911.465 C592.164,908.194 589.519,905.544 586.257,905.544" id="Fill-57" fill="#B0244C"></path>
        <polygon id="Fill-58" fill="#DA964D" points="670.007 976.244 712.439 976.244 712.439 911.465 670.007 911.465"></polygon>
        <polyline id="Fill-59" fill="#D0223C" points="712.439 906.878 730.284 906.878 673.864 871.589 673.864 883.916 712.439 906.878"></polyline>
        <path d="M673.864,883.186 L673.864,908.841 C673.216,908.597 672.521,908.444 671.788,908.444 C668.526,908.444 665.882,911.096 665.882,914.365 C665.882,917.636 668.526,920.287 671.788,920.287 C674.438,920.287 676.653,918.525 677.401,916.116 C678.15,918.525 680.365,920.287 683.016,920.287 C686.277,920.287 688.922,917.636 688.922,914.365 L689.043,914.365 C689.043,917.636 691.688,920.287 694.949,920.287 C697.823,920.287 700.211,918.229 700.741,915.505 C701.271,918.229 703.66,920.287 706.533,920.287 C709.794,920.287 712.439,917.636 712.439,914.365 L712.439,906.147 L673.864,883.186" id="Fill-60" fill="#B0244C"></path>
        <polyline id="Fill-61" fill="#F4BD83" points="584.181 976.244 675.312 976.244 675.312 825.899 629.746 784.325 584.181 825.416 584.181 976.244"></polyline>
        <polyline id="Fill-62" fill="#D0223C" points="629.746 769.823 629.746 769.822 569.236 825.416 584.181 825.416 629.746 784.325 629.746 784.326 675.312 825.416 690.255 825.416 629.746 769.823"></polyline>
        <polygon id="Fill-63" fill="#EAF3E2" points="619.377 852.005 641.075 852.005 641.075 825.416 619.377 825.416"></polygon>
        <polygon id="Fill-64" fill="#EAF3E2" points="619.377 906.872 641.075 906.872 641.075 880.285 619.377 880.285"></polygon>
        <polygon id="Fill-65" fill="#D0223C" points="613.35 976.244 647.103 976.244 647.103 925.485 613.35 925.485"></polygon>
        <polyline id="Fill-66" fill="#B0244C" points="619.377 825.416 605.877 820.099 605.877 857.322 619.377 852.005 619.377 825.416"></polyline>
        <polyline id="Fill-67" fill="#B0244C" points="619.377 880.285 605.877 874.966 605.877 912.19 619.377 906.872 619.377 880.285"></polyline>
        <polyline id="Fill-68" fill="#B0244C" points="641.075 825.416 654.576 820.099 654.576 857.322 641.075 852.005 641.075 825.416"></polyline>
        <polyline id="Fill-69" fill="#B0244C" points="641.075 880.285 654.576 874.966 654.576 912.19 641.075 906.872 641.075 880.285"></polyline>
        <polyline id="Fill-70" fill="#D0223C" points="641.075 837.623 631.191 837.623 631.191 825.416 629.021 825.416 629.021 837.623 619.377 837.623 619.377 839.799 629.021 839.799 629.021 852.005 631.191 852.005 631.191 839.799 641.075 839.799 641.075 837.623"></polyline>
        <polyline id="Fill-71" fill="#D0223C" points="641.075 892.491 631.191 892.491 631.191 880.285 629.021 880.285 629.021 892.491 619.377 892.491 619.377 894.667 629.021 894.667 629.021 906.872 631.191 906.872 631.191 894.667 641.075 894.667 641.075 892.491"></polyline>
        <polygon id="Fill-72" fill="#DED02A" points="773.895 977.299 899.056 977.299 899.056 895.136 773.895 895.136"></polygon>
        <polyline id="Fill-73" fill="#2F5561" points="876.705 857.057 876.705 820.442 869.255 820.442 869.255 849.733 836.475 820.442 756.015 895.136 915.445 895.136 876.705 857.057"></polyline>
        <polygon id="Fill-74" fill="#F0F8F9" points="786.56 960.867 814.869 960.867 814.869 906.34 786.56 906.34"></polygon>
        <polygon id="Stroke-75" stroke="#781E2B" points="786.56 960.867 814.869 960.867 814.869 906.34 786.56 906.34"></polygon>
        <polygon id="Fill-76" fill="#F0F8F9" points="822.32 960.867 850.63 960.867 850.63 906.34 822.32 906.34"></polygon>
        <polygon id="Stroke-77" stroke="#781E2B" points="822.32 960.867 850.63 960.867 850.63 906.34 822.32 906.34"></polygon>
        <polygon id="Fill-78" fill="#F0F8F9" points="858.105 960.867 886.416 960.867 886.416 906.34 858.105 906.34"></polygon>
        <polygon id="Stroke-79" stroke="#781E2B" points="858.105 960.867 886.416 960.867 886.416 906.34 858.105 906.34"></polygon>
        <polyline id="Fill-80" fill="#781E2B" points="814.869 932.836 801.479 932.836 801.479 906.34 799.951 906.34 799.951 932.836 786.56 932.836 786.56 934.369 799.951 934.369 799.951 960.867 801.479 960.867 801.479 934.369 814.869 934.369 814.869 932.836"></polyline>
        <polyline id="Fill-81" fill="#781E2B" points="850.63 932.836 837.238 932.836 837.238 906.34 835.711 906.34 835.711 932.836 822.32 932.836 822.32 934.369 835.711 934.369 835.711 960.867 837.238 960.867 837.238 934.369 850.63 934.369 850.63 932.836"></polyline>
        <polyline id="Fill-82" fill="#781E2B" points="886.418 932.836 873.027 932.836 873.027 906.34 871.5 906.34 871.5 932.836 858.107 932.836 858.107 934.369 871.5 934.369 871.5 960.867 873.027 960.867 873.027 934.369 886.418 934.369 886.418 932.836"></polyline>
        <path d="M846.532,864.139 C846.532,869.708 842.028,874.222 836.475,874.222 C830.92,874.222 826.418,869.708 826.418,864.139 C826.418,858.568 830.92,854.055 836.475,854.055 C842.028,854.055 846.532,858.568 846.532,864.139" id="Fill-83" fill="#DED02A"></path>
        <path d="M846.532,864.139 C846.532,869.708 842.028,874.222 836.475,874.222 C830.92,874.222 826.418,869.708 826.418,864.139 C826.418,858.568 830.92,854.055 836.475,854.055 C842.028,854.055 846.532,858.568 846.532,864.139 Z" id="Stroke-84" stroke="#5F191B"></path>
        <polygon id="Fill-85" fill="#3B2723" points="943.09 961.731 944.954 961.731 944.954 923.182 943.09 923.182"></polygon>
        <polyline id="Fill-86" fill="#2A2961" points="985.107 976.33 940.941 976.33 932.824 957.241 993.227 957.241 985.107 976.33"></polyline>
        <path d="M955.595,922.922 C955.595,929.195 950.413,934.282 944.022,934.282 C937.631,934.282 932.449,929.195 932.449,922.922 C932.449,916.648 937.631,911.563 944.022,911.563 C950.413,911.563 955.595,916.648 955.595,922.922" id="Fill-87" fill="#3C6F38"></path>
        <polygon id="Fill-88" fill="#DECC9F" points="1070.8 976.503 1128.02 976.503 1128.02 838.514 1070.8 838.514"></polygon>
        <polygon id="Stroke-89" stroke="#9A5B2D" points="1070.8 976.503 1128.02 976.503 1128.02 838.514 1070.8 838.514"></polygon>
        <path d="M1104.76,926.113 C1104.76,929.538 1101.99,932.314 1098.57,932.314 C1095.15,932.314 1092.38,929.538 1092.38,926.113 C1092.38,922.688 1095.15,919.912 1098.57,919.912 C1101.99,919.912 1104.76,922.688 1104.76,926.113" id="Fill-91" fill="#51753D"></path>
        <polygon id="Fill-92" fill="#EBEDD1" points="1089.68 958.284 1107.46 958.284 1107.46 926.113 1089.68 926.113"></polygon>
        <polygon id="Stroke-93" stroke="#51753D" points="1089.68 958.284 1107.46 958.284 1107.46 926.113 1089.68 926.113"></polygon>
        <polygon id="Fill-94" fill="#51753D" points="1097.73 940.067 1099.41 940.067 1099.41 926.113 1097.73 926.113"></polygon>
        <polygon id="Fill-95" fill="#51753D" points="1089.52 940.067 1107.46 940.067 1107.46 938.39 1089.52 938.39"></polygon>
        <path d="M1104.76,863.515 C1104.76,866.939 1101.99,869.716 1098.57,869.716 C1095.15,869.716 1092.38,866.939 1092.38,863.515 C1092.38,860.09 1095.15,857.313 1098.57,857.313 C1101.99,857.313 1104.76,860.09 1104.76,863.515" id="Fill-96" fill="#51753D"></path>
        <polygon id="Fill-97" fill="#EBEDD1" points="1089.68 895.686 1107.46 895.686 1107.46 863.515 1089.68 863.515"></polygon>
        <polygon id="Stroke-98" stroke="#51753D" points="1089.68 895.686 1107.46 895.686 1107.46 863.515 1089.68 863.515"></polygon>
        <polygon id="Fill-99" fill="#51753D" points="1097.73 877.469 1099.41 877.469 1099.41 863.515 1097.73 863.515"></polygon>
        <polygon id="Fill-100" fill="#51753D" points="1089.52 877.469 1107.46 877.469 1107.46 875.791 1089.52 875.791"></polygon>
        <polyline id="Fill-101" fill="#51753D" points="1142.05 845.49 1054.93 845.49 1098.75 790.19 1142.05 845.49"></polyline>
        <path d="M1106.22,825.592 C1106.22,829.873 1102.76,833.344 1098.49,833.344 C1094.22,833.344 1090.76,829.873 1090.76,825.592 C1090.76,821.31 1094.22,817.84 1098.49,817.84 C1102.76,817.84 1106.22,821.31 1106.22,825.592" id="Fill-102" fill="#E1DD42"></path>
        <polygon id="Fill-103" fill="#DECC9F" points="1118.42 976.763 1223.51 976.763 1223.51 903.632 1118.42 903.632"></polygon>
        <polygon id="Stroke-104" stroke="#9A5B2D" points="1118.42 976.763 1223.51 976.763 1223.51 903.632 1118.42 903.632"></polygon>
        <path d="M1194.75,926.244 C1194.75,929.669 1191.98,932.445 1188.57,932.445 C1185.15,932.445 1182.38,929.669 1182.38,926.244 C1182.38,922.818 1185.15,920.042 1188.57,920.042 C1191.98,920.042 1194.75,922.818 1194.75,926.244" id="Fill-106" fill="#51753D"></path>
        <polygon id="Fill-107" fill="#EBEDD1" points="1179.67 958.415 1197.46 958.415 1197.46 926.244 1179.67 926.244"></polygon>
        <polygon id="Stroke-108" stroke="#51753D" points="1179.67 958.415 1197.46 958.415 1197.46 926.244 1179.67 926.244"></polygon>
        <polygon id="Fill-109" fill="#51753D" points="1187.73 940.198 1189.4 940.198 1189.4 926.244 1187.73 926.244"></polygon>
        <polygon id="Fill-110" fill="#51753D" points="1179.51 940.198 1197.46 940.198 1197.46 938.52 1179.51 938.52"></polygon>
        <polyline id="Fill-111" fill="#51753D" points="1234.32 903.439 1109.57 903.439 1172.31 848.141 1234.32 903.439"></polyline>
        <path d="M1179.67,883.541 C1179.67,887.823 1176.21,891.294 1171.94,891.294 C1167.67,891.294 1164.21,887.823 1164.21,883.541 C1164.21,879.26 1167.67,875.79 1171.94,875.79 C1176.21,875.79 1179.67,879.26 1179.67,883.541" id="Fill-112" fill="#E1DD42"></path>
        <path d="M1154.12,929.211 C1154.12,935.313 1149.19,940.263 1143.1,940.263 C1137.01,940.263 1132.08,935.313 1132.08,929.211 C1132.08,923.11 1137.01,918.16 1143.1,918.16 C1149.19,918.16 1154.12,923.11 1154.12,929.211" id="Fill-113" fill="#51753D"></path>
        <polygon id="Fill-114" fill="#51753D" points="1132.08 976.503 1154.24 976.503 1154.24 929.211 1132.08 929.211"></polygon>
        <path d="M1152.7,929.21 C1152.7,934.527 1148.4,938.836 1143.1,938.836 C1137.79,938.836 1133.5,934.527 1133.5,929.21 C1133.5,923.894 1137.79,919.585 1143.1,919.585 C1148.4,919.585 1152.7,923.894 1152.7,929.21" id="Fill-115" fill="#E1DD42"></path>
        <path d="M1323,903.439 C1323,905.114 1321.64,906.473 1319.97,906.473 C1318.3,906.473 1316.95,905.114 1316.95,903.439 C1316.95,901.765 1318.3,900.406 1319.97,900.406 C1321.64,900.406 1323,901.765 1323,903.439" id="Fill-116" fill="#2B5293"></path>
        <path d="M1364.05,709.316 C1364.05,728.989 1344.28,744.937 1319.89,744.937 C1295.5,744.937 1275.72,728.989 1275.72,709.316 C1275.72,689.645 1295.5,673.697 1319.89,673.697 C1344.28,673.697 1364.05,689.645 1364.05,709.316" id="Fill-117" fill="#A72B2A"></path>
        <polygon id="Fill-118" fill="#E5BA73" points="1276.04 976.989 1363.74 976.989 1363.74 714.728 1276.04 714.728"></polygon>
        <polyline id="Fill-119" fill="#A72B2A" points="1363.74 703.906 1276.04 703.906 1261.55 714.728 1378.22 714.728 1363.74 703.906"></polyline>
        <polyline id="Fill-120" fill="#A72B2A" points="1363.74 796.355 1276.04 796.355 1261.55 807.178 1378.22 807.178 1363.74 796.355"></polyline>
        <polyline id="Fill-121" fill="#A72B2A" points="1363.74 883.798 1276.04 883.798 1261.55 894.62 1378.22 894.62 1363.74 883.798"></polyline>
        <path d="M1308.14,748.023 C1308.14,752.438 1304.58,756.017 1300.2,756.017 C1295.82,756.017 1292.27,752.438 1292.27,748.023 C1292.27,743.608 1295.82,740.031 1300.2,740.031 C1304.58,740.031 1308.14,743.608 1308.14,748.023" id="Fill-122" fill="#F4E3D8"></path>
        <path d="M1308.14,748.023 C1308.14,752.438 1304.58,756.017 1300.2,756.017 C1295.82,756.017 1292.27,752.438 1292.27,748.023 C1292.27,743.608 1295.82,740.031 1300.2,740.031 C1304.58,740.031 1308.14,743.608 1308.14,748.023 Z" id="Stroke-123" stroke="#2B5293"></path>
        <polygon id="Fill-124" fill="#F4E3D8" points="1292.27 768.184 1308.14 768.184 1308.14 748.106 1292.27 748.106"></polygon>
        <polygon id="Stroke-125" stroke="#2B5293" points="1292.27 768.184 1308.14 768.184 1308.14 748.106 1292.27 748.106"></polygon>
        <polyline id="Fill-126" fill="#2B5293" points="1307.96 757.884 1300.29 757.884 1300.29 748.106 1299.77 748.106 1299.77 757.884 1292.1 757.884 1292.1 758.405 1299.77 758.405 1299.77 768.184 1300.29 768.184 1300.29 758.405 1307.96 758.405 1307.96 757.884"></polyline>
        <path d="M1347.81,748.023 C1347.81,752.438 1344.25,756.017 1339.88,756.017 C1335.5,756.017 1331.94,752.438 1331.94,748.023 C1331.94,743.608 1335.5,740.031 1339.88,740.031 C1344.25,740.031 1347.81,743.608 1347.81,748.023" id="Fill-127" fill="#F4E3D8"></path>
        <path d="M1347.81,748.023 C1347.81,752.438 1344.25,756.017 1339.88,756.017 C1335.5,756.017 1331.94,752.438 1331.94,748.023 C1331.94,743.608 1335.5,740.031 1339.88,740.031 C1344.25,740.031 1347.81,743.608 1347.81,748.023 Z" id="Stroke-128" stroke="#2B5293"></path>
        <polygon id="Fill-129" fill="#F4E3D8" points="1331.94 768.184 1347.81 768.184 1347.81 748.106 1331.94 748.106"></polygon>
        <polygon id="Stroke-130" stroke="#2B5293" points="1331.94 768.184 1347.81 768.184 1347.81 748.106 1331.94 748.106"></polygon>
        <polyline id="Fill-131" fill="#2B5293" points="1347.63 757.884 1339.96 757.884 1339.96 748.106 1339.44 748.106 1339.44 757.884 1331.77 757.884 1331.77 758.405 1339.44 758.405 1339.44 768.184 1339.96 768.184 1339.96 758.405 1347.63 758.405 1347.63 757.884"></polyline>
        <path d="M1308.14,837.142 C1308.14,841.557 1304.58,845.135 1300.2,845.135 C1295.82,845.135 1292.27,841.557 1292.27,837.142 C1292.27,832.729 1295.82,829.149 1300.2,829.149 C1304.58,829.149 1308.14,832.729 1308.14,837.142" id="Fill-132" fill="#F4E3D8"></path>
        <path d="M1308.14,837.142 C1308.14,841.557 1304.58,845.135 1300.2,845.135 C1295.82,845.135 1292.27,841.557 1292.27,837.142 C1292.27,832.729 1295.82,829.149 1300.2,829.149 C1304.58,829.149 1308.14,832.729 1308.14,837.142 Z" id="Stroke-133" stroke="#2B5293"></path>
        <polygon id="Fill-134" fill="#F4E3D8" points="1292.27 857.302 1308.14 857.302 1308.14 837.225 1292.27 837.225"></polygon>
        <polygon id="Stroke-135" stroke="#2B5293" points="1292.27 857.302 1308.14 857.302 1308.14 837.225 1292.27 837.225"></polygon>
        <polyline id="Fill-136" fill="#2B5293" points="1307.96 847.002 1300.29 847.002 1300.29 837.225 1299.77 837.225 1299.77 847.002 1292.1 847.002 1292.1 847.524 1299.77 847.524 1299.77 857.302 1300.29 857.302 1300.29 847.524 1307.96 847.524 1307.96 847.002"></polyline>
        <path d="M1347.81,837.142 C1347.81,841.557 1344.25,845.135 1339.88,845.135 C1335.5,845.135 1331.94,841.557 1331.94,837.142 C1331.94,832.729 1335.5,829.149 1339.88,829.149 C1344.25,829.149 1347.81,832.729 1347.81,837.142" id="Fill-137" fill="#F4E3D8"></path>
        <path d="M1347.81,837.142 C1347.81,841.557 1344.25,845.135 1339.88,845.135 C1335.5,845.135 1331.94,841.557 1331.94,837.142 C1331.94,832.729 1335.5,829.149 1339.88,829.149 C1344.25,829.149 1347.81,832.729 1347.81,837.142 Z" id="Stroke-138" stroke="#2B5293"></path>
        <polygon id="Fill-139" fill="#F4E3D8" points="1331.94 857.302 1347.81 857.302 1347.81 837.225 1331.94 837.225"></polygon>
        <polygon id="Stroke-140" stroke="#2B5293" points="1331.94 857.302 1347.81 857.302 1347.81 837.225 1331.94 837.225"></polygon>
        <polyline id="Fill-141" fill="#2B5293" points="1347.63 847.002 1339.96 847.002 1339.96 837.225 1339.44 837.225 1339.44 847.002 1331.77 847.002 1331.77 847.524 1339.44 847.524 1339.44 857.302 1339.96 857.302 1339.96 847.524 1347.63 847.524 1347.63 847.002"></polyline>
        <path d="M1308.14,917.347 C1308.14,921.762 1304.58,925.34 1300.2,925.34 C1295.82,925.34 1292.27,921.762 1292.27,917.347 C1292.27,912.934 1295.82,909.354 1300.2,909.354 C1304.58,909.354 1308.14,912.934 1308.14,917.347" id="Fill-142" fill="#F4E3D8"></path>
        <path d="M1308.14,917.347 C1308.14,921.762 1304.58,925.34 1300.2,925.34 C1295.82,925.34 1292.27,921.762 1292.27,917.347 C1292.27,912.934 1295.82,909.354 1300.2,909.354 C1304.58,909.354 1308.14,912.934 1308.14,917.347 Z" id="Stroke-143" stroke="#2B5293"></path>
        <polygon id="Fill-144" fill="#F4E3D8" points="1292.27 937.507 1308.14 937.507 1308.14 917.43 1292.27 917.43"></polygon>
        <polygon id="Stroke-145" stroke="#2B5293" points="1292.27 937.507 1308.14 937.507 1308.14 917.43 1292.27 917.43"></polygon>
        <polyline id="Fill-146" fill="#2B5293" points="1307.96 927.207 1300.29 927.207 1300.29 917.43 1299.77 917.43 1299.77 927.207 1292.1 927.207 1292.1 927.729 1299.77 927.729 1299.77 937.507 1300.29 937.507 1300.29 927.729 1307.96 927.729 1307.96 927.207"></polyline>
        <path d="M1347.81,917.347 C1347.81,921.762 1344.25,925.34 1339.88,925.34 C1335.5,925.34 1331.94,921.762 1331.94,917.347 C1331.94,912.934 1335.5,909.354 1339.88,909.354 C1344.25,909.354 1347.81,912.934 1347.81,917.347" id="Fill-147" fill="#F4E3D8"></path>
        <path d="M1347.81,917.347 C1347.81,921.762 1344.25,925.34 1339.88,925.34 C1335.5,925.34 1331.94,921.762 1331.94,917.347 C1331.94,912.934 1335.5,909.354 1339.88,909.354 C1344.25,909.354 1347.81,912.934 1347.81,917.347 Z" id="Stroke-148" stroke="#2B5293"></path>
        <polygon id="Fill-149" fill="#F4E3D8" points="1331.94 937.507 1347.81 937.507 1347.81 917.43 1331.94 917.43"></polygon>
        <polygon id="Stroke-150" stroke="#2B5293" points="1331.94 937.507 1347.81 937.507 1347.81 917.43 1331.94 917.43"></polygon>
        <polyline id="Fill-151" fill="#2B5293" points="1347.63 927.207 1339.96 927.207 1339.96 917.43 1339.44 917.43 1339.44 927.207 1331.77 927.207 1331.77 927.729 1339.44 927.729 1339.44 937.507 1339.96 937.507 1339.96 927.729 1347.63 927.729 1347.63 927.207"></polyline>
        <path d="M1327.91,952.901 C1327.91,947.627 1324.35,943.352 1319.97,943.352 C1315.59,943.352 1312.04,947.627 1312.04,952.901 C1312.04,952.935 1312.04,952.967 1312.05,953 L1312.04,953 L1312.04,976.988 L1327.91,976.988 L1327.91,953 L1327.9,953 C1327.9,952.967 1327.91,952.935 1327.91,952.901" id="Fill-152" fill="#F4E3D8"></path>
        <path d="M1327.91,952.901 C1327.91,947.627 1324.35,943.352 1319.97,943.352 C1315.59,943.352 1312.04,947.627 1312.04,952.901 C1312.04,952.935 1312.04,952.967 1312.05,953 L1312.04,953 L1312.04,976.988 L1327.91,976.988 L1327.91,953 L1327.9,953 C1327.9,952.967 1327.91,952.935 1327.91,952.901 Z" id="Stroke-153" stroke="#2B5293"></path>
        <polygon id="Fill-155" fill="#2B5293" points="1319.55 977.484 1320.4 977.484 1320.4 943.352 1319.55 943.352"></polygon>
        <path d="M1333.04,903.439 C1333.04,905.114 1331.68,906.473 1330.01,906.473 C1328.34,906.473 1326.99,905.114 1326.99,903.439 C1326.99,901.765 1328.34,900.406 1330.01,900.406 C1331.68,900.406 1333.04,901.765 1333.04,903.439" id="Fill-156" fill="#2B5293"></path>
        <path d="M1343.07,903.439 C1343.07,905.114 1341.72,906.473 1340.05,906.473 C1338.38,906.473 1337.02,905.114 1337.02,903.439 C1337.02,901.765 1338.38,900.406 1340.05,900.406 C1341.72,900.406 1343.07,901.765 1343.07,903.439" id="Fill-157" fill="#2B5293"></path>
        <path d="M1353.11,903.439 C1353.11,905.114 1351.75,906.473 1350.08,906.473 C1348.41,906.473 1347.06,905.114 1347.06,903.439 C1347.06,901.765 1348.41,900.406 1350.08,900.406 C1351.75,900.406 1353.11,901.765 1353.11,903.439" id="Fill-158" fill="#2B5293"></path>
        <path d="M1312.96,903.439 C1312.96,905.114 1311.61,906.473 1309.94,906.473 C1308.27,906.473 1306.91,905.114 1306.91,903.439 C1306.91,901.765 1308.27,900.406 1309.94,900.406 C1311.61,900.406 1312.96,901.765 1312.96,903.439" id="Fill-159" fill="#2B5293"></path>
        <path d="M1302.93,903.439 C1302.93,905.114 1301.57,906.473 1299.9,906.473 C1298.23,906.473 1296.88,905.114 1296.88,903.439 C1296.88,901.765 1298.23,900.406 1299.9,900.406 C1301.57,900.406 1302.93,901.765 1302.93,903.439" id="Fill-160" fill="#2B5293"></path>
        <path d="M1292.89,903.439 C1292.89,905.114 1291.54,906.473 1289.87,906.473 C1288.2,906.473 1286.84,905.114 1286.84,903.439 C1286.84,901.765 1288.2,900.406 1289.87,900.406 C1291.54,900.406 1292.89,901.765 1292.89,903.439" id="Fill-161" fill="#2B5293"></path>
        <path d="M1323.42,815.718 C1323.42,817.393 1322.07,818.75 1320.4,818.75 C1318.73,818.75 1317.37,817.393 1317.37,815.718 C1317.37,814.043 1318.73,812.685 1320.4,812.685 C1322.07,812.685 1323.42,814.043 1323.42,815.718" id="Fill-162" fill="#2B5293"></path>
        <path d="M1333.46,815.718 C1333.46,817.393 1332.1,818.75 1330.43,818.75 C1328.76,818.75 1327.41,817.393 1327.41,815.718 C1327.41,814.043 1328.76,812.685 1330.43,812.685 C1332.1,812.685 1333.46,814.043 1333.46,815.718" id="Fill-163" fill="#2B5293"></path>
        <path d="M1343.49,815.718 C1343.49,817.393 1342.14,818.75 1340.47,818.75 C1338.8,818.75 1337.44,817.393 1337.44,815.718 C1337.44,814.043 1338.8,812.685 1340.47,812.685 C1342.14,812.685 1343.49,814.043 1343.49,815.718" id="Fill-164" fill="#2B5293"></path>
        <path d="M1353.53,815.718 C1353.53,817.393 1352.18,818.75 1350.5,818.75 C1348.83,818.75 1347.48,817.393 1347.48,815.718 C1347.48,814.043 1348.83,812.685 1350.5,812.685 C1352.18,812.685 1353.53,814.043 1353.53,815.718" id="Fill-165" fill="#2B5293"></path>
        <path d="M1313.39,815.718 C1313.39,817.393 1312.03,818.75 1310.36,818.75 C1308.69,818.75 1307.34,817.393 1307.34,815.718 C1307.34,814.043 1308.69,812.685 1310.36,812.685 C1312.03,812.685 1313.39,814.043 1313.39,815.718" id="Fill-166" fill="#2B5293"></path>
        <path d="M1303.35,815.718 C1303.35,817.393 1302,818.75 1300.33,818.75 C1298.65,818.75 1297.3,817.393 1297.3,815.718 C1297.3,814.043 1298.65,812.685 1300.33,812.685 C1302,812.685 1303.35,814.043 1303.35,815.718" id="Fill-167" fill="#2B5293"></path>
        <path d="M1293.31,815.718 C1293.31,817.393 1291.96,818.75 1290.29,818.75 C1288.62,818.75 1287.26,817.393 1287.26,815.718 C1287.26,814.043 1288.62,812.685 1290.29,812.685 C1291.96,812.685 1293.31,814.043 1293.31,815.718" id="Fill-168" fill="#2B5293"></path>
        <path d="M1323.42,724.153 C1323.42,725.828 1322.07,727.187 1320.4,727.187 C1318.73,727.187 1317.37,725.828 1317.37,724.153 C1317.37,722.479 1318.73,721.121 1320.4,721.121 C1322.07,721.121 1323.42,722.479 1323.42,724.153" id="Fill-169" fill="#2B5293"></path>
        <path d="M1333.46,724.153 C1333.46,725.828 1332.1,727.187 1330.43,727.187 C1328.76,727.187 1327.41,725.828 1327.41,724.153 C1327.41,722.479 1328.76,721.121 1330.43,721.121 C1332.1,721.121 1333.46,722.479 1333.46,724.153" id="Fill-170" fill="#2B5293"></path>
        <path d="M1343.49,724.153 C1343.49,725.828 1342.14,727.187 1340.47,727.187 C1338.8,727.187 1337.44,725.828 1337.44,724.153 C1337.44,722.479 1338.8,721.121 1340.47,721.121 C1342.14,721.121 1343.49,722.479 1343.49,724.153" id="Fill-171" fill="#2B5293"></path>
        <path d="M1353.53,724.153 C1353.53,725.828 1352.18,727.187 1350.5,727.187 C1348.83,727.187 1347.48,725.828 1347.48,724.153 C1347.48,722.479 1348.83,721.121 1350.5,721.121 C1352.18,721.121 1353.53,722.479 1353.53,724.153" id="Fill-172" fill="#2B5293"></path>
        <path d="M1313.39,724.153 C1313.39,725.828 1312.03,727.187 1310.36,727.187 C1308.69,727.187 1307.34,725.828 1307.34,724.153 C1307.34,722.479 1308.69,721.121 1310.36,721.121 C1312.03,721.121 1313.39,722.479 1313.39,724.153" id="Fill-173" fill="#2B5293"></path>
        <path d="M1303.35,724.153 C1303.35,725.828 1302,727.187 1300.33,727.187 C1298.65,727.187 1297.3,725.828 1297.3,724.153 C1297.3,722.479 1298.65,721.121 1300.33,721.121 C1302,721.121 1303.35,722.479 1303.35,724.153" id="Fill-174" fill="#2B5293"></path>
        <path d="M1293.31,724.153 C1293.31,725.828 1291.96,727.187 1290.29,727.187 C1288.62,727.187 1287.26,725.828 1287.26,724.153 C1287.26,722.479 1288.62,721.121 1290.29,721.121 C1291.96,721.121 1293.31,722.479 1293.31,724.153" id="Fill-175" fill="#2B5293"></path>
        <g id="Group-179" transform="translate(0.000000, 937.000000)">
            <mask id="mask-6" fill="white">
                <use xlink:href="#path-5"></use>
            </mask>
            <g id="Clip-177"></g>
            <path d="M1403.93,28.642 C1403.93,44.18 1391.37,56.776 1375.87,56.776 C1360.37,56.776 1347.81,44.18 1347.81,28.642 C1347.81,13.103 1360.37,0.507 1375.87,0.507 C1391.37,0.507 1403.93,13.103 1403.93,28.642" id="Fill-176" fill="#30552D" mask="url(#mask-6)"></path>
            <polyline id="Fill-178" fill="#30552D" mask="url(#mask-6)" points="0 33.592 1400 32.454 1400 43 0 43 0 33.592"></polyline>
        </g>
        <path d="M299.1,205.312 C281.52,278.847 207.655,324.206 134.12,306.625 C60.584,289.044 15.226,215.181 32.807,141.646 C50.387,68.11 124.251,22.75 197.787,40.331 C271.321,57.913 316.681,131.776 299.1,205.312" id="Fill-191" fill="#FBDB5A"></path>
        <path d="M54.466,158.3 C52.881,164.928 46.223,169.016 39.596,167.432 C32.969,165.847 28.88,159.189 30.464,152.562 C32.049,145.935 38.706,141.846 45.333,143.431 C51.962,145.015 56.049,151.673 54.466,158.3" id="Fill-192" fill="#DC3C3D"></path>
        <path d="M73.217,173.358 C71.633,179.985 64.975,184.074 58.348,182.489 C51.721,180.905 47.632,174.247 49.217,167.62 C50.8,160.992 57.458,156.904 64.086,158.488 C70.713,160.073 74.802,166.73 73.217,173.358" id="Fill-193" fill="#DC3C3D"></path>
        <path d="M93.037,186.562 C91.452,193.189 84.794,197.278 78.168,195.693 C71.539,194.109 67.452,187.452 69.035,180.824 C70.62,174.197 77.278,170.108 83.905,171.692 C90.532,173.277 94.621,179.935 93.037,186.562" id="Fill-194" fill="#DC3C3D"></path>
        <path d="M113.891,197.88 C112.306,204.508 105.649,208.596 99.021,207.012 C92.394,205.427 88.305,198.77 89.89,192.142 C91.475,185.515 98.131,181.427 104.76,183.011 C111.387,184.596 115.475,191.253 113.891,197.88" id="Fill-195" fill="#DC3C3D"></path>
        <path d="M135.378,209.062 C133.794,215.689 127.136,219.778 120.509,218.193 C113.882,216.608 109.793,209.951 111.378,203.324 C112.961,196.696 119.62,192.608 126.247,194.192 C132.874,195.777 136.963,202.435 135.378,209.062" id="Fill-196" fill="#DC3C3D"></path>
        <path d="M157.754,216.529 C156.169,223.157 149.511,227.246 142.884,225.661 C136.257,224.076 132.168,217.419 133.753,210.791 C135.338,204.164 141.995,200.076 148.623,201.66 C155.25,203.245 159.338,209.902 157.754,216.529" id="Fill-197" fill="#DC3C3D"></path>
        <path d="M180.611,221.996 C179.026,228.624 172.37,232.712 165.742,231.127 C159.114,229.543 155.026,222.885 156.61,216.258 C158.195,209.63 164.852,205.542 171.48,207.126 C178.107,208.711 182.196,215.369 180.611,221.996" id="Fill-198" fill="#DC3C3D"></path>
        <path d="M203.877,225.747 C202.292,232.374 195.634,236.462 189.007,234.878 C182.38,233.293 178.291,226.636 179.875,220.008 C181.46,213.381 188.118,209.293 194.746,210.877 C201.373,212.462 205.462,219.119 203.877,225.747" id="Fill-199" fill="#DC3C3D"></path>
        <path d="M227.756,226.915 C226.173,233.542 219.515,237.63 212.888,236.046 C206.26,234.461 202.172,227.804 203.756,221.177 C205.341,214.549 211.998,210.46 218.625,212.045 C225.252,213.629 229.341,220.287 227.756,226.915" id="Fill-200" fill="#DC3C3D"></path>
        <path d="M251.716,221.585 C251.525,228.397 245.848,233.764 239.036,233.572 C232.224,233.381 226.857,227.704 227.048,220.893 C227.24,214.081 232.917,208.714 239.728,208.906 C246.54,209.097 251.907,214.774 251.716,221.585" id="Fill-201" fill="#DC3C3D"></path>
        <path d="M275.549,217.92 C275.357,224.731 269.68,230.098 262.868,229.907 C256.057,229.715 250.689,224.039 250.881,217.227 C251.073,210.415 256.75,205.048 263.561,205.24 C270.372,205.431 275.739,211.108 275.549,217.92" id="Fill-202" fill="#DC3C3D"></path>
        <path d="M297.275,210.425 C297.084,217.237 291.407,222.604 284.595,222.413 C277.783,222.221 272.417,216.544 272.608,209.732 C272.799,202.92 278.477,197.553 285.288,197.745 C292.099,197.936 297.467,203.614 297.275,210.425" id="Fill-203" fill="#DC3C3D"></path>
        <path d="M31.292,156.408 L80.044,372.23 M53.536,180.131 L87.472,374.007 M78.168,195.693 L95.484,375.922 M99.021,207.012 L103.187,377.764 M121.466,214.187 L108.827,379.112 M142.884,225.661 L113.473,380.223 M165.742,231.127 L121.051,382.639 M189.007,234.878 L129.197,383.982 M212.888,236.046 L137.759,386.029 M239.036,233.572 L145.188,387.806 M263.382,226.977 L149.189,388.762 M294.618,215.717 L153.474,389.787" id="Stroke-204" stroke="#DC3C3D"></path>
        <path d="M80.36,370.906 L82.453,425.364 C82.453,425.364 100.818,437.004 128.166,436.293 L152.052,389.447 C152.052,389.447 96.429,376.973 80.36,370.906" id="Fill-205" fill="#956B53"></path>
        <path d="M155.646,390.306 C155.188,392.222 137.227,389.569 115.528,384.381 C93.831,379.194 76.614,373.436 77.071,371.52 C77.529,369.605 95.49,372.257 117.187,377.444 C138.885,382.632 156.104,388.39 155.646,390.306" id="Fill-206" fill="#75523E"></path>
        <path d="M284.359,210.024 L285.529,210.134 C291.222,149.655 267.142,106.567 245.938,81.071 C224.968,55.858 203.337,42.841 199.412,40.587 L196.186,39.949 C132.743,45.763 94.477,76.539 73.237,101.5 C50.075,128.721 41.982,155 41.903,155.262 L43.028,155.602 C43.107,155.341 51.147,129.259 74.166,102.222 C94.7,78.102 131.568,48.425 191.648,41.538 C182.581,44.494 164.251,51.474 143.723,64.938 C116.919,82.516 80.753,115.062 60.665,170.288 L61.77,170.69 C81.741,115.787 117.687,83.426 144.327,65.947 C165.835,51.834 184.894,44.887 193.325,42.235 C125.224,82.94 80.946,182.435 80.497,183.455 L81.573,183.927 C82.023,182.902 126.81,82.26 195.438,42.341 C183.796,57.081 121.875,137.015 101.335,194.813 L102.443,195.206 C121.134,142.604 174.265,71.54 192.227,48.355 C171.532,86.007 123.363,204.662 122.833,205.97 L123.922,206.412 C124.476,205.042 177.241,75.067 195.939,44.234 C189.38,65.069 159.455,160.541 145.185,213.506 L146.32,213.812 C160.691,160.468 190.948,63.991 197.2,44.146 C196.186,80.781 168.328,217.577 168.035,219.008 L169.188,219.243 C169.47,217.861 195.422,90.43 198.172,48.386 C199.08,56.912 200.359,71.955 200.794,91.942 C201.437,121.476 200.309,168.149 191.296,222.78 L192.457,222.971 C207.278,133.128 201.108,63.546 198.98,45.078 C225.402,116.372 215.28,222.895 215.172,223.986 L216.342,224.102 C216.45,223.012 226.54,116.869 200.329,45.317 C211.552,63.395 249.61,132.392 238.801,221.168 L239.968,221.31 C246.567,167.116 234.882,120.709 223.917,91.323 C215.75,69.44 206.76,53.483 201.889,45.579 C238.579,85.785 253.246,129.305 259.061,159.245 C265.618,193.006 262.664,217.259 262.633,217.5 L263.799,217.647 C263.83,217.405 266.808,193.001 260.223,159.066 C254.297,128.523 239.225,83.924 201.137,43.013 C208.813,47.816 227.433,60.649 245.062,81.858 C266.111,107.179 290.013,149.967 284.359,210.024" id="Fill-207" fill="#DC3C3D"></path>
        <path d="M130.118,415.741 C102.67,409.178 81.544,375.439 81.314,375.065 L82.313,374.447 C82.564,374.853 107.694,414.971 138.403,415.655 L138.376,416.83 C135.573,416.768 132.813,416.385 130.118,415.741" id="Fill-208" fill="#3C2C24"></path>
        <path d="M82.528,374.927 C84.03,371.906 82.313,369.155 79.528,370.749 C77.27,372.04 79.908,374.145 81.339,375.101 C74.797,379.548 75.851,390.707 80.593,390.334 C85.707,389.932 83.118,377.496 82.528,374.927" id="Fill-209" fill="#E7A884"></path>
        <path d="M95.892,393.485 C95.892,393.485 94.078,389.33 97.616,390.326 C101.153,391.323 96.695,394.326 96.695,394.326 C96.695,394.326 101.902,405.246 95.775,408.765 C89.648,412.284 88.434,400.408 95.892,393.485" id="Fill-210" fill="#E7A884"></path>
        <path d="M104.457,401.198 C104.457,401.198 102.239,397.924 105.26,397.287 C108.282,396.651 105.838,401.271 105.838,401.271 C105.838,401.271 113.049,411.081 104.56,412.978 C96.072,414.875 102.629,402.452 104.457,401.198" id="Fill-211" fill="#E7A884"></path>
        <path d="M198.6,334.134 C198.6,334.134 215.758,335 224.046,353 C232.334,371 250.876,370.281 250.876,370.281 C250.876,370.281 245.737,373.461 239.036,372.23 C239.036,372.23 245.418,378.558 250.876,379.112 C250.876,379.112 234.528,378.128 228.098,372.23 C221.667,366.333 209.849,344.434 192.112,342.135 L198.6,334.134" id="Fill-212" fill="#DC3C3D"></path>
        <path d="M89.549,321.32 L91.469,334.134 C91.469,334.134 104.435,316.334 121.051,321.32 C121.051,321.32 98.783,309.521 89.549,321.32" id="Fill-213" fill="#DC3C3D"></path>
    </g>
</svg>